<?xml version="1.0" encoding="utf-8"?>
<!-- Generator: $$$/GeneralStr/196=Adobe Illustrator 27.6.0, SVG Export Plug-In . SVG Version: 6.00 Build 0)  -->
<svg version="1.1" id="Calque_1" xmlns="http://www.w3.org/2000/svg" xmlns:xlink="http://www.w3.org/1999/xlink" x="0px" y="0px"
	 viewBox="0 0 2926.23 1034.47" style="enable-background:new 0 0 2926.23 1034.47;" xml:space="preserve">
<style type="text/css">
	.st0{fill:#FFFFFF;}
	.st1{fill:#00284B;}
</style>
<g>
	<path class="st0" d="M1039.36,527.76l-49.8-122.8H963.4V559.2h26.16v-55.28c0-9.71-0.11-18.15-0.32-25.32s-0.67-13.08-1.37-17.72
		l39.03,98.33h24.9l39.25-98.54c-0.42,2.82-0.71,5.63-0.84,8.44c-0.14,2.82-0.28,6.05-0.42,9.71c-0.14,3.66-0.21,8.12-0.21,13.4
		c0,5.28,0,11.78,0,19.52v47.48h26.16V404.96h-26.59L1039.36,527.76z"/>
	<path class="st0" d="M1189.86,404.96l-55.7,154.24h27.85l12.66-35.66h57.6l12.45,35.66h28.49l-55.7-154.24H1189.86z
		 M1182.48,500.76l17.72-49.8c0.7-2.11,1.37-4.25,2-6.44c0.63-2.18,1.09-3.97,1.37-5.38c0.14,1.55,0.56,3.38,1.27,5.49
		c0.7,2.11,1.33,4.22,1.9,6.33l17.72,49.8H1182.48z"/>
	<polygon class="st0" points="1261.18,429.86 1306.34,429.86 1306.34,559.2 1333.34,559.2 1333.34,429.86 1378.5,429.86 
		1378.5,404.96 1261.18,404.96 	"/>
	<polygon class="st0" points="1492.27,468.9 1423.91,468.9 1423.91,404.96 1396.9,404.96 1396.9,559.2 1423.91,559.2 
		1423.91,493.79 1492.27,493.79 1492.27,559.2 1519.28,559.2 1519.28,404.96 1492.27,404.96 	"/>
	<polygon class="st0" points="1552.83,559.2 1648.62,559.2 1648.62,534.31 1579.83,534.31 1579.83,493.37 1641.45,493.37 
		1641.45,469.53 1579.83,469.53 1579.83,429.86 1648.62,429.86 1648.62,404.96 1552.83,404.96 	"/>
	<polygon class="st0" points="1630.47,362.76 1606.63,362.76 1590.81,393.99 1610.01,393.99 	"/>
	<path class="st0" d="M1753.74,527.76l-49.8-122.8h-26.16V559.2h26.16v-55.28c0-9.71-0.11-18.15-0.32-25.32s-0.67-13.08-1.37-17.72
		l39.03,98.33h24.9l39.25-98.54c-0.42,2.82-0.71,5.63-0.84,8.44c-0.14,2.82-0.28,6.05-0.42,9.71c-0.14,3.66-0.21,8.12-0.21,13.4
		c0,5.28,0,11.78,0,19.52v47.48h26.16V404.96h-26.59L1753.74,527.76z"/>
	<path class="st0" d="M1904.24,404.96l-55.7,154.24h27.85l12.66-35.66h57.6l12.45,35.66h28.49l-55.7-154.24H1904.24z
		 M1896.86,500.76l17.72-49.8c0.7-2.11,1.37-4.25,2-6.44c0.63-2.18,1.09-3.97,1.37-5.38c0.14,1.55,0.56,3.38,1.27,5.49
		c0.7,2.11,1.33,4.22,1.9,6.33l17.72,49.8H1896.86z"/>
	<polygon class="st0" points="1975.56,429.86 2020.72,429.86 2020.72,559.2 2047.72,559.2 2047.72,429.86 2092.88,429.86 
		2092.88,404.96 1975.56,404.96 	"/>
	<rect x="2111.28" y="404.96" class="st0" width="27.01" height="154.24"/>
	<path class="st0" d="M2313.33,481.98c0-15.75-3.17-29.61-9.5-41.57c-6.33-11.95-15.09-21.31-26.27-28.06s-24.16-10.13-38.93-10.13
		c-14.77,0-27.75,3.38-38.93,10.13c-11.18,6.75-19.94,16.14-26.27,28.17s-9.5,25.92-9.5,41.67c0,15.61,3.13,29.4,9.39,41.36
		c6.26,11.96,15.01,21.31,26.27,28.06c11.25,6.75,24.19,10.13,38.82,10.13c14.62,0,27.5-3.31,38.68-9.92l16.81,19l17.3-15.4
		l-16.43-18.5c3.43-4.05,6.45-8.53,9.05-13.47C2310.16,511.41,2313.33,497.59,2313.33,481.98z M2255.72,492.95l-17.09,15.4
		l20.46,23.11c-5.96,2.86-12.77,4.32-20.46,4.32c-9.43,0-17.62-2.18-24.58-6.54c-6.96-4.36-12.34-10.58-16.14-18.67
		c-3.8-8.09-5.7-17.62-5.7-28.59s1.9-20.47,5.7-28.48s9.18-14.24,16.14-18.67c6.96-4.43,15.16-6.65,24.58-6.65
		c9.56,0,17.79,2.22,24.69,6.65c6.89,4.43,12.24,10.66,16.04,18.67c3.8,8.02,5.7,17.51,5.7,28.48c0,10.83-1.9,20.29-5.7,28.38
		c-0.94,2.01-1.98,3.9-3.12,5.68L2255.72,492.95z"/>
	<path class="st0" d="M2433.47,501.18c0,10.97-2.95,19.45-8.86,25.43c-5.91,5.98-14.35,8.97-25.32,8.97
		c-10.83,0-19.2-2.95-25.11-8.86c-5.91-5.91-8.86-14.42-8.86-25.53v-96.22h-27.01v97.9c0,11.96,2.5,22.37,7.49,31.23
		c4.99,8.86,12.06,15.69,21.21,20.47c9.14,4.78,19.9,7.17,32.28,7.17c12.52,0,23.35-2.43,32.49-7.28
		c9.14-4.85,16.21-11.67,21.21-20.47c4.99-8.79,7.49-19.17,7.49-31.12v-97.9h-27.01V501.18z"/>
	<polygon class="st0" points="2493.18,559.2 2588.97,559.2 2588.97,534.31 2520.19,534.31 2520.19,493.37 2581.8,493.37 
		2581.8,469.53 2520.19,469.53 2520.19,429.86 2588.97,429.86 2588.97,404.96 2493.18,404.96 	"/>
	<path class="st0" d="M2709.6,487.15c-6.47-6.82-16.32-11.64-29.54-14.45l-24.27-5.49c-6.47-1.55-11.22-3.9-14.24-7.07
		c-3.03-3.17-4.54-7.49-4.54-12.98c0-6.47,2.5-11.57,7.49-15.3c4.99-3.73,11.64-5.59,19.94-5.59c7.6,0,13.64,1.87,18.15,5.59
		c4.5,3.73,6.89,8.9,7.17,15.51h27.01c-0.28-9.28-2.57-17.3-6.86-24.05c-4.29-6.75-10.27-11.95-17.94-15.61
		c-7.67-3.66-16.71-5.49-27.11-5.49c-10.83,0-20.36,1.94-28.59,5.8c-8.23,3.87-14.66,9.25-19.31,16.14
		c-4.64,6.89-6.96,14.84-6.96,23.84c0,11.96,3.38,21.63,10.13,29.01c6.75,7.39,16.67,12.49,29.75,15.3l24.48,5.49
		c6.33,1.27,10.9,3.48,13.71,6.65c2.81,3.17,4.22,7.42,4.22,12.77c0,6.19-2.64,11.15-7.91,14.88c-5.28,3.73-12.42,5.59-21.42,5.59
		c-8.58,0-15.37-1.86-20.36-5.59c-4.99-3.73-7.56-8.83-7.7-15.3h-27.01c0.28,9.15,2.71,17.09,7.28,23.84
		c4.57,6.75,10.94,11.99,19.1,15.72c8.16,3.73,17.65,5.59,28.48,5.59c11.39,0,21.34-1.94,29.86-5.8
		c8.51-3.87,15.09-9.39,19.73-16.56c4.64-7.17,6.96-15.47,6.96-24.9C2719.31,503.15,2716.07,493.97,2709.6,487.15z"/>
</g>
<g>
	<path class="st0" d="M504.07,207.45c-5.58-0.35-11.13-0.52-16.64-0.53c-76.81-0.09-146.4,32.63-207.03,97.43
		c-55.12,58.92-73.65,106.33-73.48,163.59c0.08,30.63,5.52,64.07,13.57,103.6c15.13,74.33,59.25,146.08,121.06,196.89
		c47.32,38.89,100.09,58.75,155.7,59.12c28.82,0.19,58.4-4.85,88.39-15.2c96.81-33.42,189.42-129.08,225.2-232.64
		c11.33-32.77,16.83-64.67,16.71-95.02c-0.29-74.18-34.17-139.19-98.92-185.68C650.09,242.59,574.54,211.79,504.07,207.45"/>
	<g>
		<path class="st1" d="M393.54,518.23h-21.29l-0.02,0.6c-0.17,4.14-2.63,40.35-35.03,40.35c-28.96,0-43.65-25.95-43.68-77.14
			c0.03-51.19,14.72-77.14,43.68-77.14c32.96,0,34.96,38.7,35.03,40.34l0.02,0.6h21.29c1.96,0,3.88-0.81,5.25-2.21
			c1.31-1.35,1.99-3.09,1.9-4.91c-0.44-10.04-5.6-60.14-63.79-60.14c-47.02,0-71.87,35.74-71.87,103.35
			c0,67.75,24.85,103.56,71.87,103.56c56.01,0,62.97-45.76,63.78-59.78c0.14-1.93-0.52-3.79-1.88-5.22
			C397.43,519.05,395.5,518.23,393.54,518.23"/>
		<path class="st1" d="M724.31,469.74L724.31,469.74l-18.33-7.99c-17.64-7.75-23.89-15.28-23.89-28.81
			c0-17.63,12.91-29.48,32.1-29.48c11.35,0,20.66,2.32,32.03,13.91l0.62,0.63l9.79-8.95c5.66-5.26,4.03-10,1.66-13.04
			c-9.55-11.26-24.87-17.44-43.17-17.44c-35.28,0-60.89,23.02-60.89,54.73c0,31.18,19.65,44.22,40.88,53.66l18.71,8.35
			c18.8,8.43,27.76,15.62,27.76,33.7c0,24.68-22.29,31.26-35.47,31.26c-11.33,0-23.95-2.43-39.45-19.99l-0.61-0.69l-10.19,8.95
			c-5.25,4.62-5.29,8.57-0.18,15.14c14.03,18.04,34.6,21.83,49.39,21.83c31.98,0,64.36-19.64,64.36-57.18
			C769.44,495.82,751.4,481.4,724.31,469.74"/>
		<path class="st1" d="M543.53,437.78c0-31.94-25.88-59.01-57.84-59.01c-15.03,0-28.72,5.73-39,15.13v-10.98h-19.24
			c-5.8,0-8.01,3.78-8.01,8.13v186.4c0,5.25,3.2,8.05,7.92,8.05h19.25V438.91c0-19.26,15.62-34.87,34.88-34.87
			c19.25,0,34.87,15.61,34.87,34.87v146.62h19.12c5.3,0,8.05-2.95,8.05-8.02V437.78z"/>
		<path class="st1" d="M653.88,392.71c1.01-1.25,1.63-2.81,1.63-4.53c0-3.21-2.09-5.91-4.97-6.88c-5.57-1.86-11.5-2.89-17.66-2.89
			c-15.03,0-28.72,5.73-39,15.13v-10.98h-19.24c-5.8,0-8.02,3.78-8.02,8.13v186.4c0,5.25,3.21,8.05,7.93,8.05h19.24V438.55
			c0-19.26,15.62-34.87,34.88-34.87c5.05,0,9.83,1.09,14.15,3.02l11.12-13.95L653.88,392.71z"/>
	</g>
</g>
</svg>
