<?xml version="1.0" encoding="utf-8"?>
<!-- Generator: $$$/GeneralStr/196=Adobe Illustrator 27.6.0, SVG Export Plug-In . SVG Version: 6.00 Build 0)  -->
<svg version="1.1" id="Calque_1" xmlns="http://www.w3.org/2000/svg" xmlns:xlink="http://www.w3.org/1999/xlink" x="0px" y="0px"
	 viewBox="0 0 2618 1554.44" style="enable-background:new 0 0 2618 1554.44;" xml:space="preserve">
<style type="text/css">
	.st0{fill:#FFFFFF;}
	.st1{fill:#00284B;}
</style>
<g>
	<g>
		<path class="st0" d="M283.4,1090.4c-5.28,3.73-12.42,5.59-21.42,5.59c-8.58,0-15.37-1.86-20.36-5.59
			c-4.99-3.73-7.56-8.83-7.7-15.3h-27.01c0.28,9.15,2.71,17.09,7.28,23.84c4.57,6.75,10.94,11.99,19.1,15.72
			c8.16,3.73,17.65,5.59,28.48,5.59c11.39,0,21.34-1.94,29.86-5.8c8.51-3.87,15.09-9.39,19.73-16.56c4.64-7.17,6.96-15.47,6.96-24.9
			c0-11.53-3.24-20.71-9.71-27.54c-6.47-6.82-16.32-11.64-29.54-14.45l-24.27-5.49c-6.47-1.55-11.22-3.9-14.24-7.07
			c-3.03-3.17-4.54-7.49-4.54-12.98c0-6.47,2.5-11.57,7.49-15.3c4.99-3.73,11.64-5.59,19.94-5.59c7.6,0,13.64,1.87,18.15,5.59
			c4.5,3.73,6.89,8.9,7.17,15.51h27.01c-0.28-9.28-2.57-17.3-6.86-24.05c-4.29-6.75-10.27-11.95-17.94-15.61
			c-7.67-3.66-16.71-5.49-27.11-5.49c-10.83,0-20.36,1.94-28.59,5.8c-8.23,3.87-14.66,9.25-19.31,16.14
			c-4.64,6.89-6.96,14.84-6.96,23.84c0,11.96,3.38,21.63,10.13,29.01c6.75,7.39,16.67,12.49,29.75,15.3l24.48,5.49
			c6.33,1.27,10.9,3.48,13.71,6.65c2.81,3.17,4.22,7.42,4.22,12.77C291.32,1081.72,288.68,1086.68,283.4,1090.4z"/>
		<path class="st0" d="M467.25,1094.31c6.54-8.16,10.79-17.58,12.76-28.27h-28.06c-2.53,8.58-7.56,15.4-15.09,20.47
			c-7.53,5.06-16.56,7.6-27.11,7.6c-9.28,0-17.41-2.22-24.37-6.65c-6.96-4.43-12.34-10.69-16.14-18.78
			c-3.8-8.09-5.7-17.48-5.7-28.17c0-11.11,1.9-20.68,5.7-28.7s9.18-14.21,16.14-18.57c6.96-4.36,15.09-6.54,24.37-6.54
			c10.41,0,19.23,2.5,26.48,7.49c7.24,4.99,12.2,11.99,14.88,20.99h28.48c-1.69-11.11-5.7-20.71-12.03-28.8
			c-6.33-8.09-14.35-14.38-24.05-18.88c-9.71-4.5-20.68-6.75-32.92-6.75c-14.91,0-28.06,3.31-39.46,9.92
			c-11.39,6.61-20.22,15.9-26.48,27.85c-6.26,11.96-9.39,25.95-9.39,41.99c0,16.18,3.06,30.21,9.18,42.09
			c6.12,11.89,14.7,21.1,25.74,27.64c11.04,6.54,24.09,9.81,39.14,9.81c12.24,0,23.32-2.25,33.23-6.75
			C452.48,1108.8,460.71,1102.47,467.25,1094.31z"/>
		<rect x="504.42" y="963.28" class="st0" width="27.01" height="154.24"/>
		<polygon class="st0" points="660.86,1092.62 592.07,1092.62 592.07,1051.69 653.68,1051.69 653.68,1027.84 592.07,1027.84 
			592.07,988.17 660.86,988.17 660.86,963.28 565.06,963.28 565.06,1117.52 660.86,1117.52 		"/>
		<polygon class="st0" points="789.19,1117.52 815.77,1117.52 815.77,963.28 789.19,963.28 789.19,1072.79 716.81,963.28 
			690.02,963.28 690.02,1117.52 716.6,1117.52 716.6,1008.16 		"/>
		<path class="st0" d="M948.96,1113.3c9.92-4.5,18.15-10.83,24.69-18.99c6.54-8.16,10.79-17.58,12.76-28.27h-28.06
			c-2.53,8.58-7.56,15.4-15.09,20.47c-7.53,5.06-16.56,7.6-27.11,7.6c-9.28,0-17.41-2.22-24.37-6.65
			c-6.96-4.43-12.34-10.69-16.14-18.78c-3.8-8.09-5.7-17.48-5.7-28.17c0-11.11,1.9-20.68,5.7-28.7s9.18-14.21,16.14-18.57
			c6.96-4.36,15.09-6.54,24.37-6.54c10.41,0,19.23,2.5,26.48,7.49c7.24,4.99,12.2,11.99,14.88,20.99h28.48
			c-1.69-11.11-5.7-20.71-12.03-28.8c-6.33-8.09-14.35-14.38-24.05-18.88c-9.71-4.5-20.68-6.75-32.92-6.75
			c-14.91,0-28.06,3.31-39.46,9.92c-11.39,6.61-20.22,15.9-26.48,27.85c-6.26,11.96-9.39,25.95-9.39,41.99
			c0,16.18,3.06,30.21,9.18,42.09c6.12,11.89,14.7,21.1,25.74,27.64c11.04,6.54,24.09,9.81,39.14,9.81
			C927.96,1120.05,939.04,1117.8,948.96,1113.3z"/>
		<polygon class="st0" points="1106.74,1092.62 1037.95,1092.62 1037.95,1051.69 1099.56,1051.69 1099.56,1027.84 1037.95,1027.84 
			1037.95,988.17 1106.74,988.17 1106.74,963.28 1010.94,963.28 1010.94,1117.52 1106.74,1117.52 		"/>
		<path class="st0" d="M1202.15,1090.4c-5.28,3.73-12.42,5.59-21.42,5.59c-8.58,0-15.37-1.86-20.36-5.59
			c-4.99-3.73-7.56-8.83-7.7-15.3h-27.01c0.28,9.15,2.71,17.09,7.28,23.84c4.57,6.75,10.94,11.99,19.1,15.72
			c8.16,3.73,17.65,5.59,28.48,5.59c11.39,0,21.34-1.94,29.86-5.8c8.51-3.87,15.09-9.39,19.73-16.56c4.64-7.17,6.96-15.47,6.96-24.9
			c0-11.53-3.24-20.71-9.71-27.54c-6.47-6.82-16.32-11.64-29.54-14.45l-24.27-5.49c-6.47-1.55-11.22-3.9-14.24-7.07
			c-3.03-3.17-4.54-7.49-4.54-12.98c0-6.47,2.5-11.57,7.49-15.3c4.99-3.73,11.64-5.59,19.94-5.59c7.6,0,13.64,1.87,18.15,5.59
			c4.5,3.73,6.89,8.9,7.17,15.51h27.01c-0.28-9.28-2.57-17.3-6.86-24.05c-4.29-6.75-10.27-11.95-17.94-15.61
			c-7.67-3.66-16.71-5.49-27.11-5.49c-10.83,0-20.36,1.94-28.59,5.8c-8.23,3.87-14.66,9.25-19.31,16.14
			c-4.64,6.89-6.96,14.84-6.96,23.84c0,11.96,3.38,21.63,10.13,29.01c6.75,7.39,16.67,12.49,29.75,15.3l24.48,5.49
			c6.33,1.27,10.9,3.48,13.71,6.65c2.81,3.17,4.22,7.42,4.22,12.77C1210.06,1081.72,1207.43,1086.68,1202.15,1090.4z"/>
		<polygon class="st0" points="1422.33,1027.21 1353.96,1027.21 1353.96,963.28 1326.96,963.28 1326.96,1117.52 1353.96,1117.52 
			1353.96,1052.11 1422.33,1052.11 1422.33,1117.52 1449.34,1117.52 1449.34,963.28 1422.33,963.28 		"/>
		<path class="st0" d="M1576.99,1059.49c0,10.97-2.95,19.45-8.86,25.43c-5.91,5.98-14.35,8.97-25.32,8.97
			c-10.83,0-19.2-2.95-25.11-8.86c-5.91-5.91-8.86-14.42-8.86-25.53v-96.22h-27.01v97.9c0,11.96,2.5,22.37,7.49,31.23
			c4.99,8.86,12.06,15.69,21.21,20.47c9.14,4.78,19.9,7.17,32.28,7.17c12.52,0,23.35-2.43,32.49-7.28
			c9.14-4.85,16.21-11.67,21.21-20.47c4.99-8.79,7.49-19.17,7.49-31.12v-97.9h-27.01V1059.49z"/>
		<path class="st0" d="M1712.66,1086.08l-49.8-122.8h-26.16v154.24h26.16v-55.28c0-9.71-0.11-18.15-0.32-25.32
			s-0.67-13.08-1.37-17.72l39.03,98.33h24.9l39.25-98.54c-0.42,2.82-0.71,5.63-0.84,8.44c-0.14,2.82-0.28,6.05-0.42,9.71
			c-0.14,3.66-0.21,8.12-0.21,13.4c0,5.28,0,11.78,0,19.52v47.48h26.16V963.28h-26.59L1712.66,1086.08z"/>
		<path class="st0" d="M1863.16,963.28l-55.7,154.24h27.85l12.66-35.66h57.6l12.45,35.66h28.49l-55.7-154.24H1863.16z
			 M1855.78,1059.07l17.72-49.8c0.7-2.11,1.37-4.25,2-6.44c0.63-2.18,1.09-3.97,1.37-5.38c0.14,1.55,0.56,3.38,1.27,5.49
			c0.7,2.11,1.33,4.22,1.9,6.33l17.72,49.8H1855.78z"/>
		<rect x="1964.8" y="963.28" class="st0" width="27.01" height="154.24"/>
		<polygon class="st0" points="2124.61,1072.79 2052.24,963.28 2025.44,963.28 2025.44,1117.52 2052.03,1117.52 2052.03,1008.16 
			2124.61,1117.52 2151.2,1117.52 2151.2,963.28 2124.61,963.28 		"/>
		<polygon class="st0" points="2184.96,1117.52 2280.75,1117.52 2280.75,1092.62 2211.97,1092.62 2211.97,1051.69 2273.58,1051.69 
			2273.58,1027.84 2211.97,1027.84 2211.97,988.17 2280.75,988.17 2280.75,963.28 2184.96,963.28 		"/>
		<path class="st0" d="M2401.38,1045.46c-6.47-6.82-16.32-11.64-29.54-14.45l-24.27-5.49c-6.47-1.55-11.22-3.9-14.24-7.07
			c-3.03-3.17-4.54-7.49-4.54-12.98c0-6.47,2.5-11.57,7.49-15.3c4.99-3.73,11.64-5.59,19.94-5.59c7.6,0,13.64,1.87,18.15,5.59
			c4.5,3.73,6.89,8.9,7.17,15.51h27.01c-0.28-9.28-2.57-17.3-6.86-24.05c-4.29-6.75-10.27-11.95-17.94-15.61
			c-7.67-3.66-16.71-5.49-27.11-5.49c-10.83,0-20.36,1.94-28.59,5.8c-8.23,3.87-14.66,9.25-19.31,16.14
			c-4.64,6.89-6.96,14.84-6.96,23.84c0,11.96,3.38,21.63,10.13,29.01c6.75,7.39,16.67,12.49,29.75,15.3l24.48,5.49
			c6.33,1.27,10.9,3.48,13.71,6.65c2.81,3.17,4.22,7.42,4.22,12.77c0,6.19-2.64,11.15-7.91,14.88c-5.28,3.73-12.42,5.59-21.42,5.59
			c-8.58,0-15.37-1.86-20.36-5.59c-4.99-3.73-7.56-8.83-7.7-15.3h-27.01c0.28,9.15,2.71,17.09,7.28,23.84
			c4.57,6.75,10.94,11.99,19.1,15.72c8.16,3.73,17.65,5.59,28.48,5.59c11.39,0,21.34-1.94,29.86-5.8
			c8.51-3.87,15.09-9.39,19.73-16.56c4.64-7.17,6.96-15.47,6.96-24.9C2411.09,1061.46,2407.85,1052.29,2401.38,1045.46z"/>
	</g>
	<g>
		<path class="st0" d="M819.18,1314.07c6.05-11.46,9.07-24.86,9.07-40.2h-25.11c0,10.08-1.38,18.82-4.12,26.25l-31.11-34.84
			c9.02-6.06,15.7-12.09,20.04-18.1c4.92-6.82,7.38-14.31,7.38-22.47c0-6.75-1.62-12.69-4.85-17.83c-3.24-5.13-7.7-9.11-13.4-11.92
			c-5.7-2.81-12.34-4.22-19.94-4.22c-7.6,0-14.35,1.51-20.26,4.54c-5.91,3.03-10.59,7.17-14.03,12.45
			c-3.45,5.27-5.17,11.36-5.17,18.25c0,6.05,1.4,11.85,4.22,17.41c2.56,5.05,6.76,10.95,12.57,17.69
			c-6.43,3.15-12.03,6.57-16.79,10.27c-6.33,4.93-11.11,10.34-14.35,16.25c-3.24,5.91-4.85,12.24-4.85,18.99
			c0,8.72,2.35,16.32,7.07,22.79c4.71,6.47,11.29,11.57,19.73,15.3c8.44,3.73,18.21,5.59,29.33,5.59c14.91,0,27.88-3.17,38.93-9.5
			c2.62-1.5,5.09-3.15,7.43-4.94l10.4,11.69h29.96l-25.2-28.23C817.21,1317.61,818.23,1315.88,819.18,1314.07z M746.18,1215.12
			c2.67-2.6,6.33-3.9,10.97-3.9c4.5,0,7.98,1.27,10.44,3.8c2.46,2.53,3.69,6.05,3.69,10.55c0,5.77-1.58,10.97-4.75,15.61
			c-2.57,3.77-6.29,7.11-11.12,10.04c-2.95-3.48-5.37-6.54-7.23-9.19c-2.18-3.09-3.73-5.91-4.64-8.44
			c-0.92-2.53-1.37-5.13-1.37-7.81C742.17,1221.27,743.5,1217.72,746.18,1215.12z M757.57,1328.11c-9.85,0-17.62-2.11-23.32-6.33
			s-8.55-10.13-8.55-17.72c0-4.5,0.91-8.58,2.74-12.24c1.83-3.66,4.67-7.1,8.55-10.34c2.69-2.25,5.96-4.43,9.77-6.55l39.24,44.09
			C778.61,1325.07,769.14,1328.11,757.57,1328.11z"/>
		<path class="st0" d="M987.77,1261.01l-24.27-5.49c-6.47-1.55-11.22-3.9-14.24-7.07c-3.03-3.17-4.54-7.49-4.54-12.98
			c0-6.47,2.5-11.57,7.49-15.3c4.99-3.73,11.64-5.59,19.94-5.59c7.6,0,13.64,1.87,18.15,5.59c4.5,3.73,6.89,8.9,7.17,15.51h27.01
			c-0.28-9.28-2.57-17.3-6.86-24.05c-4.29-6.75-10.27-11.96-17.94-15.61c-7.67-3.66-16.71-5.49-27.11-5.49
			c-10.83,0-20.36,1.94-28.59,5.8c-8.23,3.87-14.66,9.25-19.31,16.14c-4.64,6.89-6.96,14.84-6.96,23.84
			c0,11.96,3.38,21.63,10.13,29.01s16.67,12.49,29.75,15.3l24.48,5.49c6.33,1.27,10.9,3.48,13.71,6.65
			c2.81,3.17,4.22,7.42,4.22,12.77c0,6.19-2.64,11.15-7.91,14.88c-5.28,3.73-12.42,5.59-21.42,5.59c-8.58,0-15.37-1.86-20.36-5.59
			c-4.99-3.73-7.56-8.83-7.7-15.3h-27.01c0.28,9.15,2.71,17.09,7.28,23.84c4.57,6.75,10.94,11.99,19.1,15.72
			c8.16,3.73,17.65,5.59,28.48,5.59c11.39,0,21.34-1.94,29.86-5.8c8.51-3.87,15.09-9.39,19.73-16.56c4.64-7.17,6.96-15.47,6.96-24.9
			c0-11.53-3.24-20.71-9.71-27.54C1010.84,1268.64,1000.99,1263.82,987.77,1261.01z"/>
		<path class="st0" d="M1157.58,1200.66c-11.18-6.75-24.16-10.13-38.93-10.13c-14.77,0-27.75,3.38-38.93,10.13
			c-11.18,6.75-19.94,16.14-26.27,28.17s-9.5,25.92-9.5,41.67c0,15.61,3.13,29.4,9.39,41.36c6.26,11.96,15.01,21.31,26.27,28.06
			c11.25,6.75,24.19,10.13,38.82,10.13c14.77,0,27.78-3.38,39.04-10.13c11.25-6.75,20.04-16.14,26.38-28.17
			c6.33-12.03,9.5-25.85,9.5-41.46c0-15.75-3.17-29.61-9.5-41.57C1177.52,1216.77,1168.76,1207.41,1157.58,1200.66z
			 M1159.37,1298.67c-3.8,8.09-9.15,14.35-16.04,18.78c-6.89,4.43-15.12,6.65-24.69,6.65c-9.43,0-17.62-2.18-24.58-6.54
			c-6.96-4.36-12.34-10.58-16.14-18.67c-3.8-8.09-5.7-17.62-5.7-28.59c0-10.97,1.9-20.47,5.7-28.49s9.18-14.24,16.14-18.67
			c6.96-4.43,15.16-6.65,24.58-6.65c9.56,0,17.79,2.22,24.69,6.65c6.89,4.43,12.24,10.66,16.04,18.67c3.8,8.02,5.7,17.51,5.7,28.49
			C1165.07,1281.12,1163.17,1290.58,1159.37,1298.67z"/>
		<path class="st0" d="M1312.64,1316.5c-7.53,5.06-16.56,7.6-27.11,7.6c-9.28,0-17.41-2.22-24.37-6.65s-12.34-10.69-16.14-18.78
			c-3.8-8.09-5.7-17.48-5.7-28.17c0-11.11,1.9-20.68,5.7-28.7s9.18-14.21,16.14-18.57c6.96-4.36,15.09-6.54,24.37-6.54
			c10.41,0,19.23,2.5,26.48,7.49c7.24,4.99,12.2,11.99,14.88,20.99h28.48c-1.69-11.11-5.7-20.71-12.03-28.8
			c-6.33-8.09-14.35-14.38-24.05-18.88c-9.71-4.5-20.68-6.75-32.92-6.75c-14.91,0-28.06,3.31-39.46,9.92
			c-11.39,6.61-20.22,15.9-26.48,27.85c-6.26,11.96-9.39,25.95-9.39,41.99c0,16.18,3.06,30.21,9.18,42.09
			c6.12,11.89,14.7,21.1,25.74,27.64c11.04,6.54,24.09,9.81,39.14,9.81c12.24,0,23.32-2.25,33.23-6.75
			c9.92-4.5,18.15-10.83,24.69-18.99c6.54-8.16,10.79-17.58,12.76-28.27h-28.06C1325.2,1304.62,1320.17,1311.44,1312.64,1316.5z"/>
		<rect x="1380.2" y="1193.28" class="st0" width="27.01" height="154.24"/>
		<path class="st0" d="M1481.21,1193.28l-55.7,154.24h27.85l12.66-35.66h57.6l12.45,35.66h28.49l-55.7-154.24H1481.21z
			 M1473.82,1289.07l17.72-49.8c0.7-2.11,1.37-4.25,2-6.44c0.63-2.18,1.09-3.97,1.37-5.38c0.14,1.55,0.56,3.38,1.27,5.49
			c0.7,2.11,1.33,4.22,1.9,6.33l17.72,49.8H1473.82z"/>
		<polygon class="st0" points="1609.85,1193.28 1582.85,1193.28 1582.85,1347.52 1587.49,1347.52 1609.85,1347.52 1674.21,1347.52 
			1674.21,1322.62 1609.85,1322.62 		"/>
		<polygon class="st0" points="1693.39,1347.52 1789.18,1347.52 1789.18,1322.62 1720.39,1322.62 1720.39,1281.69 1782.01,1281.69 
			1782.01,1257.84 1720.39,1257.84 1720.39,1218.17 1789.18,1218.17 1789.18,1193.28 1693.39,1193.28 		"/>
		<path class="st0" d="M1880.27,1261.01l-24.27-5.49c-6.47-1.55-11.22-3.9-14.24-7.07c-3.03-3.17-4.54-7.49-4.54-12.98
			c0-6.47,2.5-11.57,7.49-15.3c4.99-3.73,11.64-5.59,19.94-5.59c7.6,0,13.64,1.87,18.15,5.59c4.5,3.73,6.89,8.9,7.17,15.51h27.01
			c-0.28-9.28-2.57-17.3-6.86-24.05c-4.29-6.75-10.27-11.96-17.94-15.61c-7.67-3.66-16.71-5.49-27.11-5.49
			c-10.83,0-20.36,1.94-28.59,5.8c-8.23,3.87-14.66,9.25-19.31,16.14c-4.64,6.89-6.96,14.84-6.96,23.84
			c0,11.96,3.38,21.63,10.13,29.01s16.67,12.49,29.75,15.3l24.48,5.49c6.33,1.27,10.9,3.48,13.71,6.65
			c2.81,3.17,4.22,7.42,4.22,12.77c0,6.19-2.64,11.15-7.91,14.88c-5.28,3.73-12.42,5.59-21.42,5.59c-8.58,0-15.37-1.86-20.36-5.59
			c-4.99-3.73-7.56-8.83-7.7-15.3h-27.01c0.28,9.15,2.71,17.09,7.28,23.84c4.57,6.75,10.94,11.99,19.1,15.72
			c8.16,3.73,17.65,5.59,28.48,5.59c11.39,0,21.34-1.94,29.86-5.8c8.51-3.87,15.09-9.39,19.73-16.56c4.64-7.17,6.96-15.47,6.96-24.9
			c0-11.53-3.24-20.71-9.71-27.54C1903.34,1268.64,1893.49,1263.82,1880.27,1261.01z"/>
	</g>
</g>
<g>
	<path class="st0" d="M1295.86,207.45c-5.58-0.35-11.13-0.52-16.64-0.53c-76.81-0.09-146.4,32.63-207.03,97.43
		c-55.12,58.92-73.65,106.33-73.48,163.59c0.08,30.63,5.52,64.07,13.57,103.6c15.13,74.33,59.25,146.08,121.06,196.89
		c47.32,38.89,100.09,58.75,155.7,59.12c28.82,0.19,58.4-4.85,88.39-15.2c96.81-33.42,189.42-129.08,225.2-232.64
		c11.33-32.77,16.83-64.67,16.71-95.02c-0.29-74.18-34.17-139.19-98.92-185.68C1441.88,242.59,1366.33,211.79,1295.86,207.45"/>
	<g>
		<path class="st1" d="M1185.33,518.23h-21.29l-0.02,0.6c-0.17,4.14-2.63,40.35-35.03,40.35c-28.96,0-43.65-25.95-43.68-77.14
			c0.03-51.19,14.72-77.14,43.68-77.14c32.96,0,34.96,38.7,35.03,40.34l0.02,0.6h21.29c1.96,0,3.88-0.81,5.25-2.21
			c1.31-1.35,1.99-3.09,1.9-4.91c-0.44-10.04-5.6-60.14-63.79-60.14c-47.02,0-71.87,35.74-71.87,103.35
			c0,67.75,24.85,103.56,71.87,103.56c56.01,0,62.97-45.76,63.78-59.78c0.14-1.93-0.52-3.79-1.88-5.22
			C1189.23,519.05,1187.3,518.23,1185.33,518.23"/>
		<path class="st1" d="M1516.1,469.74L1516.1,469.74l-18.33-7.99c-17.64-7.75-23.89-15.28-23.89-28.81
			c0-17.63,12.91-29.48,32.1-29.48c11.35,0,20.66,2.32,32.03,13.91l0.62,0.63l9.79-8.95c5.66-5.26,4.03-10,1.66-13.04
			c-9.55-11.26-24.87-17.44-43.17-17.44c-35.28,0-60.89,23.02-60.89,54.73c0,31.18,19.65,44.22,40.88,53.66l18.71,8.35
			c18.8,8.43,27.76,15.62,27.76,33.7c0,24.68-22.29,31.26-35.47,31.26c-11.33,0-23.95-2.43-39.45-19.99l-0.61-0.69l-10.19,8.95
			c-5.25,4.62-5.29,8.57-0.18,15.14c14.03,18.04,34.6,21.83,49.39,21.83c31.98,0,64.36-19.64,64.36-57.18
			C1561.23,495.82,1543.19,481.4,1516.1,469.74"/>
		<path class="st1" d="M1335.32,437.78c0-31.94-25.88-59.01-57.84-59.01c-15.03,0-28.72,5.73-39,15.13v-10.98h-19.24
			c-5.8,0-8.01,3.78-8.01,8.13v186.4c0,5.25,3.2,8.05,7.92,8.05h19.25V438.91c0-19.26,15.62-34.87,34.88-34.87
			c19.25,0,34.87,15.61,34.87,34.87v146.62h19.12c5.3,0,8.05-2.95,8.05-8.02V437.78z"/>
		<path class="st1" d="M1445.67,392.71c1.01-1.25,1.63-2.81,1.63-4.53c0-3.21-2.09-5.91-4.97-6.88c-5.57-1.86-11.5-2.89-17.66-2.89
			c-15.03,0-28.72,5.73-39,15.13v-10.98h-19.24c-5.8,0-8.02,3.78-8.02,8.13v186.4c0,5.25,3.21,8.05,7.93,8.05h19.24V438.55
			c0-19.26,15.62-34.87,34.88-34.87c5.05,0,9.83,1.09,14.15,3.02l11.12-13.95L1445.67,392.71z"/>
	</g>
</g>
</svg>
