<?xml version="1.0" encoding="utf-8"?>
<!-- Generator: $$$/GeneralStr/196=Adobe Illustrator 27.6.0, SVG Export Plug-In . SVG Version: 6.00 Build 0)  -->
<svg version="1.1" id="Calque_1" xmlns="http://www.w3.org/2000/svg" xmlns:xlink="http://www.w3.org/1999/xlink" x="0px" y="0px"
	 viewBox="0 0 2281.23 1034.47" style="enable-background:new 0 0 2281.23 1034.47;" xml:space="preserve">
<style type="text/css">
	.st0{fill:#00284B;}
	.st1{fill:#FFFFFF;}
</style>
<g>
	<path class="st0" d="M504.07,207.45c-5.58-0.35-11.13-0.52-16.64-0.53c-76.81-0.09-146.4,32.63-207.03,97.43
		c-55.12,58.92-73.65,106.33-73.48,163.59c0.08,30.63,5.52,64.07,13.57,103.6c15.13,74.33,59.25,146.08,121.06,196.89
		c47.32,38.89,100.09,58.75,155.7,59.12c28.82,0.19,58.4-4.85,88.39-15.2c96.81-33.42,189.42-129.08,225.2-232.64
		c11.33-32.77,16.83-64.67,16.71-95.02c-0.29-74.18-34.17-139.19-98.92-185.68C650.09,242.59,574.54,211.79,504.07,207.45"/>
	<g>
		<path class="st1" d="M393.54,518.23h-21.29l-0.02,0.6c-0.17,4.14-2.63,40.35-35.03,40.35c-28.96,0-43.65-25.95-43.68-77.14
			c0.03-51.19,14.72-77.14,43.68-77.14c32.96,0,34.96,38.7,35.03,40.34l0.02,0.6h21.29c1.96,0,3.88-0.81,5.25-2.21
			c1.31-1.35,1.99-3.09,1.9-4.91c-0.44-10.04-5.6-60.14-63.79-60.14c-47.02,0-71.87,35.74-71.87,103.35
			c0,67.75,24.85,103.56,71.87,103.56c56.01,0,62.97-45.76,63.78-59.78c0.14-1.93-0.52-3.79-1.88-5.22
			C397.43,519.05,395.5,518.23,393.54,518.23"/>
		<path class="st1" d="M724.31,469.74L724.31,469.74l-18.33-7.99c-17.64-7.75-23.89-15.28-23.89-28.81
			c0-17.63,12.91-29.48,32.1-29.48c11.35,0,20.66,2.32,32.03,13.91l0.62,0.63l9.79-8.95c5.66-5.26,4.03-10,1.66-13.04
			c-9.55-11.26-24.87-17.44-43.17-17.44c-35.28,0-60.89,23.02-60.89,54.73c0,31.18,19.65,44.22,40.88,53.66l18.71,8.35
			c18.8,8.43,27.76,15.62,27.76,33.7c0,24.68-22.29,31.26-35.47,31.26c-11.33,0-23.95-2.43-39.45-19.99l-0.61-0.69l-10.19,8.95
			c-5.25,4.62-5.29,8.57-0.18,15.14c14.03,18.04,34.6,21.83,49.39,21.83c31.98,0,64.36-19.64,64.36-57.18
			C769.44,495.82,751.4,481.4,724.31,469.74"/>
		<path class="st1" d="M543.53,437.78c0-31.94-25.88-59.01-57.84-59.01c-15.03,0-28.72,5.73-39,15.13v-10.98h-19.24
			c-5.8,0-8.01,3.78-8.01,8.13v186.4c0,5.25,3.2,8.05,7.92,8.05h19.25V438.91c0-19.26,15.62-34.87,34.88-34.87
			c19.25,0,34.87,15.61,34.87,34.87v146.62h19.12c5.3,0,8.05-2.95,8.05-8.02V437.78z"/>
		<path class="st1" d="M653.88,392.71c1.01-1.25,1.63-2.81,1.63-4.53c0-3.21-2.09-5.91-4.97-6.88c-5.57-1.86-11.5-2.89-17.66-2.89
			c-15.03,0-28.72,5.73-39,15.13v-10.98h-19.24c-5.8,0-8.02,3.78-8.02,8.13v186.4c0,5.25,3.21,8.05,7.93,8.05h19.24V438.55
			c0-19.26,15.62-34.87,34.88-34.87c5.05,0,9.83,1.09,14.15,3.02l11.12-13.95L653.88,392.71z"/>
	</g>
</g>
<g>
	<polygon class="st0" points="963.59,429.86 1008.74,429.86 1008.74,559.2 1035.75,559.2 1035.75,429.86 1080.9,429.86 
		1080.9,404.96 963.59,404.96 	"/>
	<polygon class="st0" points="1099.3,559.2 1195.1,559.2 1195.1,534.31 1126.31,534.31 1126.31,493.37 1187.92,493.37 
		1187.92,469.53 1126.31,469.53 1126.31,429.86 1195.1,429.86 1195.1,404.96 1099.3,404.96 	"/>
	<path class="st0" d="M1331.55,479.34c4.71-7.24,7.07-16,7.07-26.27c0-15.19-4.89-27.01-14.67-35.45
		c-9.78-8.44-23.39-12.66-40.83-12.66h-58.87V559.2h27.01v-57.6h33.13l26.16,57.6h29.54l-29.33-63.3
		C1319.91,492.11,1326.83,486.59,1331.55,479.34z M1303.17,471.22c-4.78,4.36-11.47,6.54-20.04,6.54h-31.86v-48.74h31.86
		c8.58,0,15.26,2.08,20.04,6.22c4.78,4.15,7.17,10.09,7.17,17.83C1310.34,460.81,1307.95,466.86,1303.17,471.22z"/>
	<path class="st0" d="M1472.94,479.34c4.71-7.24,7.07-16,7.07-26.27c0-15.19-4.89-27.01-14.67-35.45
		c-9.78-8.44-23.39-12.66-40.83-12.66h-58.87V559.2h27.01v-57.6h33.13l26.16,57.6h29.54l-29.33-63.3
		C1461.3,492.11,1468.22,486.59,1472.94,479.34z M1444.56,471.22c-4.78,4.36-11.47,6.54-20.04,6.54h-31.86v-48.74h31.86
		c8.58,0,15.26,2.08,20.04,6.22c4.78,4.15,7.17,10.09,7.17,17.83C1451.73,460.81,1449.34,466.86,1444.56,471.22z"/>
	<polygon class="st0" points="1507.04,559.2 1602.83,559.2 1602.83,534.31 1534.04,534.31 1534.04,493.37 1595.66,493.37 
		1595.66,469.53 1534.04,469.53 1534.04,429.86 1602.83,429.86 1602.83,404.96 1507.04,404.96 	"/>
	<g>
		<path class="st0" d="M1081.86,755.76c6.05-11.46,9.07-24.86,9.07-40.2h-25.11c0,10.08-1.38,18.82-4.12,26.25l-31.11-34.84
			c9.02-6.06,15.7-12.09,20.04-18.1c4.92-6.82,7.38-14.31,7.38-22.47c0-6.75-1.62-12.69-4.85-17.83c-3.24-5.13-7.7-9.11-13.4-11.92
			c-5.7-2.81-12.34-4.22-19.94-4.22c-7.6,0-14.35,1.51-20.26,4.54c-5.91,3.03-10.59,7.17-14.03,12.45
			c-3.45,5.27-5.17,11.36-5.17,18.25c0,6.05,1.4,11.85,4.22,17.41c2.56,5.05,6.76,10.95,12.57,17.69
			c-6.43,3.15-12.03,6.57-16.79,10.27c-6.33,4.93-11.11,10.34-14.35,16.25c-3.24,5.91-4.85,12.24-4.85,18.99
			c0,8.72,2.35,16.32,7.07,22.79c4.71,6.47,11.29,11.57,19.73,15.3c8.44,3.73,18.21,5.59,29.33,5.59c14.91,0,27.88-3.17,38.93-9.5
			c2.62-1.5,5.09-3.15,7.43-4.94l10.4,11.69h29.96l-25.2-28.23C1079.89,759.29,1080.91,757.56,1081.86,755.76z M1008.86,656.8
			c2.67-2.6,6.33-3.9,10.97-3.9c4.5,0,7.98,1.27,10.44,3.8c2.46,2.53,3.69,6.05,3.69,10.55c0,5.77-1.58,10.97-4.75,15.61
			c-2.57,3.77-6.29,7.11-11.12,10.04c-2.95-3.48-5.37-6.54-7.23-9.2c-2.18-3.09-3.73-5.91-4.64-8.44c-0.92-2.53-1.37-5.13-1.37-7.81
			C1004.85,662.95,1006.18,659.4,1008.86,656.8z M1020.25,769.79c-9.85,0-17.62-2.11-23.32-6.33c-5.7-4.22-8.55-10.13-8.55-17.72
			c0-4.5,0.91-8.58,2.74-12.24c1.83-3.66,4.67-7.1,8.55-10.34c2.69-2.25,5.96-4.43,9.77-6.55l39.24,44.09
			C1041.29,766.75,1031.82,769.79,1020.25,769.79z"/>
		<path class="st0" d="M1283.36,731.17c0,10.97-2.95,19.45-8.86,25.43c-5.91,5.98-14.35,8.97-25.32,8.97
			c-10.83,0-19.2-2.95-25.11-8.86c-5.91-5.91-8.86-14.42-8.86-25.53v-96.22h-27.01v97.9c0,11.96,2.5,22.37,7.49,31.23
			c4.99,8.86,12.06,15.69,21.21,20.47c9.14,4.78,19.9,7.17,32.28,7.17c12.52,0,23.35-2.43,32.49-7.28
			c9.14-4.85,16.21-11.67,21.21-20.47c4.99-8.79,7.49-19.17,7.49-31.12v-97.9h-27.01V731.17z"/>
		<polygon class="st0" points="1442.24,744.47 1369.87,634.96 1343.07,634.96 1343.07,789.2 1369.66,789.2 1369.66,679.85 
			1442.24,789.2 1468.83,789.2 1468.83,634.96 1442.24,634.96 		"/>
		<rect x="1502.57" y="634.96" class="st0" width="27.01" height="154.24"/>
		<path class="st0" d="M1628.01,723.79c-1.41,3.94-2.95,8.37-4.64,13.29c-1.69,4.93-3.45,10.76-5.27,17.51
			c-1.69-6.19-3.31-11.74-4.85-16.67c-1.55-4.92-3.17-9.63-4.85-14.14l-33.76-88.83h-28.7l58.24,154.24h27.85l57.39-154.24h-28.06
			L1628.01,723.79z"/>
		<polygon class="st0" points="1705.76,789.2 1801.55,789.2 1801.55,764.3 1732.77,764.3 1732.77,723.37 1794.38,723.37 
			1794.38,699.52 1732.77,699.52 1732.77,659.86 1801.55,659.86 1801.55,634.96 1705.76,634.96 		"/>
		<path class="st0" d="M1938.01,709.34c4.71-7.24,7.07-16,7.07-26.27c0-15.19-4.89-27.01-14.67-35.45
			c-9.78-8.44-23.39-12.66-40.83-12.66h-58.87V789.2h27.01v-57.6h33.13l26.16,57.6h29.54l-29.33-63.3
			C1926.37,722.1,1933.29,716.58,1938.01,709.34z M1909.63,701.21c-4.78,4.36-11.47,6.54-20.04,6.54h-31.86v-48.74h31.86
			c8.58,0,15.26,2.08,20.04,6.22c4.78,4.15,7.17,10.09,7.17,17.83C1916.8,690.8,1914.41,696.85,1909.63,701.21z"/>
		<path class="st0" d="M2064.61,717.14c-6.47-6.82-16.32-11.64-29.54-14.45l-24.27-5.49c-6.47-1.55-11.22-3.9-14.24-7.07
			c-3.03-3.17-4.54-7.49-4.54-12.98c0-6.47,2.5-11.57,7.49-15.3c4.99-3.73,11.64-5.59,19.94-5.59c7.6,0,13.64,1.87,18.15,5.59
			c4.5,3.73,6.89,8.9,7.17,15.51h27.01c-0.28-9.28-2.57-17.3-6.86-24.05c-4.29-6.75-10.27-11.95-17.94-15.61
			c-7.67-3.66-16.71-5.49-27.11-5.49c-10.83,0-20.36,1.94-28.59,5.8c-8.23,3.87-14.66,9.25-19.31,16.14
			c-4.64,6.89-6.96,14.84-6.96,23.84c0,11.96,3.38,21.63,10.13,29.01c6.75,7.39,16.67,12.49,29.75,15.3l24.48,5.49
			c6.33,1.27,10.9,3.48,13.71,6.65c2.81,3.17,4.22,7.42,4.22,12.77c0,6.19-2.64,11.15-7.91,14.88c-5.28,3.73-12.42,5.59-21.42,5.59
			c-8.58,0-15.37-1.86-20.36-5.59c-4.99-3.73-7.56-8.83-7.7-15.3h-27.01c0.28,9.15,2.71,17.09,7.28,23.84
			c4.57,6.75,10.94,11.99,19.1,15.72c8.16,3.73,17.65,5.59,28.48,5.59c11.39,0,21.34-1.94,29.86-5.8
			c8.51-3.87,15.09-9.39,19.73-16.56c4.64-7.17,6.96-15.47,6.96-24.9C2074.31,733.15,2071.07,723.97,2064.61,717.14z"/>
	</g>
</g>
</svg>
