<?xml version="1.0" encoding="utf-8"?>
<!-- Generator: $$$/GeneralStr/196=Adobe Illustrator 27.6.0, SVG Export Plug-In . SVG Version: 6.00 Build 0)  -->
<svg version="1.1" id="Calque_1" xmlns="http://www.w3.org/2000/svg" xmlns:xlink="http://www.w3.org/1999/xlink" x="0px" y="0px"
	 viewBox="0 0 1379.63 1324.44" style="enable-background:new 0 0 1379.63 1324.44;" xml:space="preserve">
<style type="text/css">
	.st0{fill:#FFFFFF;}
	.st1{fill:#00284B;}
</style>
<g>
	<path class="st0" d="M294.95,1040.3c6.66-2.82,11.86-6.78,15.57-11.93c4.5-6.26,6.75-14.03,6.75-23.32
		c0-12.94-4.36-23.14-13.08-30.6c-8.72-7.45-20.75-11.18-36.08-11.18h-34.18h-9.07h-17.94v154.24h17.94h9.07h35.45
		c10.55,0,19.59-1.65,27.11-4.96c7.52-3.3,13.26-8.09,17.2-14.35c3.94-6.26,5.91-13.75,5.91-22.47c0-9.84-2.46-17.86-7.38-24.05
		C308.08,1046.51,302.32,1042.73,294.95,1040.3z M265.79,987.12c7.73,0,13.64,1.76,17.72,5.27c4.08,3.52,6.12,8.58,6.12,15.19
		c0,6.89-1.97,12.21-5.91,15.93c-3.94,3.73-9.64,5.59-17.09,5.59h-32.71v-41.99H265.79z M285.83,1088.19
		c-4.08,3.66-9.99,5.49-17.72,5.49h-34.18v-41.78h34.18c7.6,0,13.47,1.79,17.62,5.38c4.15,3.59,6.22,8.62,6.22,15.09
		C291.95,1079.26,289.91,1084.53,285.83,1088.19z"/>
	<rect x="346.55" y="963.28" class="st0" width="27.01" height="154.24"/>
	<path class="st0" d="M512.84,970.66c-11.18-6.75-24.16-10.13-38.93-10.13c-14.77,0-27.75,3.38-38.93,10.13
		c-11.18,6.75-19.94,16.14-26.27,28.17s-9.5,25.92-9.5,41.67c0,15.61,3.13,29.4,9.39,41.36c6.26,11.96,15.01,21.31,26.27,28.06
		c11.25,6.75,24.19,10.13,38.82,10.13c14.77,0,27.78-3.38,39.04-10.13c11.25-6.75,20.04-16.14,26.38-28.17
		c6.33-12.03,9.5-25.85,9.5-41.46c0-15.75-3.17-29.61-9.5-41.57C532.78,986.77,524.02,977.41,512.84,970.66z M514.64,1068.67
		c-3.8,8.09-9.15,14.35-16.04,18.78c-6.89,4.43-15.12,6.65-24.69,6.65c-9.43,0-17.62-2.18-24.58-6.54
		c-6.96-4.36-12.34-10.58-16.14-18.67c-3.8-8.09-5.7-17.62-5.7-28.59s1.9-20.47,5.7-28.48s9.18-14.24,16.14-18.67
		c6.96-4.43,15.16-6.65,24.58-6.65c9.56,0,17.79,2.22,24.69,6.65c6.89,4.43,12.24,10.66,16.04,18.67c3.8,8.02,5.7,17.51,5.7,28.48
		C520.33,1051.12,518.43,1060.58,514.64,1068.67z"/>
	<polygon class="st0" points="601.06,963.28 574.05,963.28 574.05,1117.52 578.69,1117.52 601.06,1117.52 665.42,1117.52 
		665.42,1092.62 601.06,1092.62 	"/>
	<path class="st0" d="M788.22,970.66c-11.18-6.75-24.16-10.13-38.93-10.13c-14.77,0-27.75,3.38-38.93,10.13
		c-11.18,6.75-19.94,16.14-26.27,28.17c-6.33,12.03-9.5,25.92-9.5,41.67c0,15.61,3.13,29.4,9.39,41.36
		c6.26,11.96,15.01,21.31,26.27,28.06c11.25,6.75,24.19,10.13,38.82,10.13c14.77,0,27.78-3.38,39.04-10.13
		c11.25-6.75,20.04-16.14,26.38-28.17c6.33-12.03,9.5-25.85,9.5-41.46c0-15.75-3.17-29.61-9.5-41.57
		C808.16,986.77,799.4,977.41,788.22,970.66z M790.01,1068.67c-3.8,8.09-9.15,14.35-16.04,18.78c-6.89,4.43-15.12,6.65-24.69,6.65
		c-9.43,0-17.62-2.18-24.58-6.54c-6.96-4.36-12.34-10.58-16.14-18.67c-3.8-8.09-5.7-17.62-5.7-28.59s1.9-20.47,5.7-28.48
		s9.18-14.24,16.14-18.67c6.96-4.43,15.16-6.65,24.58-6.65c9.56,0,17.79,2.22,24.69,6.65c6.89,4.43,12.24,10.66,16.04,18.67
		c3.8,8.02,5.7,17.51,5.7,28.48C795.71,1051.12,793.81,1060.58,790.01,1068.67z"/>
	<path class="st0" d="M914.08,1054.64h46.63v0.63c0,6.05-1.02,11.54-3.06,16.46c-2.04,4.93-4.89,9.11-8.55,12.55
		c-3.66,3.45-8.12,6.05-13.4,7.81c-5.27,1.76-11.36,2.64-18.25,2.64c-9.43,0-17.76-2.04-25-6.12c-7.25-4.08-12.91-10.09-16.99-18.04
		c-4.08-7.95-6.12-17.62-6.12-29.01c0-11.25,1.9-20.99,5.7-29.22s9.28-14.66,16.46-19.31c7.17-4.64,15.83-6.96,25.95-6.96
		c9.28,0,17.51,2.15,24.69,6.44c7.17,4.29,11.96,11.01,14.35,20.15h28.48c-1.41-10.55-5.17-19.69-11.29-27.43
		c-6.12-7.73-13.96-13.75-23.53-18.04c-9.57-4.29-20.26-6.44-32.07-6.44c-15.33,0-28.8,3.45-40.41,10.34
		c-11.61,6.89-20.61,16.35-27.01,28.38c-6.4,12.03-9.6,25.85-9.6,41.46c0,15.9,3.13,29.75,9.39,41.57
		c6.26,11.82,14.91,21,25.95,27.54c11.04,6.54,23.74,9.81,38.09,9.81c7.73,0,14.91-1.02,21.52-3.06c6.61-2.04,12.34-4.89,17.2-8.55
		c3.35-2.52,6.06-5.29,8.17-8.28l1.64,17.57h22.79v-86.72h-71.74V1054.64z"/>
	<rect x="1016.28" y="963.28" class="st0" width="27.01" height="154.24"/>
	<polygon class="st0" points="1172.72,988.17 1172.72,963.28 1076.92,963.28 1076.92,1117.52 1172.72,1117.52 1172.72,1092.62 
		1103.93,1092.62 1103.93,1051.69 1165.54,1051.69 1165.54,1027.84 1103.93,1027.84 1103.93,988.17 	"/>
</g>
<g>
	<path class="st0" d="M676.68,207.45c-5.58-0.35-11.13-0.52-16.64-0.53c-76.81-0.09-146.4,32.63-207.03,97.43
		c-55.12,58.92-73.65,106.33-73.48,163.59c0.08,30.63,5.52,64.07,13.57,103.6c15.13,74.33,59.25,146.08,121.06,196.89
		c47.32,38.89,100.09,58.75,155.7,59.12c28.82,0.19,58.4-4.85,88.39-15.2c96.81-33.42,189.42-129.08,225.2-232.64
		c11.33-32.77,16.83-64.67,16.71-95.02c-0.29-74.18-34.17-139.19-98.92-185.68C822.69,242.59,747.14,211.79,676.68,207.45"/>
	<g>
		<path class="st1" d="M566.15,518.23h-21.29l-0.02,0.6c-0.17,4.14-2.63,40.35-35.03,40.35c-28.96,0-43.65-25.95-43.68-77.14
			c0.03-51.19,14.72-77.14,43.68-77.14c32.96,0,34.96,38.7,35.03,40.34l0.02,0.6h21.29c1.96,0,3.88-0.81,5.25-2.21
			c1.31-1.35,1.99-3.09,1.9-4.91c-0.44-10.04-5.6-60.14-63.79-60.14c-47.02,0-71.87,35.74-71.87,103.35
			c0,67.75,24.85,103.56,71.87,103.56c56.01,0,62.97-45.76,63.78-59.78c0.14-1.93-0.52-3.79-1.88-5.22
			C570.04,519.05,568.11,518.23,566.15,518.23"/>
		<path class="st1" d="M896.92,469.74L896.92,469.74l-18.33-7.99c-17.64-7.75-23.89-15.28-23.89-28.81
			c0-17.63,12.91-29.48,32.1-29.48c11.35,0,20.66,2.32,32.03,13.91l0.62,0.63l9.79-8.95c5.66-5.26,4.03-10,1.66-13.04
			c-9.55-11.26-24.87-17.44-43.17-17.44c-35.28,0-60.89,23.02-60.89,54.73c0,31.18,19.65,44.22,40.88,53.66l18.71,8.35
			c18.8,8.43,27.76,15.62,27.76,33.7c0,24.68-22.29,31.26-35.47,31.26c-11.33,0-23.95-2.43-39.45-19.99l-0.61-0.69l-10.19,8.95
			c-5.25,4.62-5.29,8.57-0.18,15.14c14.03,18.04,34.6,21.83,49.39,21.83c31.98,0,64.36-19.64,64.36-57.18
			C942.04,495.82,924.01,481.4,896.92,469.74"/>
		<path class="st1" d="M716.13,437.78c0-31.94-25.88-59.01-57.84-59.01c-15.03,0-28.72,5.73-39,15.13v-10.98h-19.24
			c-5.8,0-8.01,3.78-8.01,8.13v186.4c0,5.25,3.2,8.05,7.92,8.05h19.25V438.91c0-19.26,15.62-34.87,34.88-34.87
			c19.25,0,34.87,15.61,34.87,34.87v146.62h19.12c5.3,0,8.05-2.95,8.05-8.02V437.78z"/>
		<path class="st1" d="M826.49,392.71c1.01-1.25,1.63-2.81,1.63-4.53c0-3.21-2.09-5.91-4.97-6.88c-5.57-1.86-11.5-2.89-17.66-2.89
			c-15.03,0-28.72,5.73-39,15.13v-10.98h-19.24c-5.8,0-8.02,3.78-8.02,8.13v186.4c0,5.25,3.21,8.05,7.93,8.05h19.24V438.55
			c0-19.26,15.62-34.87,34.88-34.87c5.05,0,9.83,1.09,14.15,3.02l11.12-13.95L826.49,392.71z"/>
	</g>
</g>
</svg>
