<?xml version="1.0" encoding="UTF-8"?>
<svg id="Calque_1" data-name="Calque 1" xmlns="http://www.w3.org/2000/svg" viewBox="0 0 1484.66 620.63">
  <defs>
    <style>
      .cls-1 {
        fill: #00284b;
      }

      .cls-2 {
        fill: #fff;
      }
    </style>
  </defs>
  <g>
    <path class="cls-1" d="m857.92,321.27c-7.53,5.06-16.56,7.6-27.11,7.6-9.28,0-17.41-2.22-24.37-6.65-6.96-4.43-12.34-10.69-16.14-18.78-3.8-8.09-5.7-17.48-5.7-28.17s1.9-20.68,5.7-28.7,9.18-14.21,16.14-18.57c6.96-4.36,15.09-6.54,24.37-6.54,10.41,0,19.23,2.5,26.48,7.49,7.24,4.99,12.2,11.99,14.88,20.99h28.48c-1.69-11.11-5.7-20.71-12.03-28.8-6.33-8.09-14.35-14.38-24.05-18.88-9.71-4.5-20.68-6.75-32.92-6.75-14.91,0-28.06,3.31-39.46,9.92-11.39,6.61-20.22,15.9-26.48,27.85-6.26,11.96-9.39,25.95-9.39,41.99s3.06,30.21,9.18,42.09c6.12,11.89,14.7,21.1,25.74,27.64,11.04,6.54,24.09,9.81,39.14,9.81,12.24,0,23.32-2.25,33.23-6.75,9.92-4.5,18.15-10.83,24.69-18.99,6.54-8.16,10.79-17.58,12.76-28.27h-28.06c-2.53,8.58-7.56,15.4-15.09,20.47Z"/>
    <polygon class="cls-1" points="1020.98 261.98 952.61 261.98 952.61 198.04 925.6 198.04 925.6 352.29 952.61 352.29 952.61 286.88 1020.98 286.88 1020.98 352.29 1047.98 352.29 1047.98 198.04 1020.98 198.04 1020.98 261.98"/>
    <rect class="cls-1" x="1081.51" y="198.04" width="27.01" height="154.24"/>
    <path class="cls-1" d="m1218.11,320.85l-49.8-122.8h-26.16v154.24h26.16v-55.28c0-9.71-.11-18.15-.32-25.32s-.67-13.08-1.37-17.72l39.03,98.33h24.9l39.25-98.54c-.42,2.82-.71,5.63-.84,8.44-.14,2.82-.28,6.05-.42,9.71-.14,3.66-.21,8.12-.21,13.4v66.99h26.16v-154.24h-26.59l-49.8,122.8Z"/>
    <rect class="cls-1" x="1328.23" y="198.04" width="27.01" height="154.24"/>
    <polygon class="cls-1" points="1484.66 222.94 1484.66 198.04 1388.87 198.04 1388.87 352.29 1484.66 352.29 1484.66 327.39 1415.88 327.39 1415.88 286.45 1477.49 286.45 1477.49 262.61 1415.88 262.61 1415.88 222.94 1484.66 222.94"/>
  </g>
  <g>
    <path class="cls-1" d="m297.15.53C291.57.18,286.03,0,280.52,0c-76.81-.09-146.4,32.63-207.03,97.43C18.36,156.35-.16,203.76,0,261.02c.08,30.63,5.52,64.07,13.57,103.6,15.13,74.33,59.25,146.08,121.06,196.89,47.32,38.89,100.09,58.75,155.7,59.12,28.82.19,58.4-4.85,88.39-15.2,96.81-33.42,189.42-129.08,225.2-232.64,11.33-32.77,16.83-64.67,16.71-95.02-.29-74.18-34.17-139.19-98.92-185.68C443.17,35.67,367.62,4.88,297.15.53"/>
    <g>
      <path class="cls-2" d="m186.62,311.31h-21.29l-.02.6c-.17,4.14-2.63,40.35-35.03,40.35-28.96,0-43.65-25.95-43.68-77.14.03-51.19,14.72-77.14,43.68-77.14,32.96,0,34.96,38.7,35.03,40.34l.02.6h21.29c1.96,0,3.88-.81,5.25-2.21,1.31-1.35,1.99-3.09,1.9-4.91-.44-10.04-5.6-60.14-63.79-60.14-47.02,0-71.87,35.74-71.87,103.35s24.85,103.56,71.87,103.56c56.01,0,62.97-45.76,63.78-59.78.14-1.93-.52-3.79-1.88-5.22-1.36-1.44-3.29-2.26-5.25-2.26"/>
      <path class="cls-2" d="m517.39,262.82h0s-18.33-7.99-18.33-7.99c-17.64-7.75-23.89-15.28-23.89-28.81,0-17.63,12.91-29.48,32.1-29.48,11.35,0,20.66,2.32,32.03,13.91l.62.63,9.79-8.95c5.66-5.26,4.03-10,1.66-13.04-9.55-11.26-24.87-17.44-43.17-17.44-35.28,0-60.89,23.02-60.89,54.73s19.65,44.22,40.88,53.66l18.71,8.35c18.8,8.43,27.76,15.62,27.76,33.7,0,24.68-22.29,31.26-35.47,31.26-11.33,0-23.95-2.43-39.45-19.99l-.61-.69-10.19,8.95c-5.25,4.62-5.29,8.57-.18,15.14,14.03,18.04,34.6,21.83,49.39,21.83,31.98,0,64.36-19.64,64.36-57.18,0-32.49-18.04-46.92-45.13-58.58"/>
      <path class="cls-2" d="m336.61,230.86c0-31.94-25.88-59.01-57.84-59.01-15.03,0-28.72,5.73-39,15.13v-10.98h-19.24c-5.8,0-8.01,3.78-8.01,8.13v186.4c0,5.25,3.2,8.05,7.92,8.05h19.25v-146.59c0-19.26,15.62-34.87,34.88-34.87s34.87,15.61,34.87,34.87v146.62h19.12c5.3,0,8.05-2.95,8.05-8.02v-139.73Z"/>
      <path class="cls-2" d="m446.96,185.79c1.01-1.25,1.63-2.81,1.63-4.53,0-3.21-2.09-5.91-4.97-6.88-5.57-1.86-11.5-2.89-17.66-2.89-15.03,0-28.72,5.73-39,15.13v-10.98h-19.24c-5.8,0-8.02,3.78-8.02,8.13v186.4c0,5.25,3.21,8.05,7.93,8.05h19.24v-146.59c0-19.26,15.62-34.87,34.88-34.87,5.05,0,9.83,1.09,14.15,3.02l11.12-13.95-.06-.04Z"/>
    </g>
  </g>
</svg>