<?xml version="1.0" encoding="UTF-8"?>
<svg id="Calque_1" data-name="Calque 1" xmlns="http://www.w3.org/2000/svg" viewBox="0 0 2313.56 642.76">
  <rect y="11.04" width="108.69" height="620.68"/>
  <polygon points="638.84 451.73 347.61 11.04 239.77 11.04 239.77 631.72 346.76 631.72 346.76 191.68 638.84 631.72 745.83 631.72 745.83 11.04 638.84 11.04 638.84 451.73"/>
  <path d="m1135.39,433.89c23.77-20.38,44.43-39.91,61.98-58.59,17.55-18.69,32.28-37.22,44.15-55.61,11.9-18.39,20.8-37.36,26.75-56.89,5.95-19.53,8.92-40.04,8.92-61.55,0-41.88-8.78-77.83-26.33-107.84-17.55-30-42.31-53.07-74.29-69.2-31.98-16.14-70.05-24.21-114.2-24.21s-81.8,9.21-114.62,27.6c-32.84,18.4-58.31,44.44-76.42,78.12-18.12,33.69-27.46,73.17-28.02,118.45h107.83c.56-39.62,10.75-70.75,30.57-93.39,19.81-22.63,46.69-33.96,80.66-33.96s58.29,9.63,76.41,28.87c18.12,19.25,27.18,46.41,27.18,81.51,0,15.29-2,29.44-5.95,42.46-3.97,13.03-10.19,26.04-18.68,39.05-8.49,13.03-19.96,26.89-34.4,41.61-14.43,14.73-32.12,30.86-53.06,48.4l-202.93,171.52v81.51l430.49-.85v-101.04h-258.41l112.36-95.94Z"/>
  <path d="m1741.62,36.51c-30.57-16.98-66.8-25.47-108.69-25.47h-245.38v620.68h108.68v-213.97h136.7c41.88,0,78.12-8.63,108.69-25.89,30.56-17.26,54.34-41.31,71.32-72.17,16.98-30.85,25.48-66.08,25.48-105.72s-8.5-76.27-25.48-106.56c-16.98-30.28-40.75-53.92-71.32-70.9Zm-46.28,256c-19.53,18.97-47.98,28.44-85.33,28.44h-113.78V107.84h115.47c36.22,0,64.11,9.06,83.64,27.17,19.53,18.12,29.29,44.15,29.29,78.12s-9.76,60.43-29.29,79.39Z"/>
  <path d="m2295.73,348.55c-11.89-25.18-28.17-46.41-48.82-63.68-20.67-17.26-44.3-30.42-70.9-39.48-10.32-3.5-20.84-6.32-31.58-8.47l151.3-139.27V11.04h-393.98v95.94h258.52l-160.03,146.9v70.47h75.57c43.02,0,75,10.33,95.95,30.99,20.93,20.67,31.42,46.56,31.42,77.69,0,33.96-10.34,61.28-30.99,81.93-20.68,20.67-47.98,30.99-81.94,30.99s-60.15-9.76-80.24-29.29c-20.09-19.53-30.14-47.12-30.14-82.78h-106.99c0,44.72,9.47,82.65,28.44,113.78,18.96,31.14,44.71,54.76,77.27,70.89,32.55,16.14,69.2,24.2,109.96,24.2s79.94-8.49,114.2-25.47c34.24-16.98,61.27-41.03,81.09-72.17,19.81-31.13,29.71-67.93,29.71-110.39,0-32.26-5.94-60.99-17.83-86.18Z"/>
</svg>