<?xml version="1.0" encoding="UTF-8"?>
<svg id="Calque_1" data-name="Calque 1" xmlns="http://www.w3.org/2000/svg" viewBox="0 0 1684.21 1152.21">
  <defs>
    <style>
      .cls-1 {
        fill: #00284b;
      }

      .cls-2 {
        fill: #fff;
      }
    </style>
  </defs>
  <g>
    <path class="cls-1" d="m828.94.53C823.36.18,817.81,0,812.31,0c-76.81-.09-146.4,32.63-207.03,97.43-55.12,58.92-73.65,106.33-73.48,163.59.08,30.63,5.52,64.07,13.57,103.6,15.13,74.33,59.25,146.08,121.06,196.89,47.32,38.89,100.09,58.75,155.7,59.12,28.82.19,58.4-4.85,88.39-15.2,96.81-33.42,189.42-129.08,225.2-232.64,11.33-32.77,16.83-64.67,16.71-95.02-.29-74.18-34.17-139.19-98.92-185.68C974.96,35.67,899.41,4.88,828.94.53"/>
    <g>
      <path class="cls-2" d="m718.41,311.31h-21.29l-.02.6c-.17,4.14-2.63,40.35-35.03,40.35-28.96,0-43.65-25.95-43.68-77.14.03-51.19,14.72-77.14,43.68-77.14,32.96,0,34.96,38.7,35.03,40.34l.02.6h21.29c1.96,0,3.88-.81,5.25-2.21,1.31-1.35,1.99-3.09,1.9-4.91-.44-10.04-5.6-60.14-63.79-60.14-47.02,0-71.87,35.74-71.87,103.35s24.85,103.56,71.87,103.56c56.01,0,62.97-45.76,63.78-59.78.14-1.93-.52-3.79-1.88-5.22-1.36-1.44-3.29-2.26-5.25-2.26"/>
      <path class="cls-2" d="m1049.18,262.82h0s-18.33-7.99-18.33-7.99c-17.64-7.75-23.89-15.28-23.89-28.81,0-17.63,12.91-29.48,32.1-29.48,11.35,0,20.66,2.32,32.03,13.91l.62.63,9.79-8.95c5.66-5.26,4.03-10,1.66-13.04-9.55-11.26-24.87-17.44-43.17-17.44-35.28,0-60.89,23.02-60.89,54.73s19.65,44.22,40.88,53.66l18.71,8.35c18.8,8.43,27.76,15.62,27.76,33.7,0,24.68-22.29,31.26-35.47,31.26-11.33,0-23.95-2.43-39.45-19.99l-.61-.69-10.19,8.95c-5.25,4.62-5.29,8.57-.18,15.14,14.03,18.04,34.6,21.83,49.39,21.83,31.98,0,64.36-19.64,64.36-57.18,0-32.49-18.04-46.92-45.13-58.58"/>
      <path class="cls-2" d="m868.4,230.86c0-31.94-25.88-59.01-57.84-59.01-15.03,0-28.72,5.73-39,15.13v-10.98h-19.24c-5.8,0-8.01,3.78-8.01,8.13v186.4c0,5.25,3.2,8.05,7.92,8.05h19.25v-146.59c0-19.26,15.62-34.87,34.88-34.87s34.87,15.61,34.87,34.87v146.62h19.12c5.3,0,8.05-2.95,8.05-8.02v-139.73Z"/>
      <path class="cls-2" d="m978.75,185.79c1.01-1.25,1.63-2.81,1.63-4.53,0-3.21-2.09-5.91-4.97-6.88-5.57-1.86-11.5-2.89-17.66-2.89-15.03,0-28.72,5.73-39,15.13v-10.98h-19.24c-5.8,0-8.02,3.78-8.02,8.13v186.4c0,5.25,3.21,8.05,7.93,8.05h19.24v-146.59c0-19.26,15.62-34.87,34.88-34.87,5.05,0,9.83,1.09,14.15,3.02l11.12-13.95-.06-.04Z"/>
    </g>
  </g>
  <g>
    <g>
      <path class="cls-1" d="m431.47,890.98c4.64-7.17,6.96-15.47,6.96-24.9,0-11.53-3.24-20.71-9.71-27.54-6.47-6.82-16.32-11.64-29.54-14.45l-24.27-5.49c-6.47-1.55-11.22-3.9-14.24-7.07-3.03-3.17-4.54-7.49-4.54-12.98,0-6.47,2.5-11.57,7.49-15.3,4.99-3.73,11.64-5.59,19.94-5.59,7.6,0,13.64,1.87,18.15,5.59,4.5,3.73,6.89,8.9,7.17,15.51h27.01c-.28-9.28-2.57-17.3-6.86-24.05-4.29-6.75-10.27-11.95-17.94-15.61-7.67-3.66-16.71-5.49-27.11-5.49s-20.36,1.94-28.59,5.8c-8.23,3.87-14.66,9.25-19.31,16.14-4.64,6.89-6.96,14.84-6.96,23.84,0,11.96,3.38,21.63,10.13,29.01,6.75,7.39,16.67,12.49,29.75,15.3l24.48,5.49c6.33,1.27,10.9,3.48,13.71,6.65,2.81,3.17,4.22,7.42,4.22,12.77,0,6.19-2.64,11.15-7.91,14.88-5.28,3.73-12.42,5.59-21.42,5.59s-15.37-1.86-20.36-5.59c-4.99-3.73-7.56-8.83-7.7-15.3h-27.01c.28,9.15,2.71,17.09,7.28,23.84,4.57,6.75,10.94,11.99,19.1,15.72,8.16,3.73,17.65,5.59,28.48,5.59,11.39,0,21.34-1.94,29.86-5.8,8.51-3.87,15.09-9.39,19.73-16.56Z"/>
      <path class="cls-1" d="m587.36,887.39c6.54-8.16,10.79-17.58,12.76-28.27h-28.06c-2.53,8.58-7.56,15.4-15.09,20.47-7.53,5.06-16.56,7.6-27.11,7.6-9.28,0-17.41-2.22-24.37-6.65-6.96-4.43-12.34-10.69-16.14-18.78-3.8-8.09-5.7-17.48-5.7-28.17s1.9-20.68,5.7-28.7,9.18-14.21,16.14-18.57c6.96-4.36,15.09-6.54,24.37-6.54,10.41,0,19.23,2.5,26.48,7.49,7.24,4.99,12.2,11.99,14.88,20.99h28.48c-1.69-11.11-5.7-20.71-12.03-28.8-6.33-8.09-14.35-14.38-24.05-18.88-9.71-4.5-20.68-6.75-32.92-6.75-14.91,0-28.06,3.31-39.46,9.92-11.39,6.61-20.22,15.9-26.48,27.85-6.26,11.96-9.39,25.95-9.39,41.99s3.06,30.21,9.18,42.09c6.12,11.89,14.7,21.1,25.74,27.64,11.04,6.54,24.09,9.81,39.14,9.81,12.24,0,23.32-2.25,33.23-6.75,9.92-4.5,18.15-10.83,24.69-18.99Z"/>
      <rect class="cls-1" x="624.53" y="756.36" width="27.01" height="154.24"/>
      <polygon class="cls-1" points="780.97 885.7 712.18 885.7 712.18 844.77 773.79 844.77 773.79 820.92 712.18 820.92 712.18 781.26 780.97 781.26 780.97 756.36 685.17 756.36 685.17 910.6 780.97 910.6 780.97 885.7"/>
      <polygon class="cls-1" points="836.71 801.25 909.3 910.6 935.88 910.6 935.88 756.36 909.3 756.36 909.3 865.87 836.92 756.36 810.13 756.36 810.13 910.6 836.71 910.6 836.71 801.25"/>
      <path class="cls-1" d="m996.69,903.32c11.04,6.54,24.09,9.81,39.14,9.81,12.24,0,23.32-2.25,33.23-6.75,9.92-4.5,18.15-10.83,24.69-18.99,6.54-8.16,10.79-17.58,12.76-28.27h-28.06c-2.53,8.58-7.56,15.4-15.09,20.47-7.53,5.06-16.56,7.6-27.11,7.6-9.28,0-17.41-2.22-24.37-6.65-6.96-4.43-12.34-10.69-16.14-18.78-3.8-8.09-5.7-17.48-5.7-28.17s1.9-20.68,5.7-28.7,9.18-14.21,16.14-18.57c6.96-4.36,15.09-6.54,24.37-6.54,10.41,0,19.23,2.5,26.48,7.49,7.24,4.99,12.2,11.99,14.88,20.99h28.48c-1.69-11.11-5.7-20.71-12.03-28.8-6.33-8.09-14.35-14.38-24.05-18.88-9.71-4.5-20.68-6.75-32.92-6.75-14.91,0-28.06,3.31-39.46,9.92-11.39,6.61-20.22,15.9-26.48,27.85-6.26,11.96-9.39,25.95-9.39,41.99s3.06,30.21,9.18,42.09c6.12,11.89,14.7,21.1,25.74,27.64Z"/>
      <polygon class="cls-1" points="1226.85 885.7 1158.06 885.7 1158.06 844.77 1219.67 844.77 1219.67 820.92 1158.06 820.92 1158.06 781.26 1226.85 781.26 1226.85 756.36 1131.05 756.36 1131.05 910.6 1226.85 910.6 1226.85 885.7"/>
      <path class="cls-1" d="m1322.26,883.49c-5.28,3.73-12.42,5.59-21.42,5.59s-15.37-1.86-20.36-5.59c-4.99-3.73-7.56-8.83-7.7-15.3h-27.01c.28,9.15,2.71,17.09,7.28,23.84,4.57,6.75,10.94,11.99,19.1,15.72,8.16,3.73,17.65,5.59,28.48,5.59,11.39,0,21.34-1.94,29.86-5.8,8.51-3.87,15.09-9.39,19.73-16.56,4.64-7.17,6.96-15.47,6.96-24.9,0-11.53-3.24-20.71-9.71-27.54-6.47-6.82-16.32-11.64-29.54-14.45l-24.27-5.49c-6.47-1.55-11.22-3.9-14.24-7.07-3.03-3.17-4.54-7.49-4.54-12.98,0-6.47,2.5-11.57,7.49-15.3,4.99-3.73,11.64-5.59,19.94-5.59,7.6,0,13.64,1.87,18.15,5.59,4.5,3.73,6.89,8.9,7.17,15.51h27.01c-.28-9.28-2.57-17.3-6.86-24.05-4.29-6.75-10.27-11.95-17.94-15.61-7.67-3.66-16.71-5.49-27.11-5.49s-20.36,1.94-28.59,5.8c-8.23,3.87-14.66,9.25-19.31,16.14-4.64,6.89-6.96,14.84-6.96,23.84,0,11.96,3.38,21.63,10.13,29.01,6.75,7.39,16.67,12.49,29.75,15.3l24.48,5.49c6.33,1.27,10.9,3.48,13.71,6.65,2.81,3.17,4.22,7.42,4.22,12.77,0,6.19-2.64,11.15-7.91,14.88Z"/>
    </g>
    <g>
      <rect class="cls-1" y="986.36" width="27.01" height="154.24"/>
      <polygon class="cls-1" points="159.81 1095.87 87.44 986.36 60.64 986.36 60.64 1140.6 87.23 1140.6 87.23 1031.25 159.81 1140.6 186.4 1140.6 186.4 986.36 159.81 986.36 159.81 1095.87"/>
      <polygon class="cls-1" points="222.27 986.36 220.16 986.36 220.16 1140.6 247.16 1140.6 247.16 1077.51 304.56 1077.51 304.56 1053.25 247.16 1053.25 247.16 1011.26 315.53 1011.26 315.53 986.36 247.16 986.36 222.27 986.36"/>
      <path class="cls-1" d="m440.08,993.74c-11.18-6.75-24.16-10.13-38.93-10.13s-27.75,3.38-38.93,10.13c-11.18,6.75-19.94,16.14-26.27,28.17s-9.5,25.92-9.5,41.67,3.13,29.4,9.39,41.36c6.26,11.96,15.01,21.31,26.27,28.06,11.25,6.75,24.19,10.13,38.82,10.13s27.78-3.38,39.04-10.13c11.25-6.75,20.04-16.14,26.38-28.17,6.33-12.03,9.5-25.85,9.5-41.46s-3.17-29.61-9.5-41.57c-6.33-11.95-15.09-21.31-26.27-28.06Zm1.79,98.01c-3.8,8.09-9.15,14.35-16.04,18.78-6.89,4.43-15.12,6.65-24.69,6.65s-17.62-2.18-24.58-6.54c-6.96-4.36-12.34-10.58-16.14-18.67-3.8-8.09-5.7-17.62-5.7-28.59s1.9-20.47,5.7-28.49,9.18-14.24,16.14-18.67c6.96-4.43,15.16-6.65,24.58-6.65s17.79,2.22,24.69,6.65c6.89,4.43,12.24,10.66,16.04,18.67,3.8,8.02,5.7,17.51,5.7,28.49s-1.9,20.29-5.7,28.38Z"/>
      <path class="cls-1" d="m608.58,1060.74c4.71-7.24,7.07-16,7.07-26.27,0-15.19-4.89-27.01-14.67-35.45-9.78-8.44-23.39-12.66-40.83-12.66h-58.87v154.24h27.01v-57.6h33.13l26.16,57.6h29.54l-29.33-63.3c9.14-3.8,16.07-9.32,20.78-16.56Zm-28.38-8.12c-4.78,4.36-11.47,6.54-20.04,6.54h-31.86v-48.74h31.86c8.58,0,15.26,2.08,20.04,6.22,4.78,4.15,7.17,10.1,7.17,17.83s-2.39,13.79-7.17,18.15Z"/>
      <path class="cls-1" d="m718.64,1109.16l-49.8-122.8h-26.16v154.24h26.16v-55.28c0-9.71-.11-18.15-.32-25.32-.21-7.17-.67-13.08-1.37-17.72l39.03,98.33h24.9l39.25-98.54c-.42,2.82-.71,5.63-.84,8.44-.14,2.82-.28,6.05-.42,9.71-.14,3.66-.21,8.12-.21,13.4v66.99h26.16v-154.24h-26.59l-49.8,122.8Z"/>
      <path class="cls-1" d="m869.14,986.36l-55.7,154.24h27.85l12.66-35.66h57.6l12.45,35.66h28.49l-55.7-154.24h-27.64Zm-7.39,95.79l17.72-49.8c.7-2.11,1.37-4.25,2-6.44.63-2.18,1.09-3.97,1.37-5.38.14,1.55.56,3.38,1.27,5.49.7,2.11,1.33,4.22,1.9,6.33l17.72,49.8h-41.99Z"/>
      <polygon class="cls-1" points="940.46 1011.26 985.61 1011.26 985.61 1140.6 1012.62 1140.6 1012.62 1011.26 1057.78 1011.26 1057.78 986.36 940.46 986.36 940.46 1011.26"/>
      <rect class="cls-1" x="1076.17" y="986.36" width="27.01" height="154.24"/>
      <path class="cls-1" d="m1278.23,1063.37c0-15.75-3.17-29.61-9.5-41.57-6.33-11.95-15.09-21.31-26.27-28.06-11.18-6.75-24.16-10.13-38.93-10.13s-27.75,3.38-38.93,10.13c-11.18,6.75-19.94,16.14-26.27,28.17s-9.5,25.92-9.5,41.67,3.13,29.4,9.39,41.36c6.26,11.96,15.01,21.31,26.27,28.06,11.25,6.75,24.19,10.13,38.82,10.13s27.5-3.31,38.68-9.92l16.81,19,17.3-15.4-16.43-18.49c3.43-4.05,6.45-8.53,9.05-13.47,6.33-12.03,9.5-25.85,9.5-41.46Zm-57.6,10.97l-17.09,15.4,20.46,23.11c-5.96,2.86-12.77,4.32-20.46,4.32-9.43,0-17.62-2.18-24.58-6.54-6.96-4.36-12.34-10.58-16.14-18.67-3.8-8.09-5.7-17.62-5.7-28.59s1.9-20.47,5.7-28.49,9.18-14.24,16.14-18.67c6.96-4.43,15.16-6.65,24.58-6.65s17.79,2.22,24.69,6.65c6.89,4.43,12.24,10.66,16.04,18.67,3.8,8.02,5.7,17.51,5.7,28.49s-1.9,20.29-5.7,28.38c-.94,2.01-1.98,3.9-3.12,5.68l-20.52-23.09Z"/>
      <path class="cls-1" d="m1398.37,1082.57c0,10.97-2.95,19.45-8.86,25.43-5.91,5.98-14.35,8.97-25.32,8.97s-19.2-2.95-25.11-8.86-8.86-14.42-8.86-25.53v-96.22h-27.01v97.9c0,11.96,2.5,22.37,7.49,31.23,4.99,8.86,12.06,15.69,21.21,20.47,9.14,4.78,19.9,7.17,32.28,7.17s23.35-2.43,32.49-7.28c9.14-4.85,16.21-11.67,21.21-20.47,4.99-8.79,7.49-19.16,7.49-31.12v-97.9h-27.01v96.22Z"/>
      <polygon class="cls-1" points="1458.08 1140.6 1553.87 1140.6 1553.87 1115.7 1485.09 1115.7 1485.09 1074.77 1546.7 1074.77 1546.7 1050.93 1485.09 1050.93 1485.09 1011.26 1553.87 1011.26 1553.87 986.36 1458.08 986.36 1458.08 1140.6"/>
      <path class="cls-1" d="m1674.5,1068.54c-6.47-6.82-16.32-11.64-29.54-14.45l-24.27-5.49c-6.47-1.55-11.22-3.9-14.24-7.07-3.03-3.17-4.54-7.49-4.54-12.98,0-6.47,2.5-11.57,7.49-15.3,4.99-3.73,11.64-5.59,19.94-5.59,7.6,0,13.64,1.87,18.15,5.59,4.5,3.73,6.89,8.9,7.17,15.51h27.01c-.28-9.28-2.57-17.3-6.86-24.05-4.29-6.75-10.27-11.96-17.94-15.61-7.67-3.66-16.71-5.49-27.11-5.49s-20.36,1.94-28.59,5.8c-8.23,3.87-14.66,9.25-19.31,16.14-4.64,6.89-6.96,14.84-6.96,23.84,0,11.96,3.38,21.63,10.13,29.01s16.67,12.49,29.75,15.3l24.48,5.49c6.33,1.27,10.9,3.48,13.71,6.65,2.81,3.17,4.22,7.42,4.22,12.77,0,6.19-2.64,11.15-7.91,14.88-5.28,3.73-12.42,5.59-21.42,5.59s-15.37-1.86-20.36-5.59c-4.99-3.73-7.56-8.83-7.7-15.3h-27.01c.28,9.15,2.71,17.09,7.28,23.84,4.57,6.75,10.94,11.99,19.1,15.72,8.16,3.73,17.65,5.59,28.48,5.59,11.39,0,21.34-1.94,29.86-5.8,8.51-3.87,15.09-9.39,19.73-16.56,4.64-7.17,6.96-15.47,6.96-24.9,0-11.53-3.24-20.71-9.71-27.54Z"/>
    </g>
  </g>
</svg>