<?xml version="1.0" encoding="UTF-8"?>
<svg id="Calque_1" data-name="Calque 1" xmlns="http://www.w3.org/2000/svg" viewBox="0 0 2512.39 620.63">
  <defs>
    <style>
      .cls-1 {
        fill: #00284b;
      }

      .cls-2 {
        fill: #fff;
      }
    </style>
  </defs>
  <g>
    <path class="cls-1" d="m297.15.53C291.57.18,286.03,0,280.52,0c-76.81-.09-146.4,32.63-207.03,97.43C18.36,156.35-.16,203.76,0,261.02c.08,30.63,5.52,64.07,13.57,103.6,15.13,74.33,59.25,146.08,121.06,196.89,47.32,38.89,100.09,58.75,155.7,59.12,28.82.19,58.4-4.85,88.39-15.2,96.81-33.42,189.42-129.08,225.2-232.64,11.33-32.77,16.83-64.67,16.71-95.02-.29-74.18-34.17-139.19-98.92-185.68C443.17,35.67,367.62,4.88,297.15.53"/>
    <g>
      <path class="cls-2" d="m186.62,311.31h-21.29l-.02.6c-.17,4.14-2.63,40.35-35.03,40.35-28.96,0-43.65-25.95-43.68-77.14.03-51.19,14.72-77.14,43.68-77.14,32.96,0,34.96,38.7,35.03,40.34l.02.6h21.29c1.96,0,3.88-.81,5.25-2.21,1.31-1.35,1.99-3.09,1.9-4.91-.44-10.04-5.6-60.14-63.79-60.14-47.02,0-71.87,35.74-71.87,103.35s24.85,103.56,71.87,103.56c56.01,0,62.97-45.76,63.78-59.78.14-1.93-.52-3.79-1.88-5.22-1.36-1.44-3.29-2.26-5.25-2.26"/>
      <path class="cls-2" d="m517.39,262.82h0s-18.33-7.99-18.33-7.99c-17.64-7.75-23.89-15.28-23.89-28.81,0-17.63,12.91-29.48,32.1-29.48,11.35,0,20.66,2.32,32.03,13.91l.62.63,9.79-8.95c5.66-5.26,4.03-10,1.66-13.04-9.55-11.26-24.87-17.44-43.17-17.44-35.28,0-60.89,23.02-60.89,54.73s19.65,44.22,40.88,53.66l18.71,8.35c18.8,8.43,27.76,15.62,27.76,33.7,0,24.68-22.29,31.26-35.47,31.26-11.33,0-23.95-2.43-39.45-19.99l-.61-.69-10.19,8.95c-5.25,4.62-5.29,8.57-.18,15.14,14.03,18.04,34.6,21.83,49.39,21.83,31.98,0,64.36-19.64,64.36-57.18,0-32.49-18.04-46.92-45.13-58.58"/>
      <path class="cls-2" d="m336.61,230.86c0-31.94-25.88-59.01-57.84-59.01-15.03,0-28.72,5.73-39,15.13v-10.98h-19.24c-5.8,0-8.01,3.78-8.01,8.13v186.4c0,5.25,3.2,8.05,7.92,8.05h19.25v-146.59c0-19.26,15.62-34.87,34.88-34.87s34.87,15.61,34.87,34.87v146.62h19.12c5.3,0,8.05-2.95,8.05-8.02v-139.73Z"/>
      <path class="cls-2" d="m446.96,185.79c1.01-1.25,1.63-2.81,1.63-4.53,0-3.21-2.09-5.91-4.97-6.88-5.57-1.86-11.5-2.89-17.66-2.89-15.03,0-28.72,5.73-39,15.13v-10.98h-19.24c-5.8,0-8.02,3.78-8.02,8.13v186.4c0,5.25,3.21,8.05,7.93,8.05h19.24v-146.59c0-19.26,15.62-34.87,34.88-34.87,5.05,0,9.83,1.09,14.15,3.02l11.12-13.95-.06-.04Z"/>
    </g>
  </g>
  <g>
    <path class="cls-1" d="m832.44,320.85l-49.8-122.8h-26.16v154.24h26.16v-55.28c0-9.71-.11-18.15-.32-25.32s-.67-13.08-1.37-17.72l39.03,98.33h24.9l39.25-98.54c-.42,2.82-.71,5.63-.84,8.44-.14,2.82-.28,6.05-.42,9.71-.14,3.66-.21,8.12-.21,13.4v66.99h26.16v-154.24h-26.59l-49.8,122.8Z"/>
    <path class="cls-1" d="m982.95,198.04l-55.7,154.24h27.85l12.66-35.66h57.6l12.45,35.66h28.49l-55.7-154.24h-27.64Zm-7.39,95.79l17.72-49.8c.7-2.11,1.37-4.25,2-6.44.63-2.18,1.09-3.97,1.37-5.38.14,1.55.56,3.38,1.27,5.49.7,2.11,1.33,4.22,1.9,6.33l17.72,49.8h-41.99Z"/>
    <polygon class="cls-1" points="1054.27 222.94 1099.42 222.94 1099.42 352.29 1126.43 352.29 1126.43 222.94 1171.58 222.94 1171.58 198.04 1054.27 198.04 1054.27 222.94"/>
    <polygon class="cls-1" points="1285.35 261.98 1216.99 261.98 1216.99 198.04 1189.98 198.04 1189.98 352.29 1216.99 352.29 1216.99 286.88 1285.35 286.88 1285.35 352.29 1312.36 352.29 1312.36 198.04 1285.35 198.04 1285.35 261.98"/>
    <polygon class="cls-1" points="1345.91 352.29 1441.7 352.29 1441.7 327.39 1372.92 327.39 1372.92 286.45 1434.53 286.45 1434.53 262.61 1372.92 262.61 1372.92 222.94 1441.7 222.94 1441.7 198.04 1345.91 198.04 1345.91 352.29"/>
    <polygon class="cls-1" points="1423.56 155.85 1399.71 155.85 1383.89 187.07 1403.09 187.07 1423.56 155.85"/>
    <path class="cls-1" d="m1546.82,320.85l-49.8-122.8h-26.16v154.24h26.16v-55.28c0-9.71-.11-18.15-.32-25.32s-.67-13.08-1.37-17.72l39.03,98.33h24.9l39.25-98.54c-.42,2.82-.71,5.63-.84,8.44-.14,2.82-.28,6.05-.42,9.71-.14,3.66-.21,8.12-.21,13.4v66.99h26.16v-154.24h-26.59l-49.8,122.8Z"/>
    <path class="cls-1" d="m1697.33,198.04l-55.7,154.24h27.85l12.66-35.66h57.6l12.45,35.66h28.49l-55.7-154.24h-27.64Zm-7.39,95.79l17.72-49.8c.7-2.11,1.37-4.25,2-6.44.63-2.18,1.09-3.97,1.37-5.38.14,1.55.56,3.38,1.27,5.49.7,2.11,1.33,4.22,1.9,6.33l17.72,49.8h-41.99Z"/>
    <polygon class="cls-1" points="1768.64 222.94 1813.8 222.94 1813.8 352.29 1840.81 352.29 1840.81 222.94 1885.96 222.94 1885.96 198.04 1768.64 198.04 1768.64 222.94"/>
    <rect class="cls-1" x="1904.36" y="198.04" width="27.01" height="154.24"/>
    <path class="cls-1" d="m2106.41,275.06c0-15.75-3.17-29.61-9.5-41.57-6.33-11.95-15.09-21.31-26.27-28.06s-24.16-10.13-38.93-10.13-27.75,3.38-38.93,10.13c-11.18,6.75-19.94,16.14-26.27,28.17s-9.5,25.92-9.5,41.67,3.13,29.4,9.39,41.36c6.26,11.96,15.01,21.31,26.27,28.06,11.25,6.75,24.19,10.13,38.82,10.13s27.5-3.31,38.68-9.92l16.81,19,17.3-15.4-16.43-18.5c3.43-4.05,6.45-8.53,9.05-13.47,6.33-12.03,9.5-25.85,9.5-41.46Zm-57.6,10.97l-17.09,15.4,20.46,23.11c-5.96,2.86-12.77,4.32-20.46,4.32-9.43,0-17.62-2.18-24.58-6.54-6.96-4.36-12.34-10.58-16.14-18.67-3.8-8.09-5.7-17.62-5.7-28.59s1.9-20.47,5.7-28.48,9.18-14.24,16.14-18.67c6.96-4.43,15.16-6.65,24.58-6.65s17.79,2.22,24.69,6.65c6.89,4.43,12.24,10.66,16.04,18.67,3.8,8.02,5.7,17.51,5.7,28.48s-1.9,20.29-5.7,28.38c-.94,2.01-1.98,3.9-3.12,5.68l-20.52-23.09Z"/>
    <path class="cls-1" d="m2226.55,294.26c0,10.97-2.95,19.45-8.86,25.43-5.91,5.98-14.35,8.97-25.32,8.97s-19.2-2.95-25.11-8.86c-5.91-5.91-8.86-14.42-8.86-25.53v-96.22h-27.01v97.9c0,11.96,2.5,22.37,7.49,31.23,4.99,8.86,12.06,15.69,21.21,20.47,9.14,4.78,19.9,7.17,32.28,7.17s23.35-2.43,32.49-7.28c9.14-4.85,16.21-11.67,21.21-20.47,4.99-8.79,7.49-19.17,7.49-31.12v-97.9h-27.01v96.22Z"/>
    <polygon class="cls-1" points="2286.26 352.29 2382.06 352.29 2382.06 327.39 2313.27 327.39 2313.27 286.45 2374.88 286.45 2374.88 262.61 2313.27 262.61 2313.27 222.94 2382.06 222.94 2382.06 198.04 2286.26 198.04 2286.26 352.29"/>
    <path class="cls-1" d="m2502.69,280.23c-6.47-6.82-16.32-11.64-29.54-14.45l-24.27-5.49c-6.47-1.55-11.22-3.9-14.24-7.07-3.03-3.17-4.54-7.49-4.54-12.98,0-6.47,2.5-11.57,7.49-15.3,4.99-3.73,11.64-5.59,19.94-5.59,7.6,0,13.64,1.87,18.15,5.59,4.5,3.73,6.89,8.9,7.17,15.51h27.01c-.28-9.28-2.57-17.3-6.86-24.05-4.29-6.75-10.27-11.95-17.94-15.61-7.67-3.66-16.71-5.49-27.11-5.49s-20.36,1.94-28.59,5.8c-8.23,3.87-14.66,9.25-19.31,16.14-4.64,6.89-6.96,14.84-6.96,23.84,0,11.96,3.38,21.63,10.13,29.01,6.75,7.39,16.67,12.49,29.75,15.3l24.48,5.49c6.33,1.27,10.9,3.48,13.71,6.65,2.81,3.17,4.22,7.42,4.22,12.77,0,6.19-2.64,11.15-7.91,14.88-5.28,3.73-12.42,5.59-21.42,5.59s-15.37-1.86-20.36-5.59c-4.99-3.73-7.56-8.83-7.7-15.3h-27.01c.28,9.15,2.71,17.09,7.28,23.84,4.57,6.75,10.94,11.99,19.1,15.72,8.16,3.73,17.65,5.59,28.48,5.59,11.39,0,21.34-1.94,29.86-5.8,8.51-3.87,15.09-9.39,19.73-16.56,4.64-7.17,6.96-15.47,6.96-24.9,0-11.53-3.24-20.71-9.71-27.54Z"/>
  </g>
</svg>