<?xml version="1.0" encoding="utf-8"?>
<!-- Generator: $$$/GeneralStr/196=Adobe Illustrator 27.6.0, SVG Export Plug-In . SVG Version: 6.00 Build 0)  -->
<svg version="1.1" id="Calque_1" xmlns="http://www.w3.org/2000/svg" xmlns:xlink="http://www.w3.org/1999/xlink" x="0px" y="0px"
	 viewBox="0 0 2854.34 1034.47" style="enable-background:new 0 0 2854.34 1034.47;" xml:space="preserve">
<style type="text/css">
	.st0{fill:#FFFFFF;}
</style>
<g>
	<path d="M1065.62,539.58c4.64-7.17,6.96-15.47,6.96-24.9c0-11.53-3.24-20.71-9.71-27.54c-6.47-6.82-16.32-11.64-29.54-14.45
		l-24.27-5.49c-6.47-1.55-11.22-3.9-14.24-7.07c-3.03-3.17-4.54-7.49-4.54-12.98c0-6.47,2.5-11.57,7.49-15.3
		c4.99-3.73,11.64-5.59,19.94-5.59c7.6,0,13.64,1.87,18.15,5.59c4.5,3.73,6.89,8.9,7.17,15.51h27.01
		c-0.28-9.28-2.57-17.3-6.86-24.05c-4.29-6.75-10.27-11.95-17.94-15.61c-7.67-3.66-16.71-5.49-27.11-5.49
		c-10.83,0-20.36,1.94-28.59,5.8c-8.23,3.87-14.66,9.25-19.31,16.14c-4.64,6.89-6.96,14.84-6.96,23.84
		c0,11.96,3.38,21.63,10.13,29.01c6.75,7.39,16.67,12.49,29.75,15.3l24.48,5.49c6.33,1.27,10.9,3.48,13.71,6.65
		c2.81,3.17,4.22,7.42,4.22,12.77c0,6.19-2.64,11.15-7.91,14.88c-5.28,3.73-12.42,5.59-21.42,5.59c-8.58,0-15.37-1.86-20.36-5.59
		c-4.99-3.73-7.56-8.83-7.7-15.3h-27.01c0.28,9.15,2.71,17.09,7.28,23.84c4.57,6.75,10.94,11.99,19.1,15.72
		c8.16,3.73,17.65,5.59,28.48,5.59c11.39,0,21.34-1.94,29.86-5.8C1054.4,552.28,1060.97,546.75,1065.62,539.58z"/>
	<path d="M1221.5,535.99c6.54-8.16,10.79-17.58,12.76-28.27h-28.06c-2.53,8.58-7.56,15.4-15.09,20.47
		c-7.53,5.06-16.56,7.6-27.11,7.6c-9.28,0-17.41-2.22-24.37-6.65c-6.96-4.43-12.34-10.69-16.14-18.78c-3.8-8.09-5.7-17.48-5.7-28.17
		c0-11.11,1.9-20.68,5.7-28.7s9.18-14.21,16.14-18.57c6.96-4.36,15.09-6.54,24.37-6.54c10.41,0,19.23,2.5,26.48,7.49
		c7.24,4.99,12.2,11.99,14.88,20.99h28.48c-1.69-11.11-5.7-20.71-12.03-28.8c-6.33-8.09-14.35-14.38-24.05-18.88
		c-9.71-4.5-20.68-6.75-32.92-6.75c-14.91,0-28.06,3.31-39.46,9.92c-11.39,6.61-20.22,15.9-26.48,27.85
		c-6.26,11.96-9.39,25.95-9.39,41.99c0,16.18,3.06,30.21,9.18,42.09c6.12,11.89,14.7,21.1,25.74,27.64
		c11.04,6.54,24.09,9.81,39.14,9.81c12.24,0,23.32-2.25,33.23-6.75C1206.73,550.48,1214.96,544.15,1221.5,535.99z"/>
	<rect x="1258.68" y="404.96" width="27.01" height="154.24"/>
	<polygon points="1415.11,534.31 1346.33,534.31 1346.33,493.37 1407.94,493.37 1407.94,469.53 1346.33,469.53 1346.33,429.86 
		1415.11,429.86 1415.11,404.96 1319.32,404.96 1319.32,559.2 1415.11,559.2 	"/>
	<polygon points="1470.86,449.85 1543.44,559.2 1570.03,559.2 1570.03,404.96 1543.44,404.96 1543.44,514.47 1471.07,404.96 
		1444.27,404.96 1444.27,559.2 1470.86,559.2 	"/>
	<path d="M1630.84,551.92c11.04,6.54,24.09,9.81,39.14,9.81c12.24,0,23.32-2.25,33.23-6.75c9.92-4.5,18.15-10.83,24.69-18.99
		c6.54-8.16,10.79-17.58,12.76-28.27h-28.06c-2.53,8.58-7.56,15.4-15.09,20.47c-7.53,5.06-16.56,7.6-27.11,7.6
		c-9.28,0-17.41-2.22-24.37-6.65c-6.96-4.43-12.34-10.69-16.14-18.78c-3.8-8.09-5.7-17.48-5.7-28.17c0-11.11,1.9-20.68,5.7-28.7
		s9.18-14.21,16.14-18.57c6.96-4.36,15.09-6.54,24.37-6.54c10.41,0,19.23,2.5,26.48,7.49c7.24,4.99,12.2,11.99,14.88,20.99h28.48
		c-1.69-11.11-5.7-20.71-12.03-28.8c-6.33-8.09-14.35-14.38-24.05-18.88c-9.71-4.5-20.68-6.75-32.92-6.75
		c-14.91,0-28.06,3.31-39.46,9.92c-11.39,6.61-20.22,15.9-26.48,27.85c-6.26,11.96-9.39,25.95-9.39,41.99
		c0,16.18,3.06,30.21,9.18,42.09C1611.21,536.17,1619.79,545.38,1630.84,551.92z"/>
	<polygon points="1860.99,534.31 1792.21,534.31 1792.21,493.37 1853.82,493.37 1853.82,469.53 1792.21,469.53 1792.21,429.86 
		1860.99,429.86 1860.99,404.96 1765.2,404.96 1765.2,559.2 1860.99,559.2 	"/>
	<path d="M1956.41,532.09c-5.28,3.73-12.42,5.59-21.42,5.59c-8.58,0-15.37-1.86-20.36-5.59c-4.99-3.73-7.56-8.83-7.7-15.3h-27.01
		c0.28,9.15,2.71,17.09,7.28,23.84c4.57,6.75,10.94,11.99,19.1,15.72c8.16,3.73,17.65,5.59,28.48,5.59c11.39,0,21.34-1.94,29.86-5.8
		c8.51-3.87,15.09-9.39,19.73-16.56c4.64-7.17,6.96-15.47,6.96-24.9c0-11.53-3.24-20.71-9.71-27.54
		c-6.47-6.82-16.32-11.64-29.54-14.45l-24.27-5.49c-6.47-1.55-11.22-3.9-14.24-7.07c-3.03-3.17-4.54-7.49-4.54-12.98
		c0-6.47,2.5-11.57,7.49-15.3c4.99-3.73,11.64-5.59,19.94-5.59c7.6,0,13.64,1.87,18.15,5.59c4.5,3.73,6.89,8.9,7.17,15.51h27.01
		c-0.28-9.28-2.57-17.3-6.86-24.05c-4.29-6.75-10.27-11.95-17.94-15.61c-7.67-3.66-16.71-5.49-27.11-5.49
		c-10.83,0-20.36,1.94-28.59,5.8c-8.23,3.87-14.66,9.25-19.31,16.14c-4.64,6.89-6.96,14.84-6.96,23.84
		c0,11.96,3.38,21.63,10.13,29.01c6.75,7.39,16.67,12.49,29.75,15.3l24.48,5.49c6.33,1.27,10.9,3.48,13.71,6.65
		c2.81,3.17,4.22,7.42,4.22,12.77C1964.32,523.41,1961.68,528.36,1956.41,532.09z"/>
	<rect x="963.21" y="634.96" width="27.01" height="154.24"/>
	<polygon points="1123.02,744.47 1050.65,634.96 1023.85,634.96 1023.85,789.2 1050.44,789.2 1050.44,679.85 1123.02,789.2 
		1149.61,789.2 1149.61,634.96 1123.02,634.96 	"/>
	<polygon points="1185.48,634.96 1183.37,634.96 1183.37,789.2 1210.38,789.2 1210.38,726.12 1267.77,726.12 1267.77,701.85 
		1210.38,701.85 1210.38,659.86 1278.74,659.86 1278.74,634.96 1210.38,634.96 	"/>
	<path d="M1403.29,642.35c-11.18-6.75-24.16-10.13-38.93-10.13c-14.77,0-27.75,3.38-38.93,10.13
		c-11.18,6.75-19.94,16.14-26.27,28.17s-9.5,25.92-9.5,41.67c0,15.61,3.13,29.4,9.39,41.36c6.26,11.96,15.01,21.31,26.27,28.06
		c11.25,6.75,24.19,10.13,38.82,10.13c14.77,0,27.78-3.38,39.04-10.13c11.25-6.75,20.04-16.14,26.38-28.17
		c6.33-12.03,9.5-25.85,9.5-41.46c0-15.75-3.17-29.61-9.5-41.57C1423.23,658.46,1414.47,649.1,1403.29,642.35z M1405.08,740.36
		c-3.8,8.09-9.15,14.35-16.04,18.78c-6.89,4.43-15.12,6.65-24.69,6.65c-9.43,0-17.62-2.18-24.58-6.54
		c-6.96-4.36-12.34-10.58-16.14-18.67c-3.8-8.09-5.7-17.62-5.7-28.59c0-10.97,1.9-20.47,5.7-28.49s9.18-14.24,16.14-18.67
		c6.96-4.43,15.16-6.65,24.58-6.65c9.56,0,17.79,2.22,24.69,6.65c6.89,4.43,12.24,10.66,16.04,18.67c3.8,8.02,5.7,17.51,5.7,28.49
		C1410.78,722.81,1408.88,732.27,1405.08,740.36z"/>
	<path d="M1571.79,709.34c4.71-7.24,7.07-16,7.07-26.27c0-15.19-4.89-27.01-14.67-35.45c-9.78-8.44-23.39-12.66-40.83-12.66h-58.87
		V789.2h27.01v-57.6h33.13l26.16,57.6h29.54l-29.33-63.3C1560.15,722.11,1567.08,716.59,1571.79,709.34z M1543.41,701.22
		c-4.78,4.36-11.47,6.54-20.04,6.54h-31.86v-48.74h31.86c8.58,0,15.26,2.08,20.04,6.22c4.78,4.15,7.17,10.1,7.17,17.83
		C1550.59,690.81,1548.19,696.86,1543.41,701.22z"/>
	<path d="M1681.85,757.76l-49.8-122.8h-26.16V789.2h26.16v-55.28c0-9.71-0.11-18.15-0.32-25.32c-0.21-7.17-0.67-13.08-1.37-17.72
		l39.03,98.33h24.9l39.25-98.54c-0.42,2.82-0.71,5.63-0.84,8.44c-0.14,2.82-0.28,6.05-0.42,9.71c-0.14,3.66-0.21,8.12-0.21,13.4
		c0,5.27,0,11.78,0,19.52v47.47h26.16V634.96h-26.59L1681.85,757.76z"/>
	<path d="M1832.36,634.96l-55.7,154.24h27.85l12.66-35.66h57.6l12.45,35.66h28.49L1860,634.96H1832.36z M1824.97,730.76l17.72-49.8
		c0.7-2.11,1.37-4.25,2-6.44c0.63-2.18,1.09-3.97,1.37-5.38c0.14,1.55,0.56,3.38,1.27,5.49c0.7,2.11,1.33,4.22,1.9,6.33l17.72,49.8
		H1824.97z"/>
	<polygon points="1903.67,659.86 1948.83,659.86 1948.83,789.2 1975.83,789.2 1975.83,659.86 2020.99,659.86 2020.99,634.96 
		1903.67,634.96 	"/>
	<rect x="2039.39" y="634.96" width="27.01" height="154.24"/>
	<path d="M2241.44,711.98c0-15.75-3.17-29.61-9.5-41.57c-6.33-11.95-15.09-21.31-26.27-28.06c-11.18-6.75-24.16-10.13-38.93-10.13
		c-14.77,0-27.75,3.38-38.93,10.13c-11.18,6.75-19.94,16.14-26.27,28.17s-9.5,25.92-9.5,41.67c0,15.61,3.13,29.4,9.39,41.36
		c6.26,11.96,15.01,21.31,26.27,28.06c11.25,6.75,24.19,10.13,38.82,10.13c14.62,0,27.5-3.31,38.68-9.92l16.81,19l17.3-15.4
		l-16.43-18.49c3.43-4.05,6.45-8.53,9.05-13.47C2238.27,741.41,2241.44,727.59,2241.44,711.98z M2183.84,722.95l-17.09,15.4
		l20.46,23.11c-5.96,2.86-12.77,4.32-20.46,4.32c-9.43,0-17.62-2.18-24.58-6.54c-6.96-4.36-12.34-10.58-16.14-18.67
		c-3.8-8.09-5.7-17.62-5.7-28.59c0-10.97,1.9-20.47,5.7-28.49s9.18-14.24,16.14-18.67c6.96-4.43,15.16-6.65,24.58-6.65
		c9.56,0,17.79,2.22,24.69,6.65c6.89,4.43,12.24,10.66,16.04,18.67c3.8,8.02,5.7,17.51,5.7,28.49c0,10.83-1.9,20.29-5.7,28.38
		c-0.94,2.01-1.98,3.9-3.12,5.68L2183.84,722.95z"/>
	<path d="M2361.58,731.18c0,10.97-2.95,19.45-8.86,25.43c-5.91,5.98-14.35,8.97-25.32,8.97c-10.83,0-19.2-2.95-25.11-8.86
		s-8.86-14.42-8.86-25.53v-96.22h-27.01v97.9c0,11.96,2.5,22.37,7.49,31.23c4.99,8.86,12.06,15.69,21.21,20.47
		c9.14,4.78,19.9,7.17,32.28,7.17c12.52,0,23.35-2.43,32.49-7.28c9.14-4.85,16.21-11.67,21.21-20.47
		c4.99-8.79,7.49-19.16,7.49-31.12v-97.9h-27.01V731.18z"/>
	<polygon points="2421.29,789.2 2517.09,789.2 2517.09,764.31 2448.3,764.31 2448.3,723.37 2509.91,723.37 2509.91,699.53 
		2448.3,699.53 2448.3,659.86 2517.09,659.86 2517.09,634.96 2421.29,634.96 	"/>
	<path d="M2637.71,717.15c-6.47-6.82-16.32-11.64-29.54-14.45l-24.27-5.49c-6.47-1.55-11.22-3.9-14.24-7.07
		c-3.03-3.17-4.54-7.49-4.54-12.98c0-6.47,2.5-11.57,7.49-15.3c4.99-3.73,11.64-5.59,19.94-5.59c7.6,0,13.64,1.87,18.15,5.59
		c4.5,3.73,6.89,8.9,7.17,15.51h27.01c-0.28-9.28-2.57-17.3-6.86-24.05c-4.29-6.75-10.27-11.96-17.94-15.61
		c-7.67-3.66-16.71-5.49-27.11-5.49c-10.83,0-20.36,1.94-28.59,5.8c-8.23,3.87-14.66,9.25-19.31,16.14
		c-4.64,6.89-6.96,14.84-6.96,23.84c0,11.96,3.38,21.63,10.13,29.01s16.67,12.49,29.75,15.3l24.48,5.49
		c6.33,1.27,10.9,3.48,13.71,6.65c2.81,3.17,4.22,7.42,4.22,12.77c0,6.19-2.64,11.15-7.91,14.88c-5.28,3.73-12.42,5.59-21.42,5.59
		c-8.58,0-15.37-1.86-20.36-5.59c-4.99-3.73-7.56-8.83-7.7-15.3h-27.01c0.28,9.15,2.71,17.09,7.28,23.84
		c4.57,6.75,10.94,11.99,19.1,15.72c8.16,3.73,17.65,5.59,28.48,5.59c11.39,0,21.34-1.94,29.86-5.8
		c8.51-3.87,15.09-9.39,19.73-16.56c4.64-7.17,6.96-15.47,6.96-24.9C2647.42,733.15,2644.18,723.97,2637.71,717.15z"/>
</g>
<g>
	<path d="M504.07,207.45c-5.58-0.35-11.13-0.52-16.64-0.53c-76.81-0.09-146.4,32.63-207.03,97.43
		c-55.12,58.92-73.65,106.33-73.48,163.59c0.08,30.63,5.52,64.07,13.57,103.6c15.13,74.33,59.25,146.08,121.06,196.89
		c47.32,38.89,100.09,58.75,155.7,59.12c28.82,0.19,58.4-4.85,88.39-15.2c96.81-33.42,189.42-129.08,225.2-232.64
		c11.33-32.77,16.83-64.67,16.71-95.02c-0.29-74.18-34.17-139.19-98.92-185.68C650.09,242.59,574.54,211.79,504.07,207.45"/>
	<g>
		<path class="st0" d="M393.54,518.23h-21.29l-0.02,0.6c-0.17,4.14-2.63,40.35-35.03,40.35c-28.96,0-43.65-25.95-43.68-77.14
			c0.03-51.19,14.72-77.14,43.68-77.14c32.96,0,34.96,38.7,35.03,40.34l0.02,0.6h21.29c1.96,0,3.88-0.81,5.25-2.21
			c1.31-1.35,1.99-3.09,1.9-4.91c-0.44-10.04-5.6-60.14-63.79-60.14c-47.02,0-71.87,35.74-71.87,103.35
			c0,67.75,24.85,103.56,71.87,103.56c56.01,0,62.97-45.76,63.78-59.78c0.14-1.93-0.52-3.79-1.88-5.22
			C397.43,519.05,395.5,518.23,393.54,518.23"/>
		<path class="st0" d="M724.31,469.74L724.31,469.74l-18.33-7.99c-17.64-7.75-23.89-15.28-23.89-28.81
			c0-17.63,12.91-29.48,32.1-29.48c11.35,0,20.66,2.32,32.03,13.91l0.62,0.63l9.79-8.95c5.66-5.26,4.03-10,1.66-13.04
			c-9.55-11.26-24.87-17.44-43.17-17.44c-35.28,0-60.89,23.02-60.89,54.73c0,31.18,19.65,44.22,40.88,53.66l18.71,8.35
			c18.8,8.43,27.76,15.62,27.76,33.7c0,24.68-22.29,31.26-35.47,31.26c-11.33,0-23.95-2.43-39.45-19.99l-0.61-0.69l-10.19,8.95
			c-5.25,4.62-5.29,8.57-0.18,15.14c14.03,18.04,34.6,21.83,49.39,21.83c31.98,0,64.36-19.64,64.36-57.18
			C769.44,495.82,751.4,481.4,724.31,469.74"/>
		<path class="st0" d="M543.53,437.78c0-31.94-25.88-59.01-57.84-59.01c-15.03,0-28.72,5.73-39,15.13v-10.98h-19.24
			c-5.8,0-8.01,3.78-8.01,8.13v186.4c0,5.25,3.2,8.05,7.92,8.05h19.25V438.91c0-19.26,15.62-34.87,34.88-34.87
			c19.25,0,34.87,15.61,34.87,34.87v146.62h19.12c5.3,0,8.05-2.95,8.05-8.02V437.78z"/>
		<path class="st0" d="M653.88,392.71c1.01-1.25,1.63-2.81,1.63-4.53c0-3.21-2.09-5.91-4.97-6.88c-5.57-1.86-11.5-2.89-17.66-2.89
			c-15.03,0-28.72,5.73-39,15.13v-10.98h-19.24c-5.8,0-8.02,3.78-8.02,8.13v186.4c0,5.25,3.21,8.05,7.93,8.05h19.24V438.55
			c0-19.26,15.62-34.87,34.88-34.87c5.05,0,9.83,1.09,14.15,3.02l11.12-13.95L653.88,392.71z"/>
	</g>
</g>
</svg>
