<?xml version="1.0" encoding="utf-8"?>
<!-- Generator: $$$/GeneralStr/196=Adobe Illustrator 27.6.0, SVG Export Plug-In . SVG Version: 6.00 Build 0)  -->
<svg version="1.1" id="Calque_1" xmlns="http://www.w3.org/2000/svg" xmlns:xlink="http://www.w3.org/1999/xlink" x="0px" y="0px"
	 viewBox="0 0 1883.26 1554.44" style="enable-background:new 0 0 1883.26 1554.44;" xml:space="preserve">
<style type="text/css">
	.st0{fill:#FFFFFF;}
</style>
<g>
	<g>
		<polygon points="392.35,1008.17 464.94,1117.52 491.52,1117.52 491.52,963.28 464.94,963.28 464.94,1072.79 392.56,963.28 
			365.77,963.28 365.77,1117.52 392.35,1117.52 		"/>
		<path d="M638.91,1092.3c4.99-8.79,7.49-19.17,7.49-31.12v-97.9h-27.01v96.22c0,10.97-2.95,19.45-8.86,25.43
			c-5.91,5.98-14.35,8.97-25.32,8.97c-10.83,0-19.2-2.95-25.11-8.86c-5.91-5.91-8.86-14.42-8.86-25.53v-96.22h-27.01v97.9
			c0,11.96,2.5,22.37,7.49,31.23c4.99,8.86,12.06,15.69,21.21,20.47c9.14,4.78,19.9,7.17,32.28,7.17c12.52,0,23.35-2.43,32.49-7.28
			C626.84,1107.92,633.91,1101.1,638.91,1092.3z"/>
		<path d="M705.85,1110.24c11.04,6.54,24.09,9.81,39.14,9.81c12.24,0,23.32-2.25,33.23-6.75c9.92-4.5,18.15-10.83,24.69-18.99
			c6.54-8.16,10.79-17.58,12.76-28.27h-28.06c-2.53,8.58-7.56,15.4-15.09,20.47c-7.53,5.06-16.56,7.6-27.11,7.6
			c-9.28,0-17.41-2.22-24.37-6.65c-6.96-4.43-12.34-10.69-16.14-18.78c-3.8-8.09-5.7-17.48-5.7-28.17c0-11.11,1.9-20.68,5.7-28.7
			s9.18-14.21,16.14-18.57c6.96-4.36,15.09-6.54,24.37-6.54c10.41,0,19.23,2.5,26.48,7.49c7.24,4.99,12.2,11.99,14.88,20.99h28.48
			c-1.69-11.11-5.7-20.71-12.03-28.8c-6.33-8.09-14.35-14.38-24.05-18.88c-9.71-4.5-20.68-6.75-32.92-6.75
			c-14.91,0-28.06,3.31-39.46,9.92c-11.39,6.61-20.22,15.9-26.48,27.85c-6.26,11.96-9.39,25.95-9.39,41.99
			c0,16.18,3.06,30.21,9.18,42.09C686.23,1094.49,694.81,1103.7,705.85,1110.24z"/>
		<polygon points="931.58,1117.52 931.58,1092.62 867.22,1092.62 867.22,963.28 840.21,963.28 840.21,1117.52 844.86,1117.52 
			867.22,1117.52 		"/>
		<polygon points="1046.55,1092.62 977.76,1092.62 977.76,1051.69 1039.38,1051.69 1039.38,1027.84 977.76,1027.84 977.76,988.17 
			1046.55,988.17 1046.55,963.28 950.76,963.28 950.76,1117.52 1046.55,1117.52 		"/>
		<polygon points="1028.4,921.08 1004.56,921.08 988.74,952.3 1007.94,952.3 		"/>
		<path d="M1145.68,963.28h-27.64l-55.7,154.24h27.85l12.66-35.66h57.6l12.45,35.66h28.49L1145.68,963.28z M1110.65,1059.07
			l17.72-49.8c0.7-2.11,1.37-4.25,2-6.44c0.63-2.18,1.09-3.97,1.37-5.38c0.14,1.55,0.56,3.38,1.27,5.49c0.7,2.11,1.33,4.22,1.9,6.33
			l17.72,49.8H1110.65z"/>
		<rect x="1219.67" y="963.28" width="27.01" height="154.24"/>
		<path d="M1396.15,1117.52l-29.33-63.3c9.14-3.8,16.07-9.32,20.78-16.56c4.71-7.24,7.07-16,7.07-26.27
			c0-15.19-4.89-27.01-14.67-35.45c-9.78-8.44-23.39-12.66-40.83-12.66h-58.87v154.24h27.01v-57.6h33.13l26.16,57.6H1396.15z
			 M1359.23,1029.53c-4.78,4.36-11.47,6.54-20.04,6.54h-31.86v-48.74h31.86c8.58,0,15.26,2.08,20.04,6.22
			c4.78,4.15,7.17,10.09,7.17,17.83C1366.4,1019.12,1364.01,1025.17,1359.23,1029.53z"/>
		<polygon points="1517.5,1092.62 1448.71,1092.62 1448.71,1051.69 1510.33,1051.69 1510.33,1027.84 1448.71,1027.84 
			1448.71,988.17 1517.5,988.17 1517.5,963.28 1421.7,963.28 1421.7,1117.52 1517.5,1117.52 		"/>
	</g>
	<g>
		<path d="M327.61,1314.07c6.05-11.46,9.07-24.86,9.07-40.2h-25.11c0,10.08-1.38,18.82-4.12,26.25l-31.11-34.84
			c9.02-6.06,15.7-12.09,20.04-18.1c4.92-6.82,7.38-14.31,7.38-22.47c0-6.75-1.62-12.69-4.85-17.83c-3.24-5.13-7.7-9.11-13.4-11.92
			c-5.7-2.81-12.34-4.22-19.94-4.22c-7.6,0-14.35,1.51-20.26,4.54c-5.91,3.03-10.59,7.17-14.03,12.45
			c-3.45,5.27-5.17,11.36-5.17,18.25c0,6.05,1.4,11.85,4.22,17.41c2.56,5.05,6.76,10.95,12.57,17.69
			c-6.43,3.15-12.03,6.57-16.79,10.27c-6.33,4.93-11.11,10.34-14.35,16.25c-3.24,5.91-4.85,12.24-4.85,18.99
			c0,8.72,2.35,16.32,7.07,22.79c4.71,6.47,11.29,11.57,19.73,15.3c8.44,3.73,18.21,5.59,29.33,5.59c14.91,0,27.88-3.17,38.93-9.5
			c2.62-1.5,5.09-3.15,7.43-4.94l10.4,11.69h29.96l-25.2-28.23C325.64,1317.61,326.66,1315.88,327.61,1314.07z M254.6,1215.12
			c2.67-2.6,6.33-3.9,10.97-3.9c4.5,0,7.98,1.27,10.44,3.8c2.46,2.53,3.69,6.05,3.69,10.55c0,5.77-1.58,10.97-4.75,15.61
			c-2.57,3.77-6.29,7.11-11.12,10.04c-2.95-3.48-5.37-6.54-7.23-9.19c-2.18-3.09-3.73-5.91-4.64-8.44
			c-0.92-2.53-1.37-5.13-1.37-7.81C250.59,1221.27,251.93,1217.72,254.6,1215.12z M266,1328.11c-9.85,0-17.62-2.11-23.32-6.33
			s-8.55-10.13-8.55-17.72c0-4.5,0.91-8.58,2.74-12.24c1.83-3.66,4.67-7.1,8.55-10.34c2.69-2.25,5.96-4.43,9.77-6.55l39.24,44.09
			C287.04,1325.07,277.56,1328.11,266,1328.11z"/>
		<path d="M540.72,1217.23c-4.22-7.52-10.13-13.4-17.72-17.62s-16.6-6.33-27.01-6.33h-33.97h-9.07H435v154.24h27.01v-53.17h33.97
			c10.41,0,19.41-2.14,27.01-6.44c7.6-4.29,13.5-10.27,17.72-17.94c4.22-7.67,6.33-16.42,6.33-26.27
			C547.05,1233.58,544.94,1224.75,540.72,1217.23z M511.49,1263.22c-4.85,4.71-11.92,7.07-21.21,7.07h-28.27v-52.96h28.7
			c9,0,15.93,2.25,20.78,6.75c4.85,4.5,7.28,10.97,7.28,19.41C518.77,1251.94,516.35,1258.51,511.49,1263.22z"/>
		<path d="M598.49,1193.28l-55.7,154.24h27.85l12.66-35.66h57.6l12.45,35.66h28.49l-55.7-154.24H598.49z M591.1,1289.07l17.72-49.8
			c0.7-2.11,1.37-4.25,2-6.44c0.63-2.18,1.09-3.97,1.37-5.38c0.14,1.55,0.56,3.38,1.27,5.49c0.7,2.11,1.33,4.22,1.9,6.33l17.72,49.8
			H591.1z"/>
		<path d="M807.42,1267.65c4.71-7.24,7.07-16,7.07-26.27c0-15.19-4.89-27.01-14.67-35.45c-9.78-8.44-23.39-12.66-40.83-12.66h-58.87
			v154.24h27.01v-57.6h33.13l26.16,57.6h29.54l-29.33-63.3C795.78,1280.42,802.7,1274.9,807.42,1267.65z M779.04,1259.53
			c-4.78,4.36-11.47,6.54-20.04,6.54h-31.86v-48.74h31.86c8.58,0,15.26,2.08,20.04,6.22c4.78,4.15,7.17,10.1,7.17,17.83
			C786.21,1249.12,783.82,1255.17,779.04,1259.53z"/>
		<polygon points="828.73,1218.18 873.88,1218.18 873.88,1347.52 900.89,1347.52 900.89,1218.18 946.04,1218.18 946.04,1193.28 
			828.73,1193.28 		"/>
		<rect x="964.44" y="1193.28" width="27.01" height="154.24"/>
		<path d="M1119.1,1316.5c-7.53,5.06-16.56,7.6-27.11,7.6c-9.28,0-17.41-2.22-24.37-6.65s-12.34-10.69-16.14-18.78
			c-3.8-8.09-5.7-17.48-5.7-28.17c0-11.11,1.9-20.68,5.7-28.7s9.18-14.21,16.14-18.57c6.96-4.36,15.09-6.54,24.37-6.54
			c10.41,0,19.23,2.5,26.48,7.49c7.24,4.99,12.2,11.99,14.88,20.99h28.48c-1.69-11.11-5.7-20.71-12.03-28.8
			c-6.33-8.09-14.35-14.38-24.05-18.88c-9.71-4.5-20.68-6.75-32.92-6.75c-14.91,0-28.06,3.31-39.46,9.92
			c-11.39,6.61-20.22,15.9-26.48,27.85c-6.26,11.96-9.39,25.95-9.39,41.99c0,16.18,3.06,30.21,9.18,42.09
			c6.12,11.89,14.7,21.1,25.74,27.64c11.04,6.54,24.09,9.81,39.14,9.81c12.24,0,23.32-2.25,33.23-6.75
			c9.92-4.5,18.15-10.83,24.69-18.99c6.54-8.16,10.79-17.58,12.76-28.27h-28.06C1131.66,1304.62,1126.63,1311.44,1119.1,1316.5z"/>
		<path d="M1279.97,1289.49c0,10.97-2.95,19.45-8.86,25.43c-5.91,5.98-14.35,8.97-25.32,8.97c-10.83,0-19.2-2.95-25.11-8.86
			s-8.86-14.42-8.86-25.53v-96.22h-27.01v97.9c0,11.96,2.5,22.37,7.49,31.23c4.99,8.86,12.06,15.69,21.21,20.47
			c9.14,4.78,19.9,7.17,32.28,7.17c12.52,0,23.35-2.43,32.49-7.28c9.14-4.85,16.21-11.67,21.21-20.47
			c4.99-8.79,7.49-19.16,7.49-31.12v-97.9h-27.01V1289.49z"/>
		<polygon points="1366.69,1193.28 1339.68,1193.28 1339.68,1347.52 1344.32,1347.52 1366.69,1347.52 1431.04,1347.52 
			1431.04,1322.62 1366.69,1322.62 		"/>
		<polygon points="1450.22,1347.52 1546.01,1347.52 1546.01,1322.62 1477.23,1322.62 1477.23,1281.69 1538.84,1281.69 
			1538.84,1257.84 1477.23,1257.84 1477.23,1218.18 1546.01,1218.18 1546.01,1193.28 1450.22,1193.28 		"/>
		<path d="M1666.64,1275.46c-6.47-6.82-16.32-11.64-29.54-14.45l-24.27-5.49c-6.47-1.55-11.22-3.9-14.24-7.07
			c-3.03-3.17-4.54-7.49-4.54-12.98c0-6.47,2.5-11.57,7.49-15.3c4.99-3.73,11.64-5.59,19.94-5.59c7.6,0,13.64,1.87,18.15,5.59
			c4.5,3.73,6.89,8.9,7.17,15.51h27.01c-0.28-9.28-2.57-17.3-6.86-24.05c-4.29-6.75-10.27-11.96-17.94-15.61
			c-7.67-3.66-16.71-5.49-27.11-5.49c-10.83,0-20.36,1.94-28.59,5.8c-8.23,3.87-14.66,9.25-19.31,16.14
			c-4.64,6.89-6.96,14.84-6.96,23.84c0,11.96,3.38,21.63,10.13,29.01s16.67,12.49,29.75,15.3l24.48,5.49
			c6.33,1.27,10.9,3.48,13.71,6.65c2.81,3.17,4.22,7.42,4.22,12.77c0,6.19-2.64,11.15-7.91,14.88c-5.28,3.73-12.42,5.59-21.42,5.59
			c-8.58,0-15.37-1.86-20.36-5.59c-4.99-3.73-7.56-8.83-7.7-15.3h-27.01c0.28,9.15,2.71,17.09,7.28,23.84
			c4.57,6.75,10.94,11.99,19.1,15.72c8.16,3.73,17.65,5.59,28.48,5.59c11.39,0,21.34-1.94,29.86-5.8
			c8.51-3.87,15.09-9.39,19.73-16.56c4.64-7.17,6.96-15.47,6.96-24.9C1676.35,1291.46,1673.11,1282.29,1666.64,1275.46z"/>
	</g>
</g>
<g>
	<path d="M928.47,207.45c-5.58-0.35-11.13-0.52-16.64-0.53c-76.81-0.09-146.4,32.63-207.03,97.43
		c-55.12,58.92-73.65,106.33-73.48,163.59c0.08,30.63,5.52,64.07,13.57,103.6c15.13,74.33,59.25,146.08,121.06,196.89
		c47.32,38.89,100.09,58.75,155.7,59.12c28.82,0.19,58.4-4.85,88.39-15.2c96.81-33.42,189.42-129.08,225.2-232.64
		c11.33-32.77,16.83-64.67,16.71-95.02c-0.29-74.18-34.17-139.19-98.92-185.68C1074.49,242.59,998.94,211.79,928.47,207.45"/>
	<g>
		<path class="st0" d="M817.94,518.23h-21.29l-0.02,0.6c-0.17,4.14-2.63,40.35-35.03,40.35c-28.96,0-43.65-25.95-43.68-77.14
			c0.03-51.19,14.72-77.14,43.68-77.14c32.96,0,34.96,38.7,35.03,40.34l0.02,0.6h21.29c1.96,0,3.88-0.81,5.25-2.21
			c1.31-1.35,1.99-3.09,1.9-4.91c-0.44-10.04-5.6-60.14-63.79-60.14c-47.02,0-71.87,35.74-71.87,103.35
			c0,67.75,24.85,103.56,71.87,103.56c56.01,0,62.97-45.76,63.78-59.78c0.14-1.93-0.52-3.79-1.88-5.22
			C821.83,519.05,819.91,518.23,817.94,518.23"/>
		<path class="st0" d="M1148.71,469.74L1148.71,469.74l-18.33-7.99c-17.64-7.75-23.89-15.28-23.89-28.81
			c0-17.63,12.91-29.48,32.1-29.48c11.35,0,20.66,2.32,32.03,13.91l0.62,0.63l9.79-8.95c5.66-5.26,4.03-10,1.66-13.04
			c-9.55-11.26-24.87-17.44-43.17-17.44c-35.28,0-60.89,23.02-60.89,54.73c0,31.18,19.65,44.22,40.88,53.66l18.71,8.35
			c18.8,8.43,27.76,15.62,27.76,33.7c0,24.68-22.29,31.26-35.47,31.26c-11.33,0-23.95-2.43-39.45-19.99l-0.61-0.69l-10.19,8.95
			c-5.25,4.62-5.29,8.57-0.18,15.14c14.03,18.04,34.6,21.83,49.39,21.83c31.98,0,64.36-19.64,64.36-57.18
			C1193.84,495.82,1175.8,481.4,1148.71,469.74"/>
		<path class="st0" d="M967.93,437.78c0-31.94-25.88-59.01-57.84-59.01c-15.03,0-28.72,5.73-39,15.13v-10.98h-19.24
			c-5.8,0-8.01,3.78-8.01,8.13v186.4c0,5.25,3.2,8.05,7.92,8.05H871V438.91c0-19.26,15.62-34.87,34.88-34.87
			c19.25,0,34.87,15.61,34.87,34.87v146.62h19.12c5.3,0,8.05-2.95,8.05-8.02V437.78z"/>
		<path class="st0" d="M1078.28,392.71c1.01-1.25,1.63-2.81,1.63-4.53c0-3.21-2.09-5.91-4.97-6.88c-5.57-1.86-11.5-2.89-17.66-2.89
			c-15.03,0-28.72,5.73-39,15.13v-10.98h-19.24c-5.8,0-8.02,3.78-8.02,8.13v186.4c0,5.25,3.21,8.05,7.93,8.05h19.24V438.55
			c0-19.26,15.62-34.87,34.88-34.87c5.05,0,9.83,1.09,14.15,3.02l11.12-13.95L1078.28,392.71z"/>
	</g>
</g>
</svg>
