<?xml version="1.0" encoding="utf-8"?>
<!-- Generator: $$$/GeneralStr/196=Adobe Illustrator 27.6.0, SVG Export Plug-In . SVG Version: 6.00 Build 0)  -->
<svg version="1.1" id="Calque_1" xmlns="http://www.w3.org/2000/svg" xmlns:xlink="http://www.w3.org/1999/xlink" x="0px" y="0px"
	 viewBox="0 0 2981.58 1034.47" style="enable-background:new 0 0 2981.58 1034.47;" xml:space="preserve">
<style type="text/css">
	.st0{fill:#FFFFFF;}
	.st1{fill:#00284B;}
</style>
<g>
	<polygon class="st0" points="1041.05,362.76 1017.21,362.76 1001.38,393.99 1020.58,393.99 	"/>
	<polygon class="st0" points="963.4,559.2 1059.19,559.2 1059.19,534.31 990.41,534.31 990.41,493.37 1052.02,493.37 
		1052.02,469.53 990.41,469.53 990.41,429.86 1059.19,429.86 1059.19,404.96 963.4,404.96 	"/>
	<path class="st0" d="M1179.36,528.19c-7.53,5.06-16.56,7.6-27.11,7.6c-9.28,0-17.41-2.22-24.37-6.65
		c-6.96-4.43-12.34-10.69-16.14-18.78c-3.8-8.09-5.7-17.48-5.7-28.17c0-11.11,1.9-20.68,5.7-28.7s9.18-14.21,16.14-18.57
		c6.96-4.36,15.09-6.54,24.37-6.54c10.41,0,19.23,2.5,26.48,7.49c7.24,4.99,12.2,11.99,14.88,20.99h28.48
		c-1.69-11.11-5.7-20.71-12.03-28.8c-6.33-8.09-14.35-14.38-24.05-18.88c-9.71-4.5-20.68-6.75-32.92-6.75
		c-14.91,0-28.06,3.31-39.46,9.92c-11.39,6.61-20.22,15.9-26.48,27.85c-6.26,11.96-9.39,25.95-9.39,41.99
		c0,16.18,3.06,30.21,9.18,42.09c6.12,11.89,14.7,21.1,25.74,27.64c11.04,6.54,24.09,9.81,39.14,9.81c12.24,0,23.32-2.25,33.23-6.75
		c9.92-4.5,18.15-10.83,24.69-18.99c6.54-8.16,10.79-17.58,12.76-28.27h-28.06C1191.91,516.3,1186.88,523.12,1179.36,528.19z"/>
	<path class="st0" d="M1351.93,412.35c-11.18-6.75-24.16-10.13-38.93-10.13c-14.77,0-27.75,3.38-38.93,10.13
		c-11.18,6.75-19.94,16.14-26.27,28.17s-9.5,25.92-9.5,41.67c0,15.61,3.13,29.4,9.39,41.36c6.26,11.96,15.01,21.31,26.27,28.06
		c11.25,6.75,24.19,10.13,38.82,10.13c14.77,0,27.78-3.38,39.04-10.13c11.25-6.75,20.04-16.14,26.38-28.17
		c6.33-12.03,9.5-25.85,9.5-41.46c0-15.75-3.17-29.61-9.5-41.57C1371.87,428.46,1363.12,419.1,1351.93,412.35z M1353.73,510.36
		c-3.8,8.09-9.15,14.35-16.04,18.78c-6.89,4.43-15.12,6.65-24.69,6.65c-9.43,0-17.62-2.18-24.58-6.54
		c-6.96-4.36-12.34-10.58-16.14-18.67c-3.8-8.09-5.7-17.62-5.7-28.59s1.9-20.47,5.7-28.48s9.18-14.24,16.14-18.67
		c6.96-4.43,15.16-6.65,24.58-6.65c9.56,0,17.79,2.22,24.69,6.65c6.89,4.43,12.24,10.66,16.04,18.67c3.8,8.02,5.7,17.51,5.7,28.48
		C1359.42,492.81,1357.52,502.27,1353.73,510.36z"/>
	<polygon class="st0" points="1504.51,534.31 1440.15,534.31 1440.15,404.96 1413.14,404.96 1413.14,559.2 1417.79,559.2 
		1440.15,559.2 1504.51,559.2 	"/>
	<path class="st0" d="M1549.34,551.61c11.25,6.75,24.19,10.13,38.82,10.13c14.77,0,27.78-3.38,39.04-10.13
		c11.25-6.75,20.04-16.14,26.38-28.17c6.33-12.03,9.5-25.85,9.5-41.46c0-15.75-3.17-29.61-9.5-41.57
		c-6.33-11.95-15.09-21.31-26.27-28.06s-24.16-10.13-38.93-10.13c-14.77,0-27.75,3.38-38.93,10.13
		c-11.18,6.75-19.94,16.14-26.27,28.17s-9.5,25.92-9.5,41.67c0,15.61,3.13,29.4,9.39,41.36
		C1529.33,535.5,1538.09,544.86,1549.34,551.61z M1547.65,453.49c3.8-8.02,9.18-14.24,16.14-18.67c6.96-4.43,15.16-6.65,24.58-6.65
		c9.56,0,17.79,2.22,24.69,6.65c6.89,4.43,12.24,10.66,16.04,18.67c3.8,8.02,5.7,17.51,5.7,28.48c0,10.83-1.9,20.29-5.7,28.38
		c-3.8,8.09-9.15,14.35-16.04,18.78c-6.89,4.43-15.12,6.65-24.69,6.65c-9.43,0-17.62-2.18-24.58-6.54
		c-6.96-4.36-12.34-10.58-16.14-18.67c-3.8-8.09-5.7-17.62-5.7-28.59S1543.86,461.51,1547.65,453.49z"/>
	<path class="st0" d="M1792.31,549.92c3.35-2.52,6.06-5.29,8.17-8.28l1.64,17.57h22.79v-86.72h-71.74v23.84h46.63v0.63
		c0,6.05-1.02,11.54-3.06,16.46c-2.04,4.93-4.89,9.11-8.55,12.55c-3.66,3.45-8.12,6.05-13.4,7.81c-5.27,1.76-11.36,2.64-18.25,2.64
		c-9.43,0-17.76-2.04-25-6.12c-7.25-4.08-12.91-10.09-16.99-18.04c-4.08-7.95-6.12-17.62-6.12-29.01c0-11.25,1.9-20.99,5.7-29.22
		s9.28-14.66,16.46-19.31c7.17-4.64,15.83-6.96,25.95-6.96c9.28,0,17.51,2.15,24.69,6.44c7.17,4.29,11.96,11.01,14.35,20.15h28.48
		c-1.41-10.55-5.17-19.69-11.29-27.43c-6.12-7.73-13.96-13.75-23.53-18.04c-9.57-4.29-20.26-6.44-32.07-6.44
		c-15.33,0-28.8,3.45-40.41,10.34c-11.61,6.89-20.61,16.35-27.01,28.38c-6.4,12.03-9.6,25.85-9.6,41.46
		c0,15.9,3.13,29.75,9.39,41.57c6.26,11.82,14.91,21,25.95,27.54c11.04,6.54,23.74,9.81,38.09,9.81c7.73,0,14.91-1.02,21.52-3.06
		C1781.72,556.43,1787.45,553.58,1792.31,549.92z"/>
	<rect x="1855.37" y="404.96" class="st0" width="27.01" height="154.24"/>
	<polygon class="st0" points="2011.81,534.31 1943.02,534.31 1943.02,493.37 2004.63,493.37 2004.63,469.53 1943.02,469.53 
		1943.02,429.86 2011.81,429.86 2011.81,404.96 1916.01,404.96 1916.01,559.2 2011.81,559.2 	"/>
	<path class="st0" d="M2211.83,559.2h29.96l-25.2-28.23c1.08-1.68,2.1-3.41,3.05-5.22c6.05-11.46,9.07-24.86,9.07-40.2h-25.11
		c0,10.08-1.38,18.82-4.12,26.25l-31.11-34.84c9.02-6.06,15.7-12.09,20.04-18.1c4.92-6.82,7.38-14.31,7.38-22.47
		c0-6.75-1.62-12.69-4.85-17.83c-3.24-5.13-7.7-9.11-13.4-11.92c-5.7-2.81-12.34-4.22-19.94-4.22c-7.6,0-14.35,1.51-20.26,4.54
		c-5.91,3.03-10.59,7.17-14.03,12.45c-3.45,5.27-5.17,11.36-5.17,18.25c0,6.05,1.4,11.85,4.22,17.41
		c2.56,5.05,6.76,10.95,12.57,17.69c-6.43,3.15-12.03,6.57-16.79,10.27c-6.33,4.93-11.11,10.34-14.35,16.25
		c-3.24,5.91-4.85,12.24-4.85,18.99c0,8.72,2.35,16.32,7.07,22.79c4.71,6.47,11.29,11.57,19.73,15.3
		c8.44,3.73,18.21,5.59,29.33,5.59c14.91,0,27.88-3.17,38.93-9.5c2.62-1.5,5.09-3.15,7.43-4.94L2211.83,559.2z M2146.63,426.8
		c2.67-2.6,6.33-3.9,10.97-3.9c4.5,0,7.98,1.27,10.44,3.8c2.46,2.53,3.69,6.05,3.69,10.55c0,5.77-1.58,10.97-4.75,15.61
		c-2.57,3.77-6.29,7.11-11.12,10.04c-2.95-3.48-5.37-6.54-7.23-9.2c-2.18-3.09-3.73-5.91-4.64-8.44c-0.92-2.53-1.37-5.13-1.37-7.81
		C2142.62,432.96,2143.96,429.41,2146.63,426.8z M2158.03,539.79c-9.85,0-17.62-2.11-23.32-6.33c-5.7-4.22-8.55-10.13-8.55-17.72
		c0-4.5,0.91-8.58,2.74-12.24c1.83-3.66,4.67-7.1,8.55-10.34c2.69-2.25,5.96-4.43,9.77-6.55l39.24,44.09
		C2179.07,536.76,2169.59,539.79,2158.03,539.79z"/>
	<polygon class="st0" points="963.4,789.2 1059.19,789.2 1059.19,764.31 990.41,764.31 990.41,723.37 1052.02,723.37 
		1052.02,699.53 990.41,699.53 990.41,659.86 1059.19,659.86 1059.19,634.96 963.4,634.96 	"/>
	<polygon class="st0" points="1187.52,744.47 1115.15,634.96 1088.35,634.96 1088.35,789.2 1114.94,789.2 1114.94,679.85 
		1187.52,789.2 1214.11,789.2 1214.11,634.96 1187.52,634.96 	"/>
	<path class="st0" d="M1312.65,723.79c-1.41,3.94-2.95,8.37-4.64,13.29c-1.69,4.93-3.45,10.76-5.27,17.51
		c-1.69-6.19-3.31-11.74-4.85-16.67c-1.55-4.92-3.17-9.63-4.85-14.14l-33.76-88.83h-28.7l58.24,154.24h27.85l57.39-154.24h-28.06
		L1312.65,723.79z"/>
	<rect x="1390.4" y="634.96" class="st0" width="27.01" height="154.24"/>
	<path class="st0" d="M1558.33,709.34c4.71-7.24,7.07-16,7.07-26.27c0-15.19-4.89-27.01-14.67-35.45
		c-9.78-8.44-23.39-12.66-40.83-12.66h-58.87V789.2h27.01v-57.6h33.13l26.16,57.6h29.54l-29.33-63.3
		C1546.69,722.11,1553.62,716.59,1558.33,709.34z M1529.95,701.22c-4.78,4.36-11.47,6.54-20.04,6.54h-31.86v-48.74h31.86
		c8.58,0,15.26,2.08,20.04,6.22c4.78,4.15,7.17,10.1,7.17,17.83C1537.13,690.81,1534.73,696.86,1529.95,701.22z"/>
	<path class="st0" d="M1696.37,642.35c-11.18-6.75-24.16-10.13-38.93-10.13c-14.77,0-27.75,3.38-38.93,10.13
		c-11.18,6.75-19.94,16.14-26.27,28.17s-9.5,25.92-9.5,41.67c0,15.61,3.13,29.4,9.39,41.36c6.26,11.96,15.01,21.31,26.27,28.06
		c11.25,6.75,24.19,10.13,38.82,10.13c14.77,0,27.78-3.38,39.04-10.13c11.25-6.75,20.04-16.14,26.38-28.17
		c6.33-12.03,9.5-25.85,9.5-41.46c0-15.75-3.17-29.61-9.5-41.57C1716.31,658.46,1707.55,649.1,1696.37,642.35z M1698.16,740.36
		c-3.8,8.09-9.15,14.35-16.04,18.78c-6.89,4.43-15.12,6.65-24.69,6.65c-9.43,0-17.62-2.18-24.58-6.54
		c-6.96-4.36-12.34-10.58-16.14-18.67c-3.8-8.09-5.7-17.62-5.7-28.59c0-10.97,1.9-20.47,5.7-28.49s9.18-14.24,16.14-18.67
		c6.96-4.43,15.16-6.65,24.58-6.65c9.56,0,17.79,2.22,24.69,6.65c6.89,4.43,12.24,10.66,16.04,18.67c3.8,8.02,5.7,17.51,5.7,28.49
		C1703.86,722.81,1701.96,732.27,1698.16,740.36z"/>
	<polygon class="st0" points="1856.75,744.47 1784.37,634.96 1757.58,634.96 1757.58,789.2 1784.16,789.2 1784.16,679.85 
		1856.75,789.2 1883.33,789.2 1883.33,634.96 1856.75,634.96 	"/>
	<polygon class="st0" points="2016.26,744.47 1943.89,634.96 1917.09,634.96 1917.09,789.2 1943.68,789.2 1943.68,679.85 
		2016.26,789.2 2042.85,789.2 2042.85,634.96 2016.26,634.96 	"/>
	<polygon class="st0" points="2076.61,789.2 2172.4,789.2 2172.4,764.31 2103.62,764.31 2103.62,723.37 2165.23,723.37 
		2165.23,699.53 2103.62,699.53 2103.62,659.86 2172.4,659.86 2172.4,634.96 2076.61,634.96 	"/>
	<path class="st0" d="M2277.52,757.76l-49.8-122.8h-26.16V789.2h26.16v-55.28c0-9.71-0.11-18.15-0.32-25.32
		c-0.21-7.17-0.67-13.08-1.37-17.72l39.03,98.33h24.9l39.25-98.54c-0.42,2.82-0.71,5.63-0.84,8.44c-0.14,2.82-0.28,6.05-0.42,9.71
		c-0.14,3.66-0.21,8.12-0.21,13.4c0,5.27,0,11.78,0,19.52v47.47h26.16V634.96h-26.59L2277.52,757.76z"/>
	<polygon class="st0" points="2387.66,789.2 2483.46,789.2 2483.46,764.31 2414.67,764.31 2414.67,723.37 2476.28,723.37 
		2476.28,699.53 2414.67,699.53 2414.67,659.86 2483.46,659.86 2483.46,634.96 2387.66,634.96 	"/>
	<polygon class="st0" points="2611.78,744.47 2539.41,634.96 2512.61,634.96 2512.61,789.2 2539.2,789.2 2539.2,679.85 
		2611.78,789.2 2638.37,789.2 2638.37,634.96 2611.78,634.96 	"/>
	<polygon class="st0" points="2774.09,634.96 2656.77,634.96 2656.77,659.86 2701.92,659.86 2701.92,789.2 2728.93,789.2 
		2728.93,659.86 2774.09,659.86 	"/>
</g>
<g>
	<path class="st0" d="M504.07,207.45c-5.58-0.35-11.13-0.52-16.64-0.53c-76.81-0.09-146.4,32.63-207.03,97.43
		c-55.12,58.92-73.65,106.33-73.48,163.59c0.08,30.63,5.52,64.07,13.57,103.6c15.13,74.33,59.25,146.08,121.06,196.89
		c47.32,38.89,100.09,58.75,155.7,59.12c28.82,0.19,58.4-4.85,88.39-15.2c96.81-33.42,189.42-129.08,225.2-232.64
		c11.33-32.77,16.83-64.67,16.71-95.02c-0.29-74.18-34.17-139.19-98.92-185.68C650.09,242.59,574.54,211.79,504.07,207.45"/>
	<g>
		<path class="st1" d="M393.54,518.23h-21.29l-0.02,0.6c-0.17,4.14-2.63,40.35-35.03,40.35c-28.96,0-43.65-25.95-43.68-77.14
			c0.03-51.19,14.72-77.14,43.68-77.14c32.96,0,34.96,38.7,35.03,40.34l0.02,0.6h21.29c1.96,0,3.88-0.81,5.25-2.21
			c1.31-1.35,1.99-3.09,1.9-4.91c-0.44-10.04-5.6-60.14-63.79-60.14c-47.02,0-71.87,35.74-71.87,103.35
			c0,67.75,24.85,103.56,71.87,103.56c56.01,0,62.97-45.76,63.78-59.78c0.14-1.93-0.52-3.79-1.88-5.22
			C397.43,519.05,395.5,518.23,393.54,518.23"/>
		<path class="st1" d="M724.31,469.74L724.31,469.74l-18.33-7.99c-17.64-7.75-23.89-15.28-23.89-28.81
			c0-17.63,12.91-29.48,32.1-29.48c11.35,0,20.66,2.32,32.03,13.91l0.62,0.63l9.79-8.95c5.66-5.26,4.03-10,1.66-13.04
			c-9.55-11.26-24.87-17.44-43.17-17.44c-35.28,0-60.89,23.02-60.89,54.73c0,31.18,19.65,44.22,40.88,53.66l18.71,8.35
			c18.8,8.43,27.76,15.62,27.76,33.7c0,24.68-22.29,31.26-35.47,31.26c-11.33,0-23.95-2.43-39.45-19.99l-0.61-0.69l-10.19,8.95
			c-5.25,4.62-5.29,8.57-0.18,15.14c14.03,18.04,34.6,21.83,49.39,21.83c31.98,0,64.36-19.64,64.36-57.18
			C769.44,495.82,751.4,481.4,724.31,469.74"/>
		<path class="st1" d="M543.53,437.78c0-31.94-25.88-59.01-57.84-59.01c-15.03,0-28.72,5.73-39,15.13v-10.98h-19.24
			c-5.8,0-8.01,3.78-8.01,8.13v186.4c0,5.25,3.2,8.05,7.92,8.05h19.25V438.91c0-19.26,15.62-34.87,34.88-34.87
			c19.25,0,34.87,15.61,34.87,34.87v146.62h19.12c5.3,0,8.05-2.95,8.05-8.02V437.78z"/>
		<path class="st1" d="M653.88,392.71c1.01-1.25,1.63-2.81,1.63-4.53c0-3.21-2.09-5.91-4.97-6.88c-5.57-1.86-11.5-2.89-17.66-2.89
			c-15.03,0-28.72,5.73-39,15.13v-10.98h-19.24c-5.8,0-8.02,3.78-8.02,8.13v186.4c0,5.25,3.21,8.05,7.93,8.05h19.24V438.55
			c0-19.26,15.62-34.87,34.88-34.87c5.05,0,9.83,1.09,14.15,3.02l11.12-13.95L653.88,392.71z"/>
	</g>
</g>
</svg>
