<?xml version="1.0" encoding="utf-8"?>
<!-- Generator: $$$/GeneralStr/196=Adobe Illustrator 27.6.0, SVG Export Plug-In . SVG Version: 6.00 Build 0)  -->
<svg version="1.1" id="Calque_1" xmlns="http://www.w3.org/2000/svg" xmlns:xlink="http://www.w3.org/1999/xlink" x="0px" y="0px"
	 viewBox="0 0 1569.43 1324.44" style="enable-background:new 0 0 1569.43 1324.44;" xml:space="preserve">
<style type="text/css">
	.st0{fill:#FFFFFF;}
</style>
<g>
	<rect x="206.92" y="963.28" width="27.01" height="154.24"/>
	<polygon points="366.73,1072.79 294.35,963.28 267.56,963.28 267.56,1117.52 294.14,1117.52 294.14,1008.17 366.73,1117.52 
		393.31,1117.52 393.31,963.28 366.73,963.28 	"/>
	<path d="M492.21,1054.64h46.63v0.63c0,6.05-1.02,11.54-3.06,16.46c-2.04,4.93-4.89,9.11-8.55,12.55c-3.66,3.45-8.12,6.05-13.4,7.81
		c-5.27,1.76-11.36,2.64-18.25,2.64c-9.43,0-17.76-2.04-25-6.12c-7.25-4.08-12.91-10.09-16.99-18.04
		c-4.08-7.95-6.12-17.62-6.12-29.01c0-11.25,1.9-20.99,5.7-29.22s9.28-14.66,16.46-19.31c7.17-4.64,15.83-6.96,25.95-6.96
		c9.28,0,17.51,2.15,24.69,6.44c7.17,4.29,11.96,11.01,14.35,20.15h28.48c-1.41-10.55-5.17-19.69-11.29-27.43
		c-6.12-7.73-13.96-13.75-23.53-18.04c-9.57-4.29-20.26-6.44-32.07-6.44c-15.33,0-28.8,3.45-40.41,10.34
		c-11.61,6.89-20.61,16.35-27.01,28.38c-6.4,12.03-9.6,25.85-9.6,41.46c0,15.9,3.13,29.75,9.39,41.57
		c6.26,11.82,14.91,21,25.95,27.54c11.04,6.54,23.74,9.81,38.09,9.81c7.73,0,14.91-1.02,21.52-3.06c6.61-2.04,12.34-4.89,17.2-8.55
		c3.35-2.52,6.06-5.29,8.17-8.28l1.64,17.57h22.79v-86.72h-71.74V1054.64z"/>
	<polygon points="594.33,1117.52 690.12,1117.52 690.12,1092.62 621.34,1092.62 621.34,1051.69 682.95,1051.69 682.95,1027.84 
		621.34,1027.84 621.34,988.17 690.12,988.17 690.12,963.28 594.33,963.28 	"/>
	<polygon points="671.98,921.08 648.14,921.08 632.31,952.3 651.51,952.3 	"/>
	<polygon points="818.45,1072.79 746.08,963.28 719.28,963.28 719.28,1117.52 745.87,1117.52 745.87,1008.17 818.45,1117.52 
		845.04,1117.52 845.04,963.28 818.45,963.28 	"/>
	<rect x="878.78" y="963.28" width="27.01" height="154.24"/>
	<polygon points="939.42,1117.52 1035.21,1117.52 1035.21,1092.62 966.43,1092.62 966.43,1051.69 1028.04,1051.69 1028.04,1027.84 
		966.43,1027.84 966.43,988.17 1035.21,988.17 1035.21,963.28 939.42,963.28 	"/>
	<path d="M1171.67,1037.65c4.71-7.24,7.07-16,7.07-26.27c0-15.19-4.89-27.01-14.67-35.45c-9.78-8.44-23.39-12.66-40.83-12.66h-58.87
		v154.24h27.01v-57.6h33.13l26.16,57.6h29.54l-29.33-63.3C1160.02,1050.42,1166.95,1044.9,1171.67,1037.65z M1143.29,1029.53
		c-4.78,4.36-11.47,6.54-20.04,6.54h-31.86v-48.74h31.86c8.58,0,15.26,2.08,20.04,6.22c4.78,4.15,7.17,10.09,7.17,17.83
		C1150.46,1019.12,1148.07,1025.17,1143.29,1029.53z"/>
	<rect x="1206.08" y="963.28" width="27.01" height="154.24"/>
	<polygon points="1362.51,988.17 1362.51,963.28 1266.72,963.28 1266.72,1117.52 1362.51,1117.52 1362.51,1092.62 1293.73,1092.62 
		1293.73,1051.69 1355.34,1051.69 1355.34,1027.84 1293.73,1027.84 1293.73,988.17 	"/>
</g>
<g>
	<path d="M771.55,207.45c-5.58-0.35-11.13-0.52-16.64-0.53c-76.81-0.09-146.4,32.63-207.03,97.43
		c-55.12,58.92-73.65,106.33-73.48,163.59c0.08,30.63,5.52,64.07,13.57,103.6c15.13,74.33,59.25,146.08,121.06,196.89
		c47.32,38.89,100.09,58.75,155.7,59.12c28.82,0.19,58.4-4.85,88.39-15.2c96.81-33.42,189.42-129.08,225.2-232.64
		c11.33-32.77,16.83-64.67,16.71-95.02c-0.29-74.18-34.17-139.19-98.92-185.68C917.57,242.59,842.02,211.79,771.55,207.45"/>
	<g>
		<path class="st0" d="M661.02,518.23h-21.29l-0.02,0.6c-0.17,4.14-2.63,40.35-35.03,40.35c-28.96,0-43.65-25.95-43.68-77.14
			c0.03-51.19,14.72-77.14,43.68-77.14c32.96,0,34.96,38.7,35.03,40.34l0.02,0.6h21.29c1.96,0,3.88-0.81,5.25-2.21
			c1.31-1.35,1.99-3.09,1.9-4.91c-0.44-10.04-5.6-60.14-63.79-60.14c-47.02,0-71.87,35.74-71.87,103.35
			c0,67.75,24.85,103.56,71.87,103.56c56.01,0,62.97-45.76,63.78-59.78c0.14-1.93-0.52-3.79-1.88-5.22
			C664.92,519.05,662.99,518.23,661.02,518.23"/>
		<path class="st0" d="M991.79,469.74L991.79,469.74l-18.33-7.99c-17.64-7.75-23.89-15.28-23.89-28.81
			c0-17.63,12.91-29.48,32.1-29.48c11.35,0,20.66,2.32,32.03,13.91l0.62,0.63l9.79-8.95c5.66-5.26,4.03-10,1.66-13.04
			c-9.55-11.26-24.87-17.44-43.17-17.44c-35.28,0-60.89,23.02-60.89,54.73c0,31.18,19.65,44.22,40.88,53.66l18.71,8.35
			c18.8,8.43,27.76,15.62,27.76,33.7c0,24.68-22.29,31.26-35.47,31.26c-11.33,0-23.95-2.43-39.45-19.99l-0.61-0.69l-10.19,8.95
			c-5.25,4.62-5.29,8.57-0.18,15.14c14.03,18.04,34.6,21.83,49.39,21.83c31.98,0,64.36-19.64,64.36-57.18
			C1036.92,495.82,1018.88,481.4,991.79,469.74"/>
		<path class="st0" d="M811.01,437.78c0-31.94-25.88-59.01-57.84-59.01c-15.03,0-28.72,5.73-39,15.13v-10.98h-19.24
			c-5.8,0-8.01,3.78-8.01,8.13v186.4c0,5.25,3.2,8.05,7.92,8.05h19.25V438.91c0-19.26,15.62-34.87,34.88-34.87
			c19.25,0,34.87,15.61,34.87,34.87v146.62h19.12c5.3,0,8.05-2.95,8.05-8.02V437.78z"/>
		<path class="st0" d="M921.36,392.71c1.01-1.25,1.63-2.81,1.63-4.53c0-3.21-2.09-5.91-4.97-6.88c-5.57-1.86-11.5-2.89-17.66-2.89
			c-15.03,0-28.72,5.73-39,15.13v-10.98h-19.24c-5.8,0-8.02,3.78-8.02,8.13v186.4c0,5.25,3.21,8.05,7.93,8.05h19.24V438.55
			c0-19.26,15.62-34.87,34.88-34.87c5.05,0,9.83,1.09,14.15,3.02l11.12-13.95L921.36,392.71z"/>
	</g>
</g>
</svg>
