<?xml version="1.0" encoding="utf-8"?>
<!-- Generator: $$$/GeneralStr/196=Adobe Illustrator 27.6.0, SVG Export Plug-In . SVG Version: 6.00 Build 0)  -->
<svg version="1.1" id="Calque_1" xmlns="http://www.w3.org/2000/svg" xmlns:xlink="http://www.w3.org/1999/xlink" x="0px" y="0px"
	 viewBox="0 0 1433.12 1324.44" style="enable-background:new 0 0 1433.12 1324.44;" xml:space="preserve">
<style type="text/css">
	.st0{fill:#FFFFFF;}
</style>
<g>
	<path d="M294.9,969.61c-7.6-4.22-16.6-6.33-27.01-6.33h-33.97h-9.07h-17.94v154.24h27.01v-53.17h33.97
		c10.41,0,19.41-2.14,27.01-6.44c7.6-4.29,13.5-10.27,17.72-17.94c4.22-7.67,6.33-16.42,6.33-26.27c0-10.13-2.11-18.95-6.33-26.48
		C308.41,979.7,302.5,973.83,294.9,969.61z M283.4,1033.22c-4.85,4.71-11.92,7.07-21.21,7.07h-28.27v-52.96h28.7
		c9,0,15.93,2.25,20.78,6.75c4.85,4.5,7.28,10.97,7.28,19.41S288.26,1028.51,283.4,1033.22z"/>
	<polygon points="434.14,1027.21 365.78,1027.21 365.78,963.28 338.77,963.28 338.77,1117.52 365.78,1117.52 365.78,1052.11 
		434.14,1052.11 434.14,1117.52 461.15,1117.52 461.15,963.28 434.14,963.28 	"/>
	<path d="M548.12,1019.4c-0.84,1.69-1.58,3.13-2.21,4.33c-0.63,1.2-1.16,2.36-1.58,3.48c-0.42,1.13-0.99,2.32-1.69,3.59
		c-0.84-1.83-1.69-3.66-2.53-5.49c-0.84-1.83-1.83-3.8-2.95-5.91l-30.38-56.13H476.6l52.12,93.47v60.77h27.01v-60.77l51.91-93.47
		H578.3L548.12,1019.4z"/>
	<path d="M682.85,1031.01l-24.27-5.49c-6.47-1.55-11.22-3.9-14.24-7.07c-3.03-3.17-4.54-7.49-4.54-12.98c0-6.47,2.5-11.57,7.49-15.3
		c4.99-3.73,11.64-5.59,19.94-5.59c7.6,0,13.64,1.87,18.15,5.59c4.5,3.73,6.89,8.9,7.17,15.51h27.01
		c-0.28-9.28-2.57-17.3-6.86-24.05c-4.29-6.75-10.27-11.95-17.94-15.61c-7.67-3.66-16.71-5.49-27.11-5.49
		c-10.83,0-20.36,1.94-28.59,5.8c-8.23,3.87-14.66,9.25-19.31,16.14c-4.64,6.89-6.96,14.84-6.96,23.84
		c0,11.96,3.38,21.63,10.13,29.01c6.75,7.39,16.67,12.49,29.75,15.3l24.48,5.49c6.33,1.27,10.9,3.48,13.71,6.65
		c2.81,3.17,4.22,7.42,4.22,12.77c0,6.19-2.64,11.15-7.91,14.88c-5.28,3.73-12.42,5.59-21.42,5.59c-8.58,0-15.37-1.86-20.36-5.59
		c-4.99-3.73-7.56-8.83-7.7-15.3h-27.01c0.28,9.15,2.71,17.09,7.28,23.84c4.57,6.75,10.94,11.99,19.1,15.72
		c8.16,3.73,17.65,5.59,28.48,5.59c11.39,0,21.34-1.94,29.86-5.8c8.51-3.87,15.09-9.39,19.73-16.56c4.64-7.17,6.96-15.47,6.96-24.9
		c0-11.53-3.24-20.71-9.71-27.54C705.91,1038.64,696.07,1033.82,682.85,1031.01z"/>
	<rect x="748.51" y="963.28" width="27.01" height="154.24"/>
	<path d="M950.56,1040.29c0-15.75-3.17-29.61-9.5-41.57c-6.33-11.95-15.09-21.31-26.27-28.06s-24.16-10.13-38.93-10.13
		c-14.77,0-27.75,3.38-38.93,10.13c-11.18,6.75-19.94,16.14-26.27,28.17s-9.5,25.92-9.5,41.67c0,15.61,3.13,29.4,9.39,41.36
		c6.26,11.96,15.01,21.31,26.27,28.06c11.25,6.75,24.19,10.13,38.82,10.13c14.62,0,27.5-3.31,38.68-9.92l16.81,19l17.3-15.4
		l-16.43-18.5c3.43-4.05,6.45-8.53,9.05-13.47C947.39,1069.73,950.56,1055.91,950.56,1040.29z M892.96,1051.26l-17.09,15.4
		l20.46,23.11c-5.96,2.86-12.77,4.32-20.46,4.32c-9.43,0-17.62-2.18-24.58-6.54c-6.96-4.36-12.34-10.58-16.14-18.67
		c-3.8-8.09-5.7-17.62-5.7-28.59s1.9-20.47,5.7-28.48s9.18-14.24,16.14-18.67c6.96-4.43,15.16-6.65,24.58-6.65
		c9.56,0,17.79,2.22,24.69,6.65c6.89,4.43,12.24,10.66,16.04,18.67c3.8,8.02,5.7,17.51,5.7,28.48c0,10.83-1.9,20.29-5.7,28.38
		c-0.94,2.01-1.98,3.9-3.12,5.68L892.96,1051.26z"/>
	<path d="M1070.7,1059.49c0,10.97-2.95,19.45-8.86,25.43c-5.91,5.98-14.35,8.97-25.32,8.97c-10.83,0-19.2-2.95-25.11-8.86
		c-5.91-5.91-8.86-14.42-8.86-25.53v-96.22h-27.01v97.9c0,11.96,2.5,22.37,7.49,31.23c4.99,8.86,12.06,15.69,21.21,20.47
		c9.14,4.78,19.9,7.17,32.28,7.17c12.52,0,23.35-2.43,32.49-7.28c9.14-4.85,16.21-11.67,21.21-20.47
		c4.99-8.79,7.49-19.17,7.49-31.12v-97.9h-27.01V1059.49z"/>
	<polygon points="1226.21,988.17 1226.21,963.28 1130.41,963.28 1130.41,1117.52 1226.21,1117.52 1226.21,1092.62 1157.42,1092.62 
		1157.42,1051.69 1219.03,1051.69 1219.03,1027.84 1157.42,1027.84 1157.42,988.17 	"/>
</g>
<g>
	<path d="M703.4,207.45c-5.58-0.35-11.13-0.52-16.64-0.53c-76.81-0.09-146.4,32.63-207.03,97.43
		c-55.12,58.92-73.65,106.33-73.48,163.59c0.08,30.63,5.52,64.07,13.57,103.6c15.13,74.33,59.25,146.08,121.06,196.89
		c47.32,38.89,100.09,58.75,155.7,59.12c28.82,0.19,58.4-4.85,88.39-15.2c96.81-33.42,189.42-129.08,225.2-232.64
		c11.33-32.77,16.83-64.67,16.71-95.02c-0.29-74.18-34.17-139.19-98.92-185.68C849.42,242.59,773.87,211.79,703.4,207.45"/>
	<g>
		<path class="st0" d="M592.87,518.23h-21.29l-0.02,0.6c-0.17,4.14-2.63,40.35-35.03,40.35c-28.96,0-43.65-25.95-43.68-77.14
			c0.03-51.19,14.72-77.14,43.68-77.14c32.96,0,34.96,38.7,35.03,40.34l0.02,0.6h21.29c1.96,0,3.88-0.81,5.25-2.21
			c1.31-1.35,1.99-3.09,1.9-4.91c-0.44-10.04-5.6-60.14-63.79-60.14c-47.02,0-71.87,35.74-71.87,103.35
			c0,67.75,24.85,103.56,71.87,103.56c56.01,0,62.97-45.76,63.78-59.78c0.14-1.93-0.52-3.79-1.88-5.22
			C596.76,519.05,594.83,518.23,592.87,518.23"/>
		<path class="st0" d="M923.64,469.74L923.64,469.74l-18.33-7.99c-17.64-7.75-23.89-15.28-23.89-28.81
			c0-17.63,12.91-29.48,32.1-29.48c11.35,0,20.66,2.32,32.03,13.91l0.62,0.63l9.79-8.95c5.66-5.26,4.03-10,1.66-13.04
			c-9.55-11.26-24.87-17.44-43.17-17.44c-35.28,0-60.89,23.02-60.89,54.73c0,31.18,19.65,44.22,40.88,53.66l18.71,8.35
			c18.8,8.43,27.76,15.62,27.76,33.7c0,24.68-22.29,31.26-35.47,31.26c-11.33,0-23.95-2.43-39.45-19.99l-0.61-0.69l-10.19,8.95
			c-5.25,4.62-5.29,8.57-0.18,15.14c14.03,18.04,34.6,21.83,49.39,21.83c31.98,0,64.36-19.64,64.36-57.18
			C968.77,495.82,950.73,481.4,923.64,469.74"/>
		<path class="st0" d="M742.86,437.78c0-31.94-25.88-59.01-57.84-59.01c-15.03,0-28.72,5.73-39,15.13v-10.98h-19.24
			c-5.8,0-8.01,3.78-8.01,8.13v186.4c0,5.25,3.2,8.05,7.92,8.05h19.25V438.91c0-19.26,15.62-34.87,34.88-34.87
			c19.25,0,34.87,15.61,34.87,34.87v146.62h19.12c5.3,0,8.05-2.95,8.05-8.02V437.78z"/>
		<path class="st0" d="M853.21,392.71c1.01-1.25,1.63-2.81,1.63-4.53c0-3.21-2.09-5.91-4.97-6.88c-5.57-1.86-11.5-2.89-17.66-2.89
			c-15.03,0-28.72,5.73-39,15.13v-10.98h-19.24c-5.8,0-8.02,3.78-8.02,8.13v186.4c0,5.25,3.21,8.05,7.93,8.05h19.24V438.55
			c0-19.26,15.62-34.87,34.88-34.87c5.05,0,9.83,1.09,14.15,3.02l11.12-13.95L853.21,392.71z"/>
	</g>
</g>
</svg>
