<?xml version="1.0" encoding="UTF-8"?>
<svg id="Calque_1" data-name="Calque 1" xmlns="http://www.w3.org/2000/svg" viewBox="0 0 2246.57 642.76">
  <defs>
    <style>
      .cls-1 {
        fill: #fff;
      }
    </style>
  </defs>
  <rect class="cls-1" y="11.04" width="108.69" height="620.68"/>
  <polygon class="cls-1" points="638.84 451.73 347.61 11.04 239.77 11.04 239.77 631.72 346.76 631.72 346.76 191.68 638.84 631.72 745.83 631.72 745.83 11.04 638.84 11.04 638.84 451.73"/>
  <path class="cls-1" d="m1134.45,283.6l-97.64-22.08c-26.04-6.23-45.15-15.71-57.31-28.45-12.18-12.73-18.26-30.14-18.26-52.21,0-26.03,10.04-46.55,30.14-61.56,20.09-14.99,46.83-22.49,80.24-22.49,30.57,0,54.9,7.5,73.02,22.49,18.11,15.01,27.73,35.81,28.87,62.41h108.68c-1.14-37.36-10.33-69.63-27.59-96.8-17.27-27.16-41.32-48.1-72.17-62.83-30.86-14.71-67.23-22.08-109.11-22.08s-81.94,7.79-115.05,23.36c-33.12,15.57-59.01,37.22-77.69,64.95-18.68,27.74-28.02,59.73-28.02,95.95,0,48.12,13.58,87.03,40.75,116.74,27.17,29.72,67.08,50.25,119.72,61.56l98.49,22.08c25.47,5.1,43.86,14.01,55.19,26.75,11.32,12.74,16.98,29.86,16.98,51.37,0,24.91-10.62,44.87-31.84,59.86-21.23,15.01-49.96,22.5-86.18,22.5s-61.85-7.5-81.94-22.5c-20.1-14.99-30.43-35.52-30.99-61.56h-108.68c1.13,36.81,10.89,68.78,29.29,95.95,18.39,27.17,44.01,48.27,76.84,63.26,32.82,14.99,71.03,22.49,114.63,22.49,45.85,0,85.89-7.78,120.15-23.35,34.24-15.56,60.71-37.78,79.39-66.65,18.68-28.88,28.02-62.27,28.02-100.19,0-46.41-13.03-83.34-39.06-110.8-26.04-27.45-65.67-46.83-118.87-58.16Z"/>
  <path class="cls-1" d="m1699,505.21L1498.62,11.04h-105.29v620.68h105.29v-222.46c0-39.06-.42-73.02-1.27-101.89-.85-28.87-2.69-52.65-5.52-71.33l157.08,395.67h100.19l157.93-396.52c-1.7,11.33-2.84,22.64-3.4,33.96-.57,11.33-1.14,24.34-1.7,39.05-.57,14.73-.85,32.69-.85,53.92v269.59h105.29V11.04h-106.99l-200.38,494.16Z"/>
  <rect class="cls-1" x="2137.88" y="11.04" width="108.69" height="620.68"/>
</svg>