<?xml version="1.0" encoding="utf-8"?>
<!-- Generator: Adobe Illustrator 28.0.0, SVG Export Plug-In . SVG Version: 6.00 Build 0)  -->
<svg version="1.1" id="Calque_1" xmlns="http://www.w3.org/2000/svg" xmlns:xlink="http://www.w3.org/1999/xlink" x="0px" y="0px"
	 viewBox="0 0 1382 643" style="enable-background:new 0 0 1382 643;" xml:space="preserve">
<style type="text/css">
	.st0{fill:#FFFFFF;}
	.st1{fill:#000091;}
	.st2{fill:#E1000F;}
	.st3{fill:#9C9B9B;}
	.st4{fill:#00284B;}
</style>
<g id="Calque_1_1_">
	<path id="Devise_Républicaine" d="M289.1,539c1.5,0,3,1.5,2.4,4.8l-8,1.8C284.6,541.9,287,539,289.1,539 M293.3,552.1h-1.5
		c-2.1,2.1-4.2,4.2-6.3,4.2s-3.3-1.5-3.3-4.2c0-1.2,0-2.4,0.3-3.6l12.8-4.2c2.7-6-0.3-8.6-3.9-8.6s-13.1,10.1-13.1,19.1
		c0,3.9,2.1,6.3,4.8,6.3S290.3,557.4,293.3,552.1 M290.9,533.3l8.9-8.3v-1.2H295l-5.7,9.5H290.9z M263.2,539.3h4.2l-6.8,18.5
		c-0.6,1.2,0,2.7,1.2,3c0.3,0,0.3,0,0.6,0.3c5.4-0.9,10.1-4.2,12.5-9.2h-1.5c-2.1,2.4-4.8,4.2-7.7,4.8l6.3-17.3h6.3l0.9-2.7h-6.3
		l2.4-6.6h-2.4l-4.5,6.6l-5.1,0.6v2L263.2,539.3L263.2,539.3z M257.2,538.4c0.6-1.8-0.6-2.7-1.5-2.7c-4.5,0.6-8.3,3.6-9.8,8h1.2
		c1.2-1.8,3-3.3,5.1-3.9l-7.1,18.5c-0.3,1.2,0.3,2.4,1.5,2.7h0.3c3.3,0,7.4-3.6,9.2-8h-1.2c-1.2,1.8-3,3-5.1,3.9L257.2,538.4z
		 M258.7,529.1c1.8-0.3,3-1.5,3-3.3c0-1.5-1.5-3-3-3c-1.8,0-3,1.2-3.3,3C255.4,527.6,256.9,529.1,258.7,529.1L258.7,529.1
		 M217.6,557.4c-0.6,1.2-0.3,2.7,0.9,3.3c0.3,0.3,0.9,0.3,1.2,0.3c1.5,0,1.8-0.3,2.4-1.8l5.1-13.1c2.4-2.7,5.4-4.8,8.6-5.7
		c1.5,0,1.2,1.2,0.3,2.7l-7.4,14.6c-0.6,0.9-0.3,2.4,0.6,3c0.3,0.3,0.9,0.3,1.2,0.3c4.5-0.6,8.3-3.9,9.8-8h-1.2
		c-1.2,1.8-3,3-5.1,3.9l6.6-13.1c0.6-1.5,1.2-3,1.2-4.5c0.3-1.8-1.2-3.3-3-3.6c-0.3,0-0.3,0-0.6,0c-3,0-6.3,3.6-10.1,8v-3.6
		c0-2.4-0.9-4.5-3-4.5c-1.8,0.3-3.3,1.5-4.2,3l0,0c2.4,0,3.6,3.6,1.8,7.4L217.6,557.4z M217.6,541.3c0.9-3,0.3-5.7-1.8-5.7
		s-3.6,2.1-6.3,8V540c0-2.4-0.9-4.5-3-4.5s-5.1,3.9-6.8,8h1.2c1.2-1.8,2.4-3,3.3-3c0.9,0,1.8,1.8,0,5.7l-5.1,11
		c-0.6,1.2-0.3,2.7,0.9,3.3c0.3,0.3,0.9,0.3,1.2,0.3c1.5,0,1.8-0.3,2.4-1.8l5.1-13.1c1.2-1.8,2.7-3.3,4.2-4.8h4.7L217.6,541.3
		L217.6,541.3z M189,539c1.8,0,3.3,1.5,2.7,4.8l-8,1.8C184.9,541.9,187.2,539,189,539 M193.5,552.1H192c-2.1,2.1-4.2,4.2-6.3,4.2
		s-3.3-1.5-3.3-4.2c0-1.2,0-2.4,0.3-3.6l12.8-4.2c2.7-6-0.3-8.6-3.9-8.6c-3.6,0-13.1,10.1-13.1,19.1c0,3.9,1.8,6.3,4.8,6.3
		S190.5,557.4,193.5,552.1 M163.4,539.3h4.2l-6.8,18.5c-0.6,1.2,0,2.7,1.2,3c0.3,0,0.3,0,0.6,0.3c5.4-0.6,10.1-4.2,12.2-9.2h-1.2
		c-2.1,2.4-4.8,4.2-7.7,4.8l6.3-17.3h6.3l0.9-2.7h-6.3l2.4-6.6h-2.4l-4.5,6.6l-5.1,0.6L163.4,539.3L163.4,539.3z M139.9,553.6
		c0-5.7,6.3-13.4,9.8-13.4h2.1l-3.6,9.8c-2.1,2.7-5.4,6-6.8,6C139.9,555.9,139.9,555,139.9,553.6 M159.2,534.2h-1.8l-2.1,2.1h-0.6
		c-10.7,0-19.7,11.9-19.7,20.5c-0.3,2.1,1.2,3.6,3.3,3.9c0.3,0,0.3,0,0.6,0c2.7,0,5.4-3.9,8.3-8v1.2c-0.3,4.5,1.2,6.8,3.3,6.8
		s5.1-4.2,6.8-8h-1.2c-1.2,1.8-2.4,2.7-3.3,2.7c-0.9,0-1.8-1.8,0-5.4L159.2,534.2z M136.9,541c0.9-3,0.3-5.7-2.1-5.7s-3.3,2.1-6.3,8
		v-3.6c0-2.4-0.6-4.5-3-4.5s-4.8,3.9-6.6,8h1.2c1.2-1.8,2.4-3,3.3-3s1.8,1.8,0,5.7l-5.1,11c-0.9,2.1,0,3.6,2.1,3.6s1.8-0.3,2.4-1.8
		l4.8-13.1c1.2-1.8,2.7-3.3,4.5-4.8L136.9,541z M101.2,559.5l0.6-1.2c-6.3-1.2-6.8-1.2-4.5-8l2.4-6.6h6.8c3,0,3.3,1.2,2.7,4.5h1.8
		l4.2-11h-1.8c-1.5,2.7-2.7,4.5-6.3,4.5h-6.6l3.6-9.8c0.9-3,1.8-3.6,6-3.6h3c4.2,0,4.8,1.2,4.8,5.4h1.8l1.2-7.4H95.2v1.5
		c5.1,0.9,5.4,1.5,3,7.7l-5.4,15.2c-2.4,6.6-3.3,6.8-9.2,8v1.2L101.2,559.5z M226.8,481.2c1.8,0,3.3,1.2,2.4,4.5l-8,1.8
		C222.7,483.9,225.1,481.2,226.8,481.2 M231.3,494h-1.8c-1.2,2.4-3.6,3.9-6.3,4.2c-2.1,0-3.3-1.2-3.3-4.2c0-1.2,0.3-2.4,0.6-3.6
		l12.8-4.2c2.4-6-0.6-8.6-4.2-8.6c-3.6,0-12.8,10.1-12.8,19.1c0,4.2,1.8,6.3,4.8,6.3C224.2,502.9,228.3,499.6,231.3,494
		 M228.6,475.2l9.2-8.3V466h-5.1l-5.7,9.2H228.6z M200.9,481.2h4.2l-6.6,18.5c-0.6,1.8,0,3.3,1.8,3.3c5.4-0.6,9.8-4.2,12.2-8.9h-1.2
		c-2.1,2.1-4.8,3.9-7.7,4.8l6-17.6h6.6l0.6-2.7h-6l2.4-6.6h-2.7l-4.2,6.6l-5.4,0.9L200.9,481.2z M195.3,480.3
		c0.3-1.8-0.6-2.7-1.5-2.7c-4.8,0.6-8.6,3.6-10.1,8h1.2c1.2-2.1,3.3-3.3,5.4-3.9l-7.1,18.5c-0.6,1.8,0.6,2.7,1.5,2.7
		c4.5-0.6,8-3.9,9.5-8H193c-1.2,2.1-3.3,3.3-5.4,3.9L195.3,480.3z M196.5,471.1c1.5,0.3,2.7-0.9,3-2.4c0-0.3,0-0.3,0-0.6
		c0-1.8-1.2-3-3-3s-3,1.2-3,3c-0.3,1.5,0.9,2.7,2.4,3C196.2,471.1,196.2,471.1,196.5,471.1 M171.8,498.8l13.1-34h-0.6l-8,0.9v0.9
		l1.5,1.2c1.5,1.2,1.2,2.1-0.3,5.7L167.4,500c-0.6,1.2,0,2.7,1.2,3c0.3,0,0.3,0,0.6,0.3c4.5-0.6,8.3-3.6,9.5-8h-1.2
		c-1.2,2.1-3.3,3.3-5.7,3.9 M147.3,496.1c0-6,6.3-13.7,9.8-13.7h2.1l-3.6,10.1c-2.1,2.4-5.4,5.7-7.1,5.7s-1.2-0.9-1.2-2.4
		 M166.7,476.7h-1.8l-2.4,2.1h-0.3c-10.7,0-19.7,11.9-19.7,20.5c-0.3,2.1,1.2,3.6,3.3,3.9h0.3c3,0,5.7-3.9,8.6-8v1.5
		c-0.3,4.2,0.9,6.6,3.3,6.6s4.8-4.2,6.8-8h-1.2c-1.5,1.8-2.7,3-3.6,3c-0.9,0-1.5-1.8,0-5.7L166.7,476.7z M119.6,507.4
		c0-2.4,2.4-3.9,5.7-5.4l5.1,1.8c3.6,1.2,4.8,1.8,4.8,3s-3.9,3.9-8.9,3.9C121.1,510.7,119.6,509.8,119.6,507.4 M129.2,492.5
		c-1.5,0-2.1-1.5-2.1-3s2.1-10.1,5.7-10.1s2.1,1.2,2.1,2.7S132.7,492.5,129.2,492.5 M139.3,505c0-3-2.7-3.9-7.1-5.4
		c-4.5-1.5-5.4-1.2-5.4-2.4c0-1.5,0.9-2.7,2.4-3c5.7-0.3,9.8-4.8,10.1-10.4c0-0.9-0.3-1.8-0.6-2.7h5.1l0.9-2.7h-8l-3.3-0.9
		c-5.7,0-10.4,4.8-10.7,10.4c-0.3,3,1.8,5.4,4.8,6c-3,1.5-4.5,3-4.5,4.8c0,0.9,0.3,2.1,1.2,2.7c-6.8,2.1-9.8,4.2-9.8,7.4
		c0,3.3,4.2,4.8,9.2,4.8S139.3,508.9,139.3,505 M106.8,485.4c3,0,3,1.2,2.7,4.5h1.8l3.9-11h-1.8c-1.5,2.4-2.7,4.5-6,4.5h-6.8
		l3.6-9.2c0.9-3.3,1.8-3.9,6-3.9h3c4.2,0,4.8,1.2,4.8,5.7h1.8l1.2-7.7H95.2v1.5c5.1,0.9,5.4,1.5,3,7.7l-5.4,15.2
		c-2.4,6.6-3.3,7.1-9.2,8v1.5h28l5.1-8h-2.1c-3.3,3.6-8,5.7-13.1,6c-7.4,0-6.8-0.3-4.2-7.4l2.7-7.1h6.8V485.4z M110.4,465.7l9.2-6
		v-1.2H114l-5.1,7.1h1.5V465.7z M223.9,423.1c1.8,0,3.3,1.2,2.4,4.5l-8,2.1C219.7,425.8,222.1,423.1,223.9,423.1 M228.3,435.9h-1.8
		c-1.5,2.4-3.6,3.9-6.3,4.2c-2.1,0-3.3-1.2-3.3-4.2s0.3-2.4,0.3-3.6l13.1-4.2c2.4-6-0.6-8.6-4.2-8.6c-3.6,0-13.1,10.4-13.1,19.1
		s2.1,6.3,5.1,6.3C221.2,444.9,225.4,441.6,228.3,435.9 M225.7,417.2l8.9-8.3V408h-4.8l-5.7,9.2H225.7L225.7,417.2z M199.1,423.1
		h3.3l-6.8,18.8c-0.6,0.9,0,2.4,0.9,2.7c0.3,0.3,0.6,0.3,1.2,0.3c5.4-0.9,9.8-4.2,12.2-8.9h-1.2c-2.1,2.4-5.1,3.9-8,4.8l6.3-17.6
		h6.6l0.6-2.4h-6l2.1-6.8h-2.4l-4.5,6.8l-4.2,0.6L199.1,423.1z M195.9,425.2c0.9-3,0.3-5.7-2.1-5.7s-3.3,2.1-6.3,8.3v-3.6
		c0-2.4-0.6-4.8-3-4.8s-5.1,4.2-6.8,8h1.2c1.5-1.8,2.7-2.7,3.6-2.7c0.9,0,1.5,1.5,0,5.4l-5.1,11.3c-0.9,2.1,0,3.3,2.1,3.3
		c1.2,0.3,2.1-0.6,2.4-1.5l4.8-13.1l4.2-5.1L195.9,425.2z M167.3,423.1c1.8,0,3.3,1.2,2.4,4.5l-8,2.1
		C163.1,425.8,165.5,423.1,167.3,423.1 M171.8,435.9H170c-1.2,2.4-3.6,3.9-6.3,4.2c-2.1,0-3.3-1.2-3.3-4.2c0-1.2,0.3-2.4,0.6-3.6
		l12.8-4.2c2.4-6-0.6-8.6-4.2-8.6s-12.8,10.4-12.8,19.1s1.8,6.3,4.8,6.3S168.8,441.6,171.8,435.9 M140.2,441.3c-1.2,0-3-1.2-3-2.4
		c0-1.2,0.6-1.8,1.2-3.6l2.1-5.4c2.1-2.7,5.7-5.7,7.4-5.7s2.1,0.9,2.1,2.7C150,428.8,145.2,441.3,140.2,441.3 M154.8,424.9
		c0-3.9-1.5-5.4-3.9-5.4s-6.6,3.6-9.5,7.7l7.7-20.3v-0.6l-8.3,0.9v0.9l1.8,1.2c1.5,1.2,0.9,2.4-0.3,5.7l-8.6,21.4
		c-0.6,1.5-1.2,2.7-1.5,4.2c0,2.1,3,4.2,5.7,4.2C140.5,444.9,154.8,433.5,154.8,424.9 M129.5,422.2c0.6-0.9,0.3-2.1-0.6-2.4
		c-0.3,0-0.6-0.3-0.9-0.3c-4.5,0.6-8.3,3.9-9.8,8h1.2c1.2-1.8,3-3,5.1-3.9l-7.1,18.5c-0.3,1.2,0.3,2.4,1.5,2.7h0.3
		c4.5-0.6,8-3.9,9.2-8h-1.2c-1.2,1.8-3,3.3-5.1,3.9L129.5,422.2z M130.9,413c1.8,0,3-1.2,3-3s-1.2-3-3-3s-3,1.2-3,3
		S129.2,413,130.9,413 M112.2,410h-17v1.5c4.8,1.2,5.4,1.5,3,8l-5.4,15.2c-2.4,6.3-3.3,6.8-9.2,7.7v1.5h25l5.7-9.8h-2.1
		c-3,3.3-6.8,7.7-12.5,7.7s-4.8-0.6-2.4-7.1l5.4-15.2c2.4-6.6,3.3-6.8,8.9-8L112.2,410z"/>
	<path d="M83,271.2v-61.4h18.8c5.7-0.3,11.3,1.2,16.1,4.8c3.9,3.3,6.3,8.3,6,13.4c0,3.6-0.9,6.8-2.7,9.8c-1.8,2.7-4.2,4.8-7.1,6.3
		l19.1,27.1h-14.9l-16.4-24.7h-6.3v24.7H83z M102.4,220.3h-6.8v15.5h6.8c2.4,0.3,4.5-0.6,6.3-2.1c1.5-1.5,2.4-3.6,2.4-5.7
		c0-2.1-0.9-4.2-2.4-5.7C106.8,220.9,104.7,220.3,102.4,220.3z"/>
	<path d="M140.8,271.2v-61.4h36v10.4h-23.5v14.3h20v10.7h-20v15.2h23.5v10.7L140.8,271.2L140.8,271.2z M164.3,204.5H153l9.8-11.9
		h13.1L164.3,204.5z"/>
	<path d="M191.1,271.2v-61.4h20.5c5.7-0.3,11.3,1.5,15.8,4.8c7.4,6.8,8,18.2,1.2,25.6c-0.3,0.3-0.6,0.9-1.2,1.2
		c-4.5,3.6-10.1,5.4-15.8,5.1h-8v24.7L191.1,271.2L191.1,271.2z M212,220.3h-8.3v15.5h8.3c2.4,0.3,4.5-0.6,6.3-2.1
		c1.5-1.5,2.4-3.6,2.4-5.7c0-2.1-0.9-4.2-2.4-5.7C216.4,220.9,214.3,220.3,212,220.3z"/>
	<path d="M279.9,248.3v-38.4h12.5v37.2c0.3,7.1-2.1,13.7-6.8,19.1c-10.4,9.2-25.9,9.2-36.3,0c-4.5-5.4-6.8-12.2-6.6-19.1v-37.2h12.5
		v38.4c-0.3,3.6,0.9,6.8,3.3,9.5c2.4,2.4,5.7,3.9,8.9,3.6c3.6,0.3,6.8-1.2,9.2-3.6C279,255.1,280.2,251.9,279.9,248.3z"/>
	<path d="M307.9,271.2v-61.4h17.6c5.4-0.3,10.7,1.2,14.9,4.5c3.9,3,6,7.4,5.7,12.2c0,2.4-0.6,4.8-1.8,6.8c-1.2,2.1-2.7,3.9-4.8,5.1
		c3,1.2,5.7,3.6,7.4,6.3c1.8,2.4,2.7,5.4,2.7,8.3c0.3,5.4-2.1,10.1-6.3,13.4c-4.8,3.6-10.7,5.1-16.7,4.8H307.9z M325.4,220.3h-5.1
		V234h5.1c2.1,0,4.2-0.6,5.7-1.8c2.7-2.7,2.7-7.4,0-10.1l0,0C329.6,220.9,327.5,220.3,325.4,220.3z M327.2,244.7h-6.8v15.8h6.8
		c2.4,0.3,5.1-0.6,6.8-2.1c1.8-1.5,2.7-3.6,2.7-6s-0.9-4.5-2.7-6C332,245.3,329.6,244.4,327.2,244.7z"/>
	<path d="M362.1,271.2v-61.4h12.5v50h23.5v11.3h-36V271.2z"/>
	<path d="M409.1,271.2v-61.4h12.5v61.4H409.1z"/>
	<path d="M490.4,269.7c1.8,1.8,4.2,3.3,6.6,4.5c2.1,0.9,4.2,1.5,6.3,1.5h2.1l2.4-0.6v10.7l-3,0.9h-3.6c-3.3,0-6.8-0.9-9.8-2.1
		c-3.6-1.5-6.6-3.6-9.5-6.3l-7.1-6.3l-4.2,0.6H466c-4.5,0-8.9-0.9-13.1-2.7c-3.9-1.8-7.4-3.9-10.4-6.8c-5.7-6.3-8.9-14.3-8.9-22.9
		c0-8.6,3.3-16.7,8.9-22.9c3-3,6.6-5.4,10.4-6.8c4.2-1.8,8.6-2.7,13.1-2.7s9.2,0.9,13.4,2.7c3.9,1.8,7.4,3.9,10.4,6.8
		c5.7,6.3,8.9,14.3,8.9,22.9c0,5.1-1.2,9.8-3.3,14.3c-2.1,4.5-5.1,8.3-8.9,11.3L490.4,269.7z M466,261.4c5.4,0,10.4-2.4,14.3-6
		c1.8-2.1,3-4.2,4.2-6.6c2.1-5.4,2.1-11.3,0-16.7c-0.9-2.4-2.4-4.5-4.2-6.6c-1.8-1.8-3.9-3.3-6.3-4.5c-2.7-0.9-5.4-1.5-8-1.5
		s-5.4,0.6-7.7,1.5c-2.4,0.9-4.5,2.4-6.3,4.5c-1.8,1.8-3.3,4.2-4.2,6.6c-2.1,5.4-2.1,11.3,0,16.7c0.9,2.4,2.4,4.8,4.2,6.6
		c1.8,2.1,3.9,3.3,6.3,4.2C460.6,260.8,463.3,261.4,466,261.4z"/>
	<path d="M547,248.3v-38.4h12.5v37.2c0.3,7.1-2.1,13.7-6.8,19.1c-10.4,9.2-25.9,9.2-36.3,0c-4.8-5.4-7.1-11.9-6.8-19.1v-37.2H522
		v38.4c-0.3,3.6,1.2,7.1,3.6,9.5c2.4,2.4,5.7,3.9,8.9,3.6c3.6,0.3,6.8-1.2,9.2-3.6C546.1,255.1,547.3,251.9,547,248.3z"/>
	<path d="M575,271.2v-61.4h35.7v10.4h-23.2v14.3h19.7v10.7h-19.7v15.2h23.2v10.7L575,271.2L575,271.2z"/>
	<path d="M83,364.1v-61.4h35.7v10.4H95.5v14.3h20v10.7h-20V364H83V364.1z"/>
	<path d="M129.8,364.1v-61.4h18.8c5.7-0.3,11.3,1.2,16.1,4.8c3.9,3.3,6.3,8.3,6,13.4c0,3.6-0.9,6.8-2.7,9.8
		c-1.8,2.7-4.2,4.8-7.1,6.3l19.4,27.1h-14.9L149,339.4h-6.6v24.7H129.8L129.8,364.1z M149.4,313.2h-7.1v15.5h7.1
		c2.1,0.3,4.5-0.6,6-2.1s2.4-3.6,2.4-5.7s-0.9-4.2-2.4-5.7C153.6,313.8,151.5,313.2,149.4,313.2z"/>
	<path d="M182.8,364.1l23.2-61.4h16.4l23.2,61.4h-13.4l-6-16.1h-24.4l-6,16.1H182.8z M205.7,337.6h16.7l-8.3-23.2L205.7,337.6z"/>
	<path d="M255.1,364.1v-61.4h15.8l27.7,43.8v-43.8h12.5v61.4H295L267.3,320v44.1H255.1z"/>
	<path d="M355.5,354.3c3.3,0,6.6-0.9,9.5-2.4c2.7-1.5,4.8-3.6,6.6-6l9.8,7.4c-2.4,3.3-5.4,6-8.9,8c-3.6,2.1-7.7,3.6-11.9,4.2
		l-7.7,12.8h-11l7.7-13.1c-3.9-0.6-7.7-1.8-11-3.9c-3-2.1-6-4.5-8.3-7.1c-2.4-3-4.2-6.3-5.4-9.8c-1.2-3.6-1.8-7.1-1.8-11
		c0-8.6,3.3-16.7,8.9-22.9c3-3,6.6-5.4,10.4-6.8c4.2-1.8,8.6-2.7,13.1-2.7c5.4,0,10.4,1.2,15.2,3.3c4.2,2.1,8,5.4,10.7,9.2l-9.8,7.4
		c-1.8-2.4-3.9-4.5-6.6-6c-3-1.5-6.3-2.4-9.5-2.4c-2.7,0-5.4,0.6-7.7,1.5c-2.4,1.2-4.8,2.7-6.6,4.5c-1.5,2.1-3,4.2-3.9,6.6
		c-2.1,5.4-2.1,11.3,0,16.7c0.9,2.4,2.4,4.5,3.9,6.6c1.8,1.8,4.2,3.3,6.6,4.2C350.1,353.7,352.8,354.3,355.5,354.3z"/>
	<path d="M384.1,364.1l23.2-61.4h16.4l23.2,61.4h-13.1l-6-16.1h-24.4l-6,16.1H384.1z M407.3,337.6H424l-8.3-23.2L407.3,337.6z"/>
	<path d="M456.5,364.1v-61.4H469v61.4H456.5z"/>
	<path d="M480.6,355.8l9.2-8.3c1.8,2.1,3.9,3.9,6.3,5.4c2.1,1.5,4.8,2.1,7.4,2.1c2.1,0,4.2-0.6,5.7-1.8c1.5-1.5,2.1-3.3,2.1-5.4
		c0-2.7-1.8-5.4-4.5-6.3l-9.5-4.8c-3.6-1.5-6.8-3.9-9.8-6.3c-3-3.3-4.5-7.4-4.2-11.6c0-2.4,0.3-4.8,1.5-6.8c0.9-2.4,2.1-4.2,3.9-6
		c1.8-1.5,3.9-2.7,6.3-3.6c2.4-1.2,5.4-1.5,8-1.5c4.2,0,8.3,0.9,12.2,2.7c3.6,2.1,6.6,4.5,9.2,7.7l-9.2,8c-1.5-2.1-3.6-4.2-5.7-5.7
		c-2.1-1.2-4.2-2.1-6.6-2.1c-1.8,0-3.9,0.6-5.1,2.1c-1.5,1.2-2.1,2.7-2.1,4.5c0,2.7,1.8,5.4,4.5,6.3l9.5,4.8
		c3.6,1.5,6.8,3.9,9.8,6.6c3,3,4.8,7.1,4.5,11.6c-0.3,2.7-0.9,5.4-1.8,7.7c-1.2,2.1-2.7,4.2-4.5,6c-1.8,1.5-3.9,2.7-6.3,3.6
		c-2.7,0.9-5.4,1.2-8,1.2c-4.5,0-8.9-0.9-13.1-2.7C486.5,361.5,483.3,358.8,480.6,355.8z"/>
	<path d="M537.2,364.1v-61.4h35.7v10.4h-23.5v14.3h20v10.7h-20v15.2h23.5V364L537.2,364.1L537.2,364.1z"/>
	<g id="Marianne">
		<path id="Fond-2" class="st0" d="M178.9,157.5l2.7-2.7l0,0c1.5-1.8,3.6-3.9,5.4-5.4l1.8-1.5c0.3-0.3,0.3-0.3,0.3-0.6l-2.1,1.2
			c0,0-0.3,0,0-0.3l1.5-1.2h-0.3c-2.1,0-3.9,0.9-5.1,2.4h-0.6c-2.4,0.9-4.2,3-6.6,3.9l0,0l-3,1.2c-1.2,0.3-2.7,0.3-3.9,0l-6,1.2l0,0
			l-3,1.2h-0.3c0,0.3,0,0.3-0.3,0.3l-0.9,0.9c-0.9,0.6-1.8,1.2-2.7,2.1h-0.3l-2.7,2.7h-0.3c0.3,0,0.3-0.3,0.6-0.6
			c0-0.3,0-0.3,0.3-0.6s0.6-0.9,0.6-1.2l0,0l2.7-1.8l0,0c-0.3,0-0.3,0-0.3-0.3H156c-0.3,0.6-0.6,1.2-1.2,1.2l0,0
			c0-0.3,0-0.3,0.3-0.3l0,0l1.2-0.9l0,0l1.8-1.2h0.3l-2.7,1.2h-0.3c0,0,0,0.3-0.3,0l0,0l0.9-0.9h0.3c5.1-3.9,12.2-3,18.2-5.1
			l1.5-0.9c0.6-0.3,1.2-1.2,2.4-1.5c1.2-0.9,2.1-2.4,2.7-3.9h-0.3c-2.1,0.9-4.5,1.5-6.8,1.5c-3.3,1.2-7.1,1.8-10.7,1.8h0.9
			c0-0.3,0.3-0.6,0.6-0.9h0.6c0-0.3,0-0.3,0.3-0.3h0.6c-0.6-0.6-1.5,0.6-2.4,0s0.3-0.6,0.6-0.9h0.6c0-0.3,0-0.3,0.3-0.6
			c2.4-1.5,4.8-2.4,6.8-3.9c2.1-1.5-0.6,0.6-1.2,0.3c-0.6-0.3,0-0.6,0.3-0.6c1.8-0.6,3.6-1.2,5.1-2.1c-0.6,0-1.2,0.6-1.8,0h0.9v-0.6
			c0-0.3,0-0.3,0.3-0.3h-0.3l0.9-0.6h-0.3c0.6-0.6,1.2-0.9,2.1-0.9c-0.3-0.3-0.9,0-0.9-0.3s0.3-0.3,0.6-0.3h-0.6
			c-0.3,0-0.3,0-0.3-0.3s0-0.3,0.3-0.3l0,0c0.6-1.2,1.2-2.7,1.5-3.9h-0.3c-1.8,1.5-4.2,2.7-6.6,3.3H171c-0.9,0.3-1.8,0.3-2.7-0.3
			l-1.5-1.2l-4.2-2.1c-3.9-1.5-8-2.7-12.2-3c1.8-0.6,3.9-1.2,5.7-1.5c2.7-1.2,5.4-1.5,8-1.5c-0.6-0.3-1.2,0-1.5,0
			c-2.4,0-4.8,0.3-6.8,0.9l-4.8,1.2c-0.9,0.3-1.5,1.5-2.4,1.2v-0.6c1.5-2.1,3.6-3.6,6-3.9c2.7-0.3,5.7-0.3,8.3,0.3l6.3,1.2
			c0.6,0,0.9,1.2,1.5,1.5s1.8,0,3,0.6s-0.3-0.6,0-0.9c0.3-0.3,1.2,0,2.1-0.3c0.9-0.3-1.2-2.1-1.8-3.3l0,0c1.2,1.2,2.4,2.1,3.9,3
			c0.9,0.6,2.7,0.9,2.4,0c-0.9-1.8-2.1-3.3-3.6-4.8v-0.6h-0.6v-1.5c-0.6-0.3-0.3-0.9-0.9-1.2c-0.6-0.3,0-2.1-0.3-3s-0.6-1.8-0.6-2.7
			c-0.6-2.7-1.2-5.1-1.5-7.7c-0.3-3,1.8-5.4,3.3-8c0.9-2.1,2.4-3.9,4.5-5.1c0.6-1.8,1.5-3.6,3-5.1c1.2-1.5,3-2.7,4.8-3.3l4.5-1.8
			h31.9l0.6,0.6l2.4,1.2c1.2,0.6,2.1,1.5,3,2.4c0.3,0.6,0.9,1.5,0.6,2.1s-0.6,2.1-1.2,2.4c-1.2,0.6-2.4,0.6-3.6,0.6l-1.8-0.6
			c2.4,0.9,4.8,2.4,6.3,4.5l1.5,0.6l0,0c-0.3,0.3-0.6,0.6-0.3,0.9h0.3c0.9-0.3,0.6-1.8,1.8-1.2c0.9,0.3,1.2,1.2,0.9,1.8
			c0,0.3-0.3,0.3-0.3,0.6l-1.8,1.5c-0.3,0.3-0.3,0.9,0,1.2l0.9,1.8l0.9,3.6c0.9,2.4,1.2,4.8,1.2,7.1c0,1.2-0.6,2.4-0.3,3.6
			c0.6,1.2,1.2,2.4,1.8,3.6c0.9,0.6,1.5,1.5,1.8,2.4c0.9,1.5,2.7,3.3,2.1,5.1c-0.6,1.8-2.4,0.9-3.6,1.8c-1.2,0.9,0,2.1,0.6,2.7
			s-1.2,2.4-2.1,3s0.9,0.3,0.9,0.6s1.2,1.2,0.6,2.1c-0.6,0.9-2.7,1.5-1.5,3s0,2.4-0.3,3.3c-0.6,1.2-1.5,2.1-3,2.4
			c-0.9,0.6-2.1,0.6-3,0.3h-0.9c-2.7-0.6-5.4-0.9-8-1.2l-2.4,0.6l-1.8,1.8h-0.9l-1.2,1.8l0,0c0,0.3,0,0.3-0.3,0.3l-1.2,3
			c-0.9,3.6-0.6,6.8,0.3,7.4c0.9,0.6,5.4,1.8,8.6,3.6l3.9,1.8h-65.5c3.3-2.1,6.8-3.9,10.4-5.4c3-1.2,5.7-2.7,8-4.8 M154.5,145.2
			c-0.3,0-0.9,0.3-0.9,0s1.2-0.9,2.1-1.2c0.9-0.3,0.6-0.6,0.9-0.3l1.2,0.6C156.9,145.2,155.7,144.9,154.5,145.2 M130.1,141.7
			L130.1,141.7c1.8-2.4,3.6-5.1,5.1-8c1.8-1.2,3.6-2.4,5.4-3.9c2.4-3,5.7-5.4,8.9-7.1c1.5-0.3,3-0.3,4.2,0.3
			c-0.6,0.6-1.5,0.6-2.1,0.9h-0.3v-0.6c-1.5,1.8-3.9,2.7-5.1,4.8c-1.2,2.1-1.5,3.6-3.6,3.9c-2.1,0.3,0-0.3-0.3-0.3
			c-4.5,3.3-8.6,6.8-12.2,11 M143.2,132.1c0,0.3-0.3,0.3-0.3,0.6s-0.3,0.6-0.6,0.6H142C142,132.7,142.6,131.8,143.2,132.1
			L143.2,132.1 M150.6,155.7c0,0.3-0.3,0.3-0.3,0.6s0.3,0,0.3,0.3l-1.2,0.6c-0.3,0-0.3,0-0.3,0.3h-0.6c-0.3,0.3-1.2,0.3-0.9,0
			l1.2-1.2c0.3-0.3,0.6-0.3,0.6-0.6L150.6,155.7 M147.9,154.5L147.9,154.5l-2.1,1.2l-2.1,0.9h-0.3l-1.5,1.2H141c0,0.3,0,0.3-0.3,0.3
			h-0.3c0,0.3,0,0.3-0.3,0.3h-0.3c-0.3,0.3-0.6,0.3-0.6,0.6l-0.9,0.9h-0.9l0.6-0.6h0.6c0-0.3,0.3-0.6,0.6-0.6l0,0l0,0
			c0-0.3,0-0.3,0.3-0.3l0,0c0.3-0.3,0.3-0.3,0.3-0.6l0,0c0.3-0.3,0.6-0.6,0.6-0.9l0,0l-0.6,0.6c-0.3,0-0.3,0-0.3-0.3
			c0.3,0,0.3,0,0.3-0.3h0.3l0.6-0.9h0.6v-0.6l0,0c1.8-1.5,4.2-1.2,6.3-2.4s1.8,0.3,2.4,0h1.5l-3.9,2.7 M150.9,144.6
			c-0.3-0.3,0.3,0,0.6-0.6h-1.2l-2.7,0.9l-3.3,1.2c-1.5,0.9-3.3,1.8-5.1,2.7c-0.3,0-0.3,0-0.3-0.3l1.2-0.9l0,0
			c1.2-1.5,2.7-3,4.5-4.2v-0.6c0.6-0.6,1.2-1.2,1.8-1.8c0.3-0.6,0.9-1.2,1.5-1.5h-0.6c-0.6,0-1.2,0.3-1.8-0.3l0.9-0.6h-0.3
			c-0.3-0.6,0.3-0.9,0.9-0.9l1.8-0.6c-1.2-0.3-2.4,0.3-3.6-0.3c0.6-2.1,2.1-3.9,4.2-4.8h0.3c0,0.9-0.3,1.5-1.2,1.5l3.9,1.2
			c0,0.3,0,0.3-0.3,0.3s-0.3,0-0.3-0.3c0.6,0.6,1.8,0.3,2.4,0.9s-0.9,0-1.2,0c4.8,1.5,10.1,2.4,14.3,5.7c-3.6,1.2-7.1,1.5-11,1.5
			h-1.5c-0.6,0-1.2,0-1.5,0.6h-2.1"/>
		<path id="Rouge" class="st1" d="M178.9,157.5l2.7-2.7l0,0c1.5-1.8,3.6-3.9,5.4-5.4l1.8-1.5c0.3-0.3,0.3-0.3,0.3-0.6l-2.1,1.2
			c0,0-0.3,0,0-0.3l1.5-1.2h-0.3c-2.1,0-3.9,0.9-5.1,2.4h-0.6c-2.4,0.9-4.2,3-6.6,3.9l0,0l-3,1.2c-1.2,0.3-2.7,0.3-3.9,0l-6,1.2l0,0
			l-3,1.2h-0.3c0,0.3,0,0.3-0.3,0.3l-0.9,0.9l-2.7,2.1c-0.3,0-0.3,0-0.3,0.3l-2.7,2.4h-0.3c0.3,0,0.3-0.3,0.6-0.6
			c0-0.3,0-0.3,0.3-0.6s0.6-0.9,0.6-1.2l0,0l2.7-1.8l0,0c-0.3,0-0.3,0-0.3-0.3H156c-0.3,0.6-0.6,1.2-1.2,1.2l0,0
			c0-0.3,0-0.3,0.3-0.3l0,0l1.2-0.9l0,0l1.8-1.2h0.3l-2.7,1.2h-0.3c0,0,0,0.3-0.3,0l0,0l0.9-0.9h0.3c5.1-3.9,12.2-3,18.2-5.1
			l1.5-0.9c0.6-0.3,1.2-1.2,2.4-1.5c1.2-0.9,2.1-2.4,2.7-3.9h-0.3c-2.1,0.9-4.5,1.5-6.8,1.5c-3.3,1.2-7.1,1.8-10.7,1.8h0.9
			c0-0.3,0.3-0.6,0.6-0.9h0.6c0-0.3,0-0.3,0.3-0.3h0.6c-0.6-0.6-1.5,0.6-2.4,0s0.3-0.6,0.6-0.9h0.6c0-0.3,0-0.3,0.3-0.6
			c2.4-1.5,4.8-2.4,6.8-3.9c2.1-1.5-0.6,0.6-1.2,0.3c-0.6-0.3,0-0.6,0.3-0.6c1.8-0.6,3.6-1.2,5.1-2.1c-0.6,0-1.2,0.6-1.8,0h0.9v-0.6
			c0-0.3,0-0.3,0.3-0.3h-0.3l0.9-0.6h-0.3c0.6-0.6,1.2-0.9,2.1-0.9c-0.3-0.3-0.9,0-0.9-0.3s0.3-0.3,0.6-0.3h-0.6
			c-0.3,0-0.3,0-0.3-0.3s0-0.3,0.3-0.3l0,0c0.6-1.2,1.2-2.7,1.5-3.9h-0.3c-1.8,1.5-4.2,2.7-6.6,3.3H171c-0.9,0.3-1.8,0.3-2.7-0.3
			l-1.5-1.2l-4.2-2.1c-3.9-1.5-8-2.7-12.2-3c1.8-0.6,3.9-1.2,5.7-1.5c2.7-1.2,5.4-1.5,8-1.5c-0.6-0.3-1.2,0-1.5,0
			c-2.4,0-4.8,0.3-6.8,0.9l-4.8,1.2c-0.9,0.3-1.5,1.5-2.4,1.2v-0.6c1.5-2.1,3.6-3.6,6-3.9c2.7-0.3,5.7-0.3,8.3,0.3l6.3,1.2
			c0.6,0,0.9,1.2,1.5,1.5s1.8,0,3,0.6s-0.3-0.6,0-0.9c0.3-0.3,1.2,0,2.1-0.3c0.9-0.3-1.2-2.1-1.8-3.3l0,0c1.5,0.9,2.4,2.4,3.9,3
			c1.5,0.6,2.7,0.9,2.4,0c-0.9-1.8-2.1-3.3-3.6-4.8v-0.6h-0.6v-1.5c-0.6-0.3-0.3-0.9-0.6-1.2c-0.3-0.3-0.3-2.1-0.6-3
			s-0.6-1.8-0.6-2.7c-0.6-2.7-1.2-5.1-1.5-7.7c-0.3-3,1.8-5.4,3.3-8c0.9-2.1,2.4-3.9,4.5-5.1c0.6-1.8,1.5-3.6,3-5.1
			c1.2-1.5,3-2.7,4.8-3.3l4.5-1.8H83v84.6h77.4c3.3-2.1,6.8-3.9,10.4-5.4C173.8,161,176.5,159.5,178.9,157.5 M154.5,146.1
			c-0.3,0-0.9,0.3-0.9,0s1.2-0.9,2.1-1.2c0.9-0.3,0.6-0.6,0.9-0.3l1.2,0.6C156.9,146.1,155.7,145.8,154.5,146.1 M130.1,142.6
			L130.1,142.6c1.8-2.4,3.6-5.1,5.1-8c2.1-1.2,3.9-3,5.4-4.8c2.4-3,5.7-5.4,8.9-7.1c1.5-0.3,3-0.3,4.2,0.3c-0.6,0.6-1.5,0.6-2.1,0.9
			h-0.3v-0.6c-1.5,1.8-3.9,2.7-5.1,4.8c-1.2,2.1-1.5,3.6-3.6,3.9c-2.1,0.3,0-0.3-0.3-0.3C137.8,134.8,133.6,138.4,130.1,142.6
			 M143.2,132.1c0,0.3-0.3,0.3-0.3,0.6s-0.3,0.6-0.6,0.6H142C142,132.7,142.6,131.8,143.2,132.1L143.2,132.1 M150.6,155.7
			c0,0.3-0.3,0.3-0.3,0.6s0.3,0,0.3,0.3l-1.2,0.6h-0.9c-0.3,0.3-1.2,0.3-0.9,0l1.2-1.2c0.3-0.3,0.6-0.3,0.6-0.6c0.3,0,0.3,0,0.3-0.3
			h0.9 M147.9,153.9L147.9,153.9l-2.1,1.2l-2.1,0.9h-0.3l-1.5,1.2H141c0,0.3,0,0.3-0.3,0.3h-0.3c0,0.3,0,0.3-0.3,0.3h-0.3
			c-0.3,0.3-0.6,0.3-0.6,0.6l-0.9,0.9h-0.9l0.6-0.6h0.6c0-0.3,0.3-0.6,0.6-0.6l0,0l0,0c0-0.3,0-0.3,0.3-0.3l0,0
			c0.3-0.3,0.3-0.3,0.3-0.6l0,0c0.3-0.3,0.6-0.6,0.6-0.9l0,0l-0.6,0.6c-0.3,0-0.3,0-0.3-0.3c0.3,0,0.3,0,0.3-0.3h0.3l0.6-0.9h0.6
			v-0.6l0,0c1.8-1.5,4.2-1.2,6.3-2.4s1.8,0.3,2.4,0h1.5l-3.9,2.7 M150.9,144.1c-0.3-0.3,0.3,0,0.6-0.6h-1.2l-2.7,0.9l-3.3,1.2
			c-1.5,0.9-3.3,1.8-5.1,2.7c-0.3,0-0.3,0-0.3-0.3l1.2-0.9l0,0c1.2-1.5,2.7-3,4.5-4.2v-0.6c0.6-0.6,1.2-1.2,1.8-1.8
			c0.3-0.6,0.9-1.2,1.5-1.5h-0.6c-0.6,0-1.2,0.3-1.8-0.3l0.9-0.6h-0.3c-0.3-0.6,0.3-0.9,0.9-0.9l1.8-0.6c-1.2-0.3-2.4,0.3-3.6-0.3
			c0.6-2.1,2.1-3.9,4.2-4.8h0.3c0,0.9-0.3,1.5-1.2,1.5l3.9,1.2c0,0.3,0,0.3-0.3,0.3s-0.3,0-0.3-0.3c0.6,0.6,1.8,0.3,2.4,0.9
			s-0.9,0-1.2,0c4.8,1.5,10.1,2.4,14.3,5.7c-3.6,1.2-7.1,2.1-11,2.1h-1.5c-0.6,0-1.2,0-1.5,0.6h-2.1"/>
		<path id="Bleu" class="st2" d="M315,83h-90.5l0.6,0.6l2.4,1.2c1.2,0.6,2.1,1.5,3,2.4c0.3,0.6,0.9,1.5,0.6,2.1s-0.6,2.1-1.2,2.4
			c-1.2,0.6-2.4,0.6-3.6,0.6l-1.8-0.6c2.4,0.9,4.8,2.4,6.3,4.5l1.5,0.6l0,0c-0.3,0.3-0.6,0.6-0.3,0.9h0.3c0.9-0.3,0.6-1.8,1.8-1.2
			c0.9,0.3,1.2,1.2,0.9,1.8c0,0.3-0.3,0.3-0.3,0.6l-1.8,1.5c-0.3,0.3-0.3,0.9,0,1.2l0.9,1.8l0.9,3.6c0.9,2.4,1.2,4.8,1.2,7.1
			c0,1.2-0.6,2.4,0,3.6c0.3,1.2,0.9,2.4,1.5,3.6c0.9,0.6,1.5,1.5,1.8,2.4c1.2,1.5,2.7,3.3,2.1,5.1c-0.6,1.8-2.4,0.9-3.6,1.8
			c-1.2,0.9,0,2.1,0.6,2.7s-1.2,2.4-2.1,3c-0.9,0.6,0.9,0.3,0.9,0.6s1.2,1.2,0.6,2.1c-0.6,0.9-2.7,1.5-1.5,3s0,2.4-0.3,3.3
			c-0.6,1.2-1.5,2.1-3,2.4c-0.9,0.6-2.1,0.6-3,0.3H229c-2.7-0.6-5.4-0.9-8-1.2l-2.4,0.6l-1.8,1.8h-0.9l-1.2,1.8l0,0
			c0,0.3,0,0.3-0.3,0.3l-1.2,3c-0.9,3.6-0.6,6.8,0.3,7.4c0.9,0.6,5.4,1.8,8.6,3.6l3.9,1.8h89V83z"/>
		<path id="Yeux" class="st3" d="M229.8,114h1.5c-0.3,1.5-2.1,1.8-3.3,3h-0.3c-0.6,0.3-0.3,1.2-0.9,1.2c-0.6,0-0.9,0-1.5,0
			c0.6,0.9,1.5,1.2,2.4,1.2l0.6,0.6h0.6v0.9c-0.6,0.6-1.2,0.3-1.8,0.6h3.6c0.9-0.6,0-2.1,0.6-3s0-0.3-0.3-0.3s0.6-0.9,0.9-0.9
			c0.3,0,0.9-0.3,0.9-0.6s-0.6-0.6-0.3-0.9s1.8-1.5,1.5-2.4s-1.5-0.6-2.4-0.9s-1.8,0-2.7,0.3l-2.4,0.6l-3,1.5
			c1.2-0.6,2.4-0.9,3.6-0.9C228,113.7,228.9,113.7,229.8,114"/>
	</g>
</g>
<g>
	<path class="st4" d="M994.6,83.2c-4.2-0.2-8.5-0.5-12.8-0.5c-59,0-112.6,25.1-159.4,75.1c-42.5,45.3-56.7,82-56.7,125.9
		c0,23.7,4.2,49.4,10.4,79.8c11.5,57.2,45.6,112.4,93.3,151.6c36.3,30,77,45.1,119.7,45.6c22.2,0.2,44.9-3.8,68-11.8
		c74.6-25.7,145.7-99.4,173.4-179c8.7-25.3,13-49.8,12.8-73.2c-0.2-57.2-26.2-107.2-76-142.9C1107.1,110.1,1049,86.5,994.6,83.2z"/>
	<g>
		<path class="st0" d="M909.7,322.2h-16.3v0.5c-0.2,3.1-2.2,31-26.9,31c-22.2,0-33.5-20.1-33.5-59.3c0-39.4,11.4-59.3,33.5-59.3
			c25.3,0,26.9,29.8,26.9,31v0.5h16.3c1.4,0,3.1-0.7,4-1.7c0.9-0.9,1.4-2.3,1.4-3.8c-0.2-7.8-4.2-46.3-49.1-46.3
			c-36.1,0-55.3,27.4-55.3,79.6s19.2,79.8,55.3,79.8c43.2,0,48.4-35.2,49.1-46.1c0-1.4-0.5-2.8-1.4-4
			C912.5,322.9,911.1,322.2,909.7,322.2z"/>
		<path class="st0" d="M1164.3,284.8L1164.3,284.8l-14.2-6.1c-13.4-5.9-18.4-11.8-18.4-22.2c0-13.4,10-22.7,24.8-22.7
			c8.7,0,15.8,1.9,24.6,10.6l0.5,0.5l7.6-6.9c4.2-4,3.1-7.8,1.2-10.1c-7.3-8.7-19.2-13.4-33.3-13.4c-27.1,0-46.7,17.7-46.7,42.1
			c0,24.1,15.1,34,31.4,41.3l14.4,6.4c14.4,6.4,21.2,12,21.2,26c0,18.9-17.3,24.1-27.4,24.1c-8.7,0-18.4-1.9-30.5-15.4l-0.5-0.5
			l-7.8,6.9c-4,3.6-4,6.6-0.2,11.5c10.9,13.9,26.7,16.8,38,16.8c24.6,0,49.6-15.1,49.6-43.9C1199,304.9,1185,293.8,1164.3,284.8z"/>
		<path class="st0" d="M1025.2,260.3c0-24.6-19.8-45.3-44.6-45.3c-11.5,0-22.2,4.5-30,11.5V218h-14.9c-4.5,0-6.1,2.8-6.1,6.4V368
			c0,4,2.3,6.1,6.1,6.1h14.9V261.3c0-14.9,12-26.9,26.9-26.9s26.9,12,26.9,26.9v112.9h14.6c4,0,6.1-2.3,6.1-6.1
			C1025.2,368,1025.2,260.5,1025.2,260.3z"/>
		<path class="st0" d="M1109.9,225.6c0.7-0.9,1.2-2.2,1.2-3.6c0-2.3-1.7-4.5-3.8-5.2c-4.2-1.4-8.7-2.2-13.7-2.2
			c-11.5,0-22.2,4.5-30,11.5v-8.5h-14.9c-4.5,0-6.1,2.8-6.1,6.4v143.6c0,4,2.3,6.1,6.1,6.1h14.9V261c0-14.9,12-26.9,26.9-26.9
			c3.8,0,7.6,0.9,10.9,2.3L1109.9,225.6L1109.9,225.6z"/>
	</g>
</g>
</svg>
