<?xml version="1.0" standalone="no"?>
<!DOCTYPE svg PUBLIC "-//W3C//DTD SVG 20010904//EN"
 "http://www.w3.org/TR/2001/REC-SVG-20010904/DTD/svg10.dtd">
<svg version="1.0" xmlns="http://www.w3.org/2000/svg"
 width="256.000000pt" height="192.000000pt" viewBox="0 0 256.000000 192.000000"
 preserveAspectRatio="xMidYMid meet">
<metadata>
Created by potrace 1.16, written by Peter Selinger 2001-2019
</metadata>
<g transform="translate(0.000000,192.000000) scale(0.100000,-0.100000)"
fill="#000000" stroke="none">
<path d="M1023 1635 c-38 -16 -36 -13 -22 -53 5 -16 19 -32 30 -35 10 -3 19
-12 19 -20 0 -26 107 -231 158 -303 63 -88 160 -188 244 -249 79 -59 78 -57
38 -43 -119 41 -603 310 -698 388 -22 18 -22 19 -5 49 18 31 18 32 -7 51 -14
11 -33 20 -42 20 -31 0 -147 -182 -135 -212 9 -25 64 -40 81 -23 12 12 36 4
172 -59 88 -40 207 -92 266 -116 72 -29 105 -47 98 -54 -17 -17 -12 -24 21
-31 17 -4 29 -9 27 -11 -2 -2 -51 5 -108 15 -58 11 -175 26 -260 35 -85 9
-179 19 -208 22 l-53 6 7 32 c5 29 3 34 -18 39 -12 4 -35 7 -49 7 -25 0 -26
-3 -33 -70 -3 -39 -3 -82 0 -96 6 -24 9 -25 48 -18 22 4 138 7 256 7 169 0
245 -5 355 -22 221 -33 222 -37 10 -43 -190 -5 -229 -11 -222 -32 4 -12 23
-13 117 -3 l65 7 -90 -24 c-93 -25 -211 -72 -304 -122 -38 -21 -55 -25 -58
-16 -6 15 -34 16 -68 0 -31 -14 -31 -20 -3 -69 24 -43 48 -50 86 -23 15 10 21
22 17 34 -5 15 15 29 117 79 177 87 271 112 438 117 l135 4 -65 -18 c-101 -27
-176 -69 -250 -138 -65 -62 -88 -91 -144 -182 -26 -42 -27 -42 -54 -28 -16 8
-51 35 -79 60 -28 25 -57 46 -65 46 -8 0 -25 -12 -39 -26 l-24 -26 60 -55 c64
-58 214 -140 276 -149 32 -5 37 -3 42 17 12 45 8 56 -30 67 -70 22 -71 23 -24
101 23 39 66 97 97 130 169 183 370 208 641 81 47 -22 92 -40 99 -40 17 0 46
57 70 140 30 102 25 290 -9 395 -30 90 -91 201 -123 222 -20 13 -25 11 -50
-11 -29 -24 -29 -25 -11 -53 87 -138 122 -263 115 -410 -3 -52 -9 -98 -14
-103 -13 -13 -206 66 -305 126 -104 62 -269 221 -334 322 -47 73 -104 189
-130 263 -12 34 -12 39 0 39 16 0 19 20 9 58 -7 26 -33 28 -81 7z m18 -515
c68 -39 120 -70 117 -70 -8 0 -313 137 -390 175 l-57 29 16 27 16 27 88 -59
c49 -32 143 -91 210 -129z"/>
<path d="M1416 1628 c-12 -45 -7 -53 47 -72 28 -10 78 -33 110 -52 32 -19 65
-34 72 -34 15 0 45 37 45 56 0 26 -196 124 -249 124 -11 0 -21 -9 -25 -22z"/>
<path d="M1686 513 c-66 -65 -68 -68 -54 -93 25 -45 52 -38 128 36 39 37 70
73 70 79 0 18 -34 45 -56 45 -10 0 -50 -31 -88 -67z"/>
<path d="M1530 401 c-19 -10 -54 -25 -77 -31 -44 -13 -49 -23 -37 -67 4 -14
14 -23 25 -23 26 0 177 59 185 72 8 12 -28 62 -47 65 -8 1 -30 -6 -49 -16z"/>
</g>
</svg>
