<?xml version="1.0" encoding="UTF-8"?>
<svg id="Calque_1" data-name="Calque 1" xmlns="http://www.w3.org/2000/svg" viewBox="0 0 2225.53 620.63">
  <defs>
    <style>
      .cls-1 {
        fill: #00284b;
      }

      .cls-2 {
        fill: #fff;
      }
    </style>
  </defs>
  <g>
    <path class="cls-1" d="m297.15.53C291.57.18,286.03,0,280.52,0c-76.81-.09-146.4,32.63-207.03,97.43C18.36,156.35-.16,203.76,0,261.02c.08,30.63,5.52,64.07,13.57,103.6,15.13,74.33,59.25,146.08,121.06,196.89,47.32,38.89,100.09,58.75,155.7,59.12,28.82.19,58.4-4.85,88.39-15.2,96.81-33.42,189.42-129.08,225.2-232.64,11.33-32.77,16.83-64.67,16.71-95.02-.29-74.18-34.17-139.19-98.92-185.68C443.17,35.67,367.62,4.88,297.15.53"/>
    <g>
      <path class="cls-2" d="m186.62,311.31h-21.29l-.02.6c-.17,4.14-2.63,40.35-35.03,40.35-28.96,0-43.65-25.95-43.68-77.14.03-51.19,14.72-77.14,43.68-77.14,32.96,0,34.96,38.7,35.03,40.34l.02.6h21.29c1.96,0,3.88-.81,5.25-2.21,1.31-1.35,1.99-3.09,1.9-4.91-.44-10.04-5.6-60.14-63.79-60.14-47.02,0-71.87,35.74-71.87,103.35s24.85,103.56,71.87,103.56c56.01,0,62.97-45.76,63.78-59.78.14-1.93-.52-3.79-1.88-5.22-1.36-1.44-3.29-2.26-5.25-2.26"/>
      <path class="cls-2" d="m517.39,262.82h0s-18.33-7.99-18.33-7.99c-17.64-7.75-23.89-15.28-23.89-28.81,0-17.63,12.91-29.48,32.1-29.48,11.35,0,20.66,2.32,32.03,13.91l.62.63,9.79-8.95c5.66-5.26,4.03-10,1.66-13.04-9.55-11.26-24.87-17.44-43.17-17.44-35.28,0-60.89,23.02-60.89,54.73s19.65,44.22,40.88,53.66l18.71,8.35c18.8,8.43,27.76,15.62,27.76,33.7,0,24.68-22.29,31.26-35.47,31.26-11.33,0-23.95-2.43-39.45-19.99l-.61-.69-10.19,8.95c-5.25,4.62-5.29,8.57-.18,15.14,14.03,18.04,34.6,21.83,49.39,21.83,31.98,0,64.36-19.64,64.36-57.18,0-32.49-18.04-46.92-45.13-58.58"/>
      <path class="cls-2" d="m336.61,230.86c0-31.94-25.88-59.01-57.84-59.01-15.03,0-28.72,5.73-39,15.13v-10.98h-19.24c-5.8,0-8.01,3.78-8.01,8.13v186.4c0,5.25,3.2,8.05,7.92,8.05h19.25v-146.59c0-19.26,15.62-34.87,34.88-34.87s34.87,15.61,34.87,34.87v146.62h19.12c5.3,0,8.05-2.95,8.05-8.02v-139.73Z"/>
      <path class="cls-2" d="m446.96,185.79c1.01-1.25,1.63-2.81,1.63-4.53,0-3.21-2.09-5.91-4.97-6.88-5.57-1.86-11.5-2.89-17.66-2.89-15.03,0-28.72,5.73-39,15.13v-10.98h-19.24c-5.8,0-8.02,3.78-8.02,8.13v186.4c0,5.25,3.21,8.05,7.93,8.05h19.24v-146.59c0-19.26,15.62-34.87,34.88-34.87,5.05,0,9.83,1.09,14.15,3.02l11.12-13.95-.06-.04Z"/>
    </g>
  </g>
  <g>
    <polygon class="cls-1" points="783.07 242.93 855.65 352.29 882.24 352.29 882.24 198.04 855.65 198.04 855.65 307.56 783.28 198.04 756.48 198.04 756.48 352.29 783.07 352.29 783.07 242.93"/>
    <path class="cls-1" d="m1029.62,327.07c4.99-8.79,7.49-19.17,7.49-31.12v-97.9h-27.01v96.22c0,10.97-2.95,19.45-8.86,25.43-5.91,5.98-14.35,8.97-25.32,8.97s-19.2-2.95-25.11-8.86c-5.91-5.91-8.86-14.42-8.86-25.53v-96.22h-27.01v97.9c0,11.96,2.5,22.37,7.49,31.23,4.99,8.86,12.06,15.69,21.21,20.47,9.14,4.78,19.9,7.17,32.28,7.17s23.35-2.43,32.49-7.28c9.14-4.85,16.21-11.67,21.21-20.47Z"/>
    <path class="cls-1" d="m1096.57,345.01c11.04,6.54,24.09,9.81,39.14,9.81,12.24,0,23.32-2.25,33.23-6.75,9.92-4.5,18.15-10.83,24.69-18.99,6.54-8.16,10.79-17.58,12.76-28.27h-28.06c-2.53,8.58-7.56,15.4-15.09,20.47-7.53,5.06-16.56,7.6-27.11,7.6-9.28,0-17.41-2.22-24.37-6.65-6.96-4.43-12.34-10.69-16.14-18.78-3.8-8.09-5.7-17.48-5.7-28.17s1.9-20.68,5.7-28.7,9.18-14.21,16.14-18.57c6.96-4.36,15.09-6.54,24.37-6.54,10.41,0,19.23,2.5,26.48,7.49,7.24,4.99,12.2,11.99,14.88,20.99h28.48c-1.69-11.11-5.7-20.71-12.03-28.8-6.33-8.09-14.35-14.38-24.05-18.88-9.71-4.5-20.68-6.75-32.92-6.75-14.91,0-28.06,3.31-39.46,9.92-11.39,6.61-20.22,15.9-26.48,27.85-6.26,11.96-9.39,25.95-9.39,41.99s3.06,30.21,9.18,42.09c6.12,11.89,14.7,21.1,25.74,27.64Z"/>
    <polygon class="cls-1" points="1322.3 352.29 1322.3 327.39 1257.94 327.39 1257.94 198.04 1230.93 198.04 1230.93 352.29 1235.57 352.29 1257.94 352.29 1322.3 352.29"/>
    <polygon class="cls-1" points="1437.27 327.39 1368.48 327.39 1368.48 286.45 1430.09 286.45 1430.09 262.61 1368.48 262.61 1368.48 222.94 1437.27 222.94 1437.27 198.04 1341.47 198.04 1341.47 352.29 1437.27 352.29 1437.27 327.39"/>
    <polygon class="cls-1" points="1419.12 155.85 1395.28 155.85 1379.45 187.07 1398.65 187.07 1419.12 155.85"/>
    <path class="cls-1" d="m1536.39,198.04h-27.64l-55.7,154.24h27.85l12.66-35.66h57.6l12.45,35.66h28.49l-55.7-154.24Zm-35.03,95.79l17.72-49.8c.7-2.11,1.37-4.25,2-6.44.63-2.18,1.09-3.97,1.37-5.38.14,1.55.56,3.38,1.27,5.49.7,2.11,1.33,4.22,1.9,6.33l17.72,49.8h-41.99Z"/>
    <rect class="cls-1" x="1610.39" y="198.04" width="27.01" height="154.24"/>
    <path class="cls-1" d="m1786.87,352.29l-29.33-63.3c9.14-3.8,16.07-9.32,20.78-16.56,4.71-7.24,7.07-16,7.07-26.27,0-15.19-4.89-27.01-14.67-35.45-9.78-8.44-23.39-12.66-40.83-12.66h-58.87v154.24h27.01v-57.6h33.13l26.16,57.6h29.54Zm-36.92-87.99c-4.78,4.36-11.47,6.54-20.04,6.54h-31.86v-48.74h31.86c8.58,0,15.26,2.08,20.04,6.22,4.78,4.15,7.17,10.09,7.17,17.83s-2.39,13.79-7.17,18.15Z"/>
    <polygon class="cls-1" points="1908.22 327.39 1839.43 327.39 1839.43 286.45 1901.04 286.45 1901.04 262.61 1839.43 262.61 1839.43 222.94 1908.22 222.94 1908.22 198.04 1812.42 198.04 1812.42 352.29 1908.22 352.29 1908.22 327.39"/>
    <path class="cls-1" d="m876.79,548.84c6.05-11.46,9.07-24.86,9.07-40.2h-25.11c0,10.08-1.38,18.82-4.12,26.25l-31.11-34.84c9.02-6.06,15.7-12.09,20.04-18.1,4.92-6.82,7.38-14.31,7.38-22.47,0-6.75-1.62-12.69-4.85-17.83-3.24-5.13-7.7-9.11-13.4-11.92-5.7-2.81-12.34-4.22-19.94-4.22s-14.35,1.51-20.26,4.54c-5.91,3.03-10.59,7.17-14.03,12.45-3.45,5.27-5.17,11.36-5.17,18.25,0,6.05,1.4,11.85,4.22,17.41,2.56,5.05,6.76,10.95,12.57,17.69-6.43,3.15-12.03,6.57-16.79,10.27-6.33,4.93-11.11,10.34-14.35,16.25-3.24,5.91-4.85,12.24-4.85,18.99,0,8.72,2.35,16.32,7.07,22.79,4.71,6.47,11.29,11.57,19.73,15.3,8.44,3.73,18.21,5.59,29.33,5.59,14.91,0,27.88-3.17,38.93-9.5,2.62-1.5,5.09-3.15,7.43-4.94l10.4,11.69h29.96l-25.2-28.23c1.08-1.68,2.1-3.41,3.05-5.22Zm-73.01-98.96c2.67-2.6,6.33-3.9,10.97-3.9s7.98,1.27,10.44,3.8c2.46,2.53,3.69,6.05,3.69,10.55,0,5.77-1.58,10.97-4.75,15.61-2.57,3.77-6.29,7.11-11.12,10.04-2.95-3.48-5.37-6.54-7.23-9.2-2.18-3.09-3.73-5.91-4.64-8.44-.92-2.53-1.37-5.13-1.37-7.81,0-4.5,1.33-8.05,4.01-10.66Zm11.39,112.99c-9.85,0-17.62-2.11-23.32-6.33s-8.55-10.13-8.55-17.72c0-4.5.91-8.58,2.74-12.24,1.83-3.66,4.67-7.1,8.55-10.34,2.69-2.25,5.96-4.43,9.77-6.55l39.24,44.09c-7.4,6.05-16.88,9.09-28.44,9.09Z"/>
    <path class="cls-1" d="m1089.9,451.99c-4.22-7.52-10.13-13.4-17.72-17.62s-16.6-6.33-27.01-6.33h-60.98v154.24h27.01v-53.17h33.97c10.41,0,19.41-2.14,27.01-6.44,7.6-4.29,13.5-10.27,17.72-17.94,4.22-7.67,6.33-16.42,6.33-26.27s-2.11-18.95-6.33-26.48Zm-29.22,46c-4.85,4.71-11.92,7.07-21.21,7.07h-28.27v-52.96h28.7c9,0,15.93,2.25,20.78,6.75,4.85,4.5,7.28,10.97,7.28,19.41s-2.43,15.02-7.28,19.73Z"/>
    <path class="cls-1" d="m1147.67,428.05l-55.7,154.24h27.85l12.66-35.66h57.6l12.45,35.66h28.49l-55.7-154.24h-27.64Zm-7.39,95.79l17.72-49.8c.7-2.11,1.37-4.25,2-6.44.63-2.18,1.09-3.97,1.37-5.38.14,1.55.56,3.38,1.27,5.49.7,2.11,1.33,4.22,1.9,6.33l17.72,49.8h-41.99Z"/>
    <path class="cls-1" d="m1356.6,502.42c4.71-7.24,7.07-16,7.07-26.27,0-15.19-4.89-27.01-14.67-35.45-9.78-8.44-23.39-12.66-40.83-12.66h-58.87v154.24h27.01v-57.6h33.13l26.16,57.6h29.54l-29.33-63.3c9.14-3.8,16.07-9.32,20.78-16.56Zm-28.38-8.12c-4.78,4.36-11.47,6.54-20.04,6.54h-31.86v-48.74h31.86c8.58,0,15.26,2.08,20.04,6.22,4.78,4.15,7.17,10.1,7.17,17.83s-2.39,13.79-7.17,18.15Z"/>
    <polygon class="cls-1" points="1377.91 452.94 1423.06 452.94 1423.06 582.29 1450.07 582.29 1450.07 452.94 1495.23 452.94 1495.23 428.05 1377.91 428.05 1377.91 452.94"/>
    <rect class="cls-1" x="1513.62" y="428.05" width="27.01" height="154.24"/>
    <path class="cls-1" d="m1668.28,551.27c-7.53,5.06-16.56,7.6-27.11,7.6-9.28,0-17.41-2.22-24.37-6.65s-12.34-10.69-16.14-18.78c-3.8-8.09-5.7-17.48-5.7-28.17s1.9-20.68,5.7-28.7,9.18-14.21,16.14-18.57c6.96-4.36,15.09-6.54,24.37-6.54,10.41,0,19.23,2.5,26.48,7.49,7.24,4.99,12.2,11.99,14.88,20.99h28.48c-1.69-11.11-5.7-20.71-12.03-28.8-6.33-8.09-14.35-14.38-24.05-18.88-9.71-4.5-20.68-6.75-32.92-6.75-14.91,0-28.06,3.31-39.46,9.92-11.39,6.61-20.22,15.9-26.48,27.85-6.26,11.96-9.39,25.95-9.39,41.99s3.06,30.21,9.18,42.09c6.12,11.89,14.7,21.1,25.74,27.64,11.04,6.54,24.09,9.81,39.14,9.81,12.24,0,23.32-2.25,33.23-6.75,9.92-4.5,18.15-10.83,24.69-18.99,6.54-8.16,10.79-17.58,12.76-28.27h-28.06c-2.53,8.58-7.56,15.4-15.09,20.47Z"/>
    <path class="cls-1" d="m1829.15,524.26c0,10.97-2.95,19.45-8.86,25.43-5.91,5.98-14.35,8.97-25.32,8.97s-19.2-2.95-25.11-8.86-8.86-14.42-8.86-25.53v-96.22h-27.01v97.9c0,11.96,2.5,22.37,7.49,31.23,4.99,8.86,12.06,15.69,21.21,20.47,9.14,4.78,19.9,7.17,32.28,7.17s23.35-2.43,32.49-7.28c9.14-4.85,16.21-11.67,21.21-20.47,4.99-8.79,7.49-19.16,7.49-31.12v-97.9h-27.01v96.22Z"/>
    <polygon class="cls-1" points="1915.87 428.05 1888.86 428.05 1888.86 582.29 1893.5 582.29 1915.87 582.29 1980.22 582.29 1980.22 557.39 1915.87 557.39 1915.87 428.05"/>
    <polygon class="cls-1" points="1999.4 582.29 2095.19 582.29 2095.19 557.39 2026.41 557.39 2026.41 516.45 2088.02 516.45 2088.02 492.61 2026.41 492.61 2026.41 452.94 2095.19 452.94 2095.19 428.05 1999.4 428.05 1999.4 582.29"/>
    <path class="cls-1" d="m2215.82,510.23c-6.47-6.82-16.32-11.64-29.54-14.45l-24.27-5.49c-6.47-1.55-11.22-3.9-14.24-7.07-3.03-3.17-4.54-7.49-4.54-12.98,0-6.47,2.5-11.57,7.49-15.3,4.99-3.73,11.64-5.59,19.94-5.59,7.6,0,13.64,1.87,18.15,5.59,4.5,3.73,6.89,8.9,7.17,15.51h27.01c-.28-9.28-2.57-17.3-6.86-24.05-4.29-6.75-10.27-11.96-17.94-15.61-7.67-3.66-16.71-5.49-27.11-5.49s-20.36,1.94-28.59,5.8c-8.23,3.87-14.66,9.25-19.31,16.14-4.64,6.89-6.96,14.84-6.96,23.84,0,11.96,3.38,21.63,10.13,29.01s16.67,12.49,29.75,15.3l24.48,5.49c6.33,1.27,10.9,3.48,13.71,6.65,2.81,3.17,4.22,7.42,4.22,12.77,0,6.19-2.64,11.15-7.91,14.88-5.28,3.73-12.42,5.59-21.42,5.59s-15.37-1.86-20.36-5.59c-4.99-3.73-7.56-8.83-7.7-15.3h-27.01c.28,9.15,2.71,17.09,7.28,23.84,4.57,6.75,10.94,11.99,19.1,15.72,8.16,3.73,17.65,5.59,28.48,5.59,11.39,0,21.34-1.94,29.86-5.8,8.51-3.87,15.09-9.39,19.73-16.56,4.64-7.17,6.96-15.47,6.96-24.9,0-11.53-3.24-20.71-9.71-27.54Z"/>
  </g>
</svg>