<?xml version="1.0" encoding="UTF-8"?>
<svg id="Calque_1" data-name="Calque 1" xmlns="http://www.w3.org/2000/svg" viewBox="0 0 2958.65 620.63">
  <defs>
    <style>
      .cls-1 {
        fill: #00284b;
      }

      .cls-2 {
        fill: #fff;
      }
    </style>
  </defs>
  <g>
    <path class="cls-1" d="m297.15.53C291.57.18,286.03,0,280.52,0c-76.81-.09-146.4,32.63-207.03,97.43C18.36,156.35-.16,203.76,0,261.02c.08,30.63,5.52,64.07,13.57,103.6,15.13,74.33,59.25,146.08,121.06,196.89,47.32,38.89,100.09,58.75,155.7,59.12,28.82.19,58.4-4.85,88.39-15.2,96.81-33.42,189.42-129.08,225.2-232.64,11.33-32.77,16.83-64.67,16.71-95.02-.29-74.18-34.17-139.19-98.92-185.68C443.17,35.67,367.62,4.88,297.15.53"/>
    <g>
      <path class="cls-2" d="m186.62,311.31h-21.29l-.02.6c-.17,4.14-2.63,40.35-35.03,40.35-28.96,0-43.65-25.95-43.68-77.14.03-51.19,14.72-77.14,43.68-77.14,32.96,0,34.96,38.7,35.03,40.34l.02.6h21.29c1.96,0,3.88-.81,5.25-2.21,1.31-1.35,1.99-3.09,1.9-4.91-.44-10.04-5.6-60.14-63.79-60.14-47.02,0-71.87,35.74-71.87,103.35s24.85,103.56,71.87,103.56c56.01,0,62.97-45.76,63.78-59.78.14-1.93-.52-3.79-1.88-5.22-1.36-1.44-3.29-2.26-5.25-2.26"/>
      <path class="cls-2" d="m517.39,262.82h0s-18.33-7.99-18.33-7.99c-17.64-7.75-23.89-15.28-23.89-28.81,0-17.63,12.91-29.48,32.1-29.48,11.35,0,20.66,2.32,32.03,13.91l.62.63,9.79-8.95c5.66-5.26,4.03-10,1.66-13.04-9.55-11.26-24.87-17.44-43.17-17.44-35.28,0-60.89,23.02-60.89,54.73s19.65,44.22,40.88,53.66l18.71,8.35c18.8,8.43,27.76,15.62,27.76,33.7,0,24.68-22.29,31.26-35.47,31.26-11.33,0-23.95-2.43-39.45-19.99l-.61-.69-10.19,8.95c-5.25,4.62-5.29,8.57-.18,15.14,14.03,18.04,34.6,21.83,49.39,21.83,31.98,0,64.36-19.64,64.36-57.18,0-32.49-18.04-46.92-45.13-58.58"/>
      <path class="cls-2" d="m336.61,230.86c0-31.94-25.88-59.01-57.84-59.01-15.03,0-28.72,5.73-39,15.13v-10.98h-19.24c-5.8,0-8.01,3.78-8.01,8.13v186.4c0,5.25,3.2,8.05,7.92,8.05h19.25v-146.59c0-19.26,15.62-34.87,34.88-34.87s34.87,15.61,34.87,34.87v146.62h19.12c5.3,0,8.05-2.95,8.05-8.02v-139.73Z"/>
      <path class="cls-2" d="m446.96,185.79c1.01-1.25,1.63-2.81,1.63-4.53,0-3.21-2.09-5.91-4.97-6.88-5.57-1.86-11.5-2.89-17.66-2.89-15.03,0-28.72,5.73-39,15.13v-10.98h-19.24c-5.8,0-8.02,3.78-8.02,8.13v186.4c0,5.25,3.21,8.05,7.93,8.05h19.24v-146.59c0-19.26,15.62-34.87,34.88-34.87,5.05,0,9.83,1.09,14.15,3.02l11.12-13.95-.06-.04Z"/>
    </g>
  </g>
  <g>
    <path class="cls-1" d="m830.97,325.17c-5.28,3.73-12.42,5.59-21.42,5.59s-15.37-1.86-20.36-5.59c-4.99-3.73-7.56-8.83-7.7-15.3h-27.01c.28,9.15,2.71,17.09,7.28,23.84,4.57,6.75,10.94,11.99,19.1,15.72,8.16,3.73,17.65,5.59,28.48,5.59,11.39,0,21.34-1.94,29.86-5.8,8.51-3.87,15.09-9.39,19.73-16.56,4.64-7.17,6.96-15.47,6.96-24.9,0-11.53-3.24-20.71-9.71-27.54-6.47-6.82-16.32-11.64-29.54-14.45l-24.27-5.49c-6.47-1.55-11.22-3.9-14.24-7.07-3.03-3.17-4.54-7.49-4.54-12.98,0-6.47,2.5-11.57,7.49-15.3,4.99-3.73,11.64-5.59,19.94-5.59,7.6,0,13.64,1.87,18.15,5.59,4.5,3.73,6.89,8.9,7.17,15.51h27.01c-.28-9.28-2.57-17.3-6.86-24.05-4.29-6.75-10.27-11.95-17.94-15.61-7.67-3.66-16.71-5.49-27.11-5.49s-20.36,1.94-28.59,5.8c-8.23,3.87-14.66,9.25-19.31,16.14-4.64,6.89-6.96,14.84-6.96,23.84,0,11.96,3.38,21.63,10.13,29.01,6.75,7.39,16.67,12.49,29.75,15.3l24.48,5.49c6.33,1.27,10.9,3.48,13.71,6.65,2.81,3.17,4.22,7.42,4.22,12.77,0,6.19-2.64,11.15-7.91,14.88Z"/>
    <path class="cls-1" d="m1014.81,329.08c6.54-8.16,10.79-17.58,12.76-28.27h-28.06c-2.53,8.58-7.56,15.4-15.09,20.47-7.53,5.06-16.56,7.6-27.11,7.6-9.28,0-17.41-2.22-24.37-6.65-6.96-4.43-12.34-10.69-16.14-18.78-3.8-8.09-5.7-17.48-5.7-28.17s1.9-20.68,5.7-28.7,9.18-14.21,16.14-18.57c6.96-4.36,15.09-6.54,24.37-6.54,10.41,0,19.23,2.5,26.48,7.49,7.24,4.99,12.2,11.99,14.88,20.99h28.48c-1.69-11.11-5.7-20.71-12.03-28.8-6.33-8.09-14.35-14.38-24.05-18.88-9.71-4.5-20.68-6.75-32.92-6.75-14.91,0-28.06,3.31-39.46,9.92-11.39,6.61-20.22,15.9-26.48,27.85-6.26,11.96-9.39,25.95-9.39,41.99s3.06,30.21,9.18,42.09c6.12,11.89,14.7,21.1,25.74,27.64,11.04,6.54,24.09,9.81,39.14,9.81,12.24,0,23.32-2.25,33.23-6.75,9.92-4.5,18.15-10.83,24.69-18.99Z"/>
    <rect class="cls-1" x="1051.99" y="198.04" width="27.01" height="154.24"/>
    <polygon class="cls-1" points="1208.42 327.39 1139.64 327.39 1139.64 286.45 1201.25 286.45 1201.25 262.61 1139.64 262.61 1139.64 222.94 1208.42 222.94 1208.42 198.04 1112.63 198.04 1112.63 352.29 1208.42 352.29 1208.42 327.39"/>
    <polygon class="cls-1" points="1336.75 352.29 1363.34 352.29 1363.34 198.04 1336.75 198.04 1336.75 307.56 1264.38 198.04 1237.58 198.04 1237.58 352.29 1264.17 352.29 1264.17 242.93 1336.75 352.29"/>
    <path class="cls-1" d="m1496.52,348.07c9.92-4.5,18.15-10.83,24.69-18.99,6.54-8.16,10.79-17.58,12.76-28.27h-28.06c-2.53,8.58-7.56,15.4-15.09,20.47-7.53,5.06-16.56,7.6-27.11,7.6-9.28,0-17.41-2.22-24.37-6.65-6.96-4.43-12.34-10.69-16.14-18.78-3.8-8.09-5.7-17.48-5.7-28.17s1.9-20.68,5.7-28.7,9.18-14.21,16.14-18.57c6.96-4.36,15.09-6.54,24.37-6.54,10.41,0,19.23,2.5,26.48,7.49,7.24,4.99,12.2,11.99,14.88,20.99h28.48c-1.69-11.11-5.7-20.71-12.03-28.8-6.33-8.09-14.35-14.38-24.05-18.88-9.71-4.5-20.68-6.75-32.92-6.75-14.91,0-28.06,3.31-39.46,9.92-11.39,6.61-20.22,15.9-26.48,27.85-6.26,11.96-9.39,25.95-9.39,41.99s3.06,30.21,9.18,42.09c6.12,11.89,14.7,21.1,25.74,27.64,11.04,6.54,24.09,9.81,39.14,9.81,12.24,0,23.32-2.25,33.23-6.75Z"/>
    <polygon class="cls-1" points="1654.31 327.39 1585.52 327.39 1585.52 286.45 1647.13 286.45 1647.13 262.61 1585.52 262.61 1585.52 222.94 1654.31 222.94 1654.31 198.04 1558.51 198.04 1558.51 352.29 1654.31 352.29 1654.31 327.39"/>
    <path class="cls-1" d="m1749.72,325.17c-5.28,3.73-12.42,5.59-21.42,5.59s-15.37-1.86-20.36-5.59c-4.99-3.73-7.56-8.83-7.7-15.3h-27.01c.28,9.15,2.71,17.09,7.28,23.84,4.57,6.75,10.94,11.99,19.1,15.72,8.16,3.73,17.65,5.59,28.48,5.59,11.39,0,21.34-1.94,29.86-5.8,8.51-3.87,15.09-9.39,19.73-16.56,4.64-7.17,6.96-15.47,6.96-24.9,0-11.53-3.24-20.71-9.71-27.54-6.47-6.82-16.32-11.64-29.54-14.45l-24.27-5.49c-6.47-1.55-11.22-3.9-14.24-7.07-3.03-3.17-4.54-7.49-4.54-12.98,0-6.47,2.5-11.57,7.49-15.3,4.99-3.73,11.64-5.59,19.94-5.59,7.6,0,13.64,1.87,18.15,5.59,4.5,3.73,6.89,8.9,7.17,15.51h27.01c-.28-9.28-2.57-17.3-6.86-24.05-4.29-6.75-10.27-11.95-17.94-15.61-7.67-3.66-16.71-5.49-27.11-5.49s-20.36,1.94-28.59,5.8c-8.23,3.87-14.66,9.25-19.31,16.14-4.64,6.89-6.96,14.84-6.96,23.84,0,11.96,3.38,21.63,10.13,29.01,6.75,7.39,16.67,12.49,29.75,15.3l24.48,5.49c6.33,1.27,10.9,3.48,13.71,6.65,2.81,3.17,4.22,7.42,4.22,12.77,0,6.19-2.64,11.15-7.91,14.88Z"/>
    <polygon class="cls-1" points="1969.89 261.98 1901.53 261.98 1901.53 198.04 1874.52 198.04 1874.52 352.29 1901.53 352.29 1901.53 286.88 1969.89 286.88 1969.89 352.29 1996.9 352.29 1996.9 198.04 1969.89 198.04 1969.89 261.98"/>
    <path class="cls-1" d="m2124.56,294.26c0,10.97-2.95,19.45-8.86,25.43-5.91,5.98-14.35,8.97-25.32,8.97s-19.2-2.95-25.11-8.86c-5.91-5.91-8.86-14.42-8.86-25.53v-96.22h-27.01v97.9c0,11.96,2.5,22.37,7.49,31.23,4.99,8.86,12.06,15.69,21.21,20.47,9.14,4.78,19.9,7.17,32.28,7.17s23.35-2.43,32.49-7.28c9.14-4.85,16.21-11.67,21.21-20.47,4.99-8.79,7.49-19.17,7.49-31.12v-97.9h-27.01v96.22Z"/>
    <path class="cls-1" d="m2260.23,320.85l-49.8-122.8h-26.16v154.24h26.16v-55.28c0-9.71-.11-18.15-.32-25.32s-.67-13.08-1.37-17.72l39.03,98.33h24.9l39.25-98.54c-.42,2.82-.71,5.63-.84,8.44-.14,2.82-.28,6.05-.42,9.71-.14,3.66-.21,8.12-.21,13.4v66.99h26.16v-154.24h-26.59l-49.8,122.8Z"/>
    <path class="cls-1" d="m2410.73,198.04l-55.7,154.24h27.85l12.66-35.66h57.6l12.45,35.66h28.49l-55.7-154.24h-27.64Zm-7.39,95.79l17.72-49.8c.7-2.11,1.37-4.25,2-6.44.63-2.18,1.09-3.97,1.37-5.38.14,1.55.56,3.38,1.27,5.49.7,2.11,1.33,4.22,1.9,6.33l17.72,49.8h-41.99Z"/>
    <rect class="cls-1" x="2512.37" y="198.04" width="27.01" height="154.24"/>
    <polygon class="cls-1" points="2672.18 307.56 2599.81 198.04 2573.01 198.04 2573.01 352.29 2599.6 352.29 2599.6 242.93 2672.18 352.29 2698.77 352.29 2698.77 198.04 2672.18 198.04 2672.18 307.56"/>
    <polygon class="cls-1" points="2732.52 352.29 2828.32 352.29 2828.32 327.39 2759.53 327.39 2759.53 286.45 2821.15 286.45 2821.15 262.61 2759.53 262.61 2759.53 222.94 2828.32 222.94 2828.32 198.04 2732.52 198.04 2732.52 352.29"/>
    <path class="cls-1" d="m2948.95,280.23c-6.47-6.82-16.32-11.64-29.54-14.45l-24.27-5.49c-6.47-1.55-11.22-3.9-14.24-7.07-3.03-3.17-4.54-7.49-4.54-12.98,0-6.47,2.5-11.57,7.49-15.3,4.99-3.73,11.64-5.59,19.94-5.59,7.6,0,13.64,1.87,18.15,5.59,4.5,3.73,6.89,8.9,7.17,15.51h27.01c-.28-9.28-2.57-17.3-6.86-24.05-4.29-6.75-10.27-11.95-17.94-15.61-7.67-3.66-16.71-5.49-27.11-5.49s-20.36,1.94-28.59,5.8c-8.23,3.87-14.66,9.25-19.31,16.14-4.64,6.89-6.96,14.84-6.96,23.84,0,11.96,3.38,21.63,10.13,29.01,6.75,7.39,16.67,12.49,29.75,15.3l24.48,5.49c6.33,1.27,10.9,3.48,13.71,6.65,2.81,3.17,4.22,7.42,4.22,12.77,0,6.19-2.64,11.15-7.91,14.88-5.28,3.73-12.42,5.59-21.42,5.59s-15.37-1.86-20.36-5.59c-4.99-3.73-7.56-8.83-7.7-15.3h-27.01c.28,9.15,2.71,17.09,7.28,23.84,4.57,6.75,10.94,11.99,19.1,15.72,8.16,3.73,17.65,5.59,28.48,5.59,11.39,0,21.34-1.94,29.86-5.8,8.51-3.87,15.09-9.39,19.73-16.56,4.64-7.17,6.96-15.47,6.96-24.9,0-11.53-3.24-20.71-9.71-27.54Z"/>
    <path class="cls-1" d="m876.76,548.84c6.05-11.46,9.07-24.86,9.07-40.2h-25.11c0,10.08-1.38,18.82-4.12,26.25l-31.11-34.84c9.02-6.06,15.7-12.09,20.04-18.1,4.92-6.82,7.38-14.31,7.38-22.47,0-6.75-1.62-12.69-4.85-17.83-3.24-5.13-7.7-9.11-13.4-11.92-5.7-2.81-12.34-4.22-19.94-4.22s-14.35,1.51-20.26,4.54c-5.91,3.03-10.59,7.17-14.03,12.45-3.45,5.27-5.17,11.36-5.17,18.25,0,6.05,1.4,11.85,4.22,17.41,2.56,5.05,6.76,10.95,12.57,17.69-6.43,3.15-12.03,6.57-16.79,10.27-6.33,4.93-11.11,10.34-14.35,16.25-3.24,5.91-4.85,12.24-4.85,18.99,0,8.72,2.35,16.32,7.07,22.79,4.71,6.47,11.29,11.57,19.73,15.3,8.44,3.73,18.21,5.59,29.33,5.59,14.91,0,27.88-3.17,38.93-9.5,2.62-1.5,5.09-3.15,7.43-4.94l10.4,11.69h29.96l-25.2-28.23c1.08-1.68,2.1-3.41,3.05-5.22Zm-73.01-98.96c2.67-2.6,6.33-3.9,10.97-3.9s7.98,1.27,10.44,3.8c2.46,2.53,3.69,6.05,3.69,10.55,0,5.77-1.58,10.97-4.75,15.61-2.57,3.77-6.29,7.11-11.12,10.04-2.95-3.48-5.37-6.54-7.23-9.2-2.18-3.09-3.73-5.91-4.64-8.44-.92-2.53-1.37-5.13-1.37-7.81,0-4.5,1.33-8.05,4.01-10.66Zm11.39,112.99c-9.85,0-17.62-2.11-23.32-6.33s-8.55-10.13-8.55-17.72c0-4.5.91-8.58,2.74-12.24,1.83-3.66,4.67-7.1,8.55-10.34,2.69-2.25,5.96-4.43,9.77-6.55l39.24,44.09c-7.4,6.05-16.88,9.09-28.44,9.09Z"/>
    <path class="cls-1" d="m1045.35,495.78l-24.27-5.49c-6.47-1.55-11.22-3.9-14.24-7.07-3.03-3.17-4.54-7.49-4.54-12.98,0-6.47,2.5-11.57,7.49-15.3,4.99-3.73,11.64-5.59,19.94-5.59,7.6,0,13.64,1.87,18.15,5.59,4.5,3.73,6.89,8.9,7.17,15.51h27.01c-.28-9.28-2.57-17.3-6.86-24.05-4.29-6.75-10.27-11.96-17.94-15.61-7.67-3.66-16.71-5.49-27.11-5.49s-20.36,1.94-28.59,5.8c-8.23,3.87-14.66,9.25-19.31,16.14-4.64,6.89-6.96,14.84-6.96,23.84,0,11.96,3.38,21.63,10.13,29.01s16.67,12.49,29.75,15.3l24.48,5.49c6.33,1.27,10.9,3.48,13.71,6.65,2.81,3.17,4.22,7.42,4.22,12.77,0,6.19-2.64,11.15-7.91,14.88-5.28,3.73-12.42,5.59-21.42,5.59s-15.37-1.86-20.36-5.59c-4.99-3.73-7.56-8.83-7.7-15.3h-27.01c.28,9.15,2.71,17.09,7.28,23.84,4.57,6.75,10.94,11.99,19.1,15.72,8.16,3.73,17.65,5.59,28.48,5.59,11.39,0,21.34-1.94,29.86-5.8,8.51-3.87,15.09-9.39,19.73-16.56,4.64-7.17,6.96-15.47,6.96-24.9,0-11.53-3.24-20.71-9.71-27.54-6.47-6.82-16.32-11.64-29.54-14.45Z"/>
    <path class="cls-1" d="m1215.16,435.43c-11.18-6.75-24.16-10.13-38.93-10.13s-27.75,3.38-38.93,10.13c-11.18,6.75-19.94,16.14-26.27,28.17s-9.5,25.92-9.5,41.67,3.13,29.4,9.39,41.36c6.26,11.96,15.01,21.31,26.27,28.06,11.25,6.75,24.19,10.13,38.82,10.13s27.78-3.38,39.04-10.13c11.25-6.75,20.04-16.14,26.38-28.17,6.33-12.03,9.5-25.85,9.5-41.46s-3.17-29.61-9.5-41.57c-6.33-11.95-15.09-21.31-26.27-28.06Zm1.79,98.01c-3.8,8.09-9.15,14.35-16.04,18.78-6.89,4.43-15.12,6.65-24.69,6.65s-17.62-2.18-24.58-6.54c-6.96-4.36-12.34-10.58-16.14-18.67-3.8-8.09-5.7-17.62-5.7-28.59s1.9-20.47,5.7-28.49,9.18-14.24,16.14-18.67c6.96-4.43,15.16-6.65,24.58-6.65s17.79,2.22,24.69,6.65c6.89,4.43,12.24,10.66,16.04,18.67,3.8,8.02,5.7,17.51,5.7,28.49s-1.9,20.29-5.7,28.38Z"/>
    <path class="cls-1" d="m1370.22,551.27c-7.53,5.06-16.56,7.6-27.11,7.6-9.28,0-17.41-2.22-24.37-6.65s-12.34-10.69-16.14-18.78c-3.8-8.09-5.7-17.48-5.7-28.17s1.9-20.68,5.7-28.7,9.18-14.21,16.14-18.57c6.96-4.36,15.09-6.54,24.37-6.54,10.41,0,19.23,2.5,26.48,7.49,7.24,4.99,12.2,11.99,14.88,20.99h28.48c-1.69-11.11-5.7-20.71-12.03-28.8-6.33-8.09-14.35-14.38-24.05-18.88-9.71-4.5-20.68-6.75-32.92-6.75-14.91,0-28.06,3.31-39.46,9.92-11.39,6.61-20.22,15.9-26.48,27.85-6.26,11.96-9.39,25.95-9.39,41.99s3.06,30.21,9.18,42.09c6.12,11.89,14.7,21.1,25.74,27.64,11.04,6.54,24.09,9.81,39.14,9.81,12.24,0,23.32-2.25,33.23-6.75,9.92-4.5,18.15-10.83,24.69-18.99,6.54-8.16,10.79-17.58,12.76-28.27h-28.06c-2.53,8.58-7.56,15.4-15.09,20.47Z"/>
    <rect class="cls-1" x="1437.78" y="428.05" width="27.01" height="154.24"/>
    <path class="cls-1" d="m1538.79,428.05l-55.7,154.24h27.85l12.66-35.66h57.6l12.45,35.66h28.49l-55.7-154.24h-27.64Zm-7.39,95.79l17.72-49.8c.7-2.11,1.37-4.25,2-6.44.63-2.18,1.09-3.97,1.37-5.38.14,1.55.56,3.38,1.27,5.49.7,2.11,1.33,4.22,1.9,6.33l17.72,49.8h-41.99Z"/>
    <polygon class="cls-1" points="1667.43 428.05 1640.43 428.05 1640.43 582.29 1645.07 582.29 1667.43 582.29 1731.79 582.29 1731.79 557.39 1667.43 557.39 1667.43 428.05"/>
    <polygon class="cls-1" points="1750.97 582.29 1846.76 582.29 1846.76 557.39 1777.97 557.39 1777.97 516.45 1839.59 516.45 1839.59 492.61 1777.97 492.61 1777.97 452.94 1846.76 452.94 1846.76 428.05 1750.97 428.05 1750.97 582.29"/>
    <path class="cls-1" d="m1937.85,495.78l-24.27-5.49c-6.47-1.55-11.22-3.9-14.24-7.07-3.03-3.17-4.54-7.49-4.54-12.98,0-6.47,2.5-11.57,7.49-15.3,4.99-3.73,11.64-5.59,19.94-5.59,7.6,0,13.64,1.87,18.15,5.59,4.5,3.73,6.89,8.9,7.17,15.51h27.01c-.28-9.28-2.57-17.3-6.86-24.05-4.29-6.75-10.27-11.96-17.94-15.61-7.67-3.66-16.71-5.49-27.11-5.49s-20.36,1.94-28.59,5.8c-8.23,3.87-14.66,9.25-19.31,16.14-4.64,6.89-6.96,14.84-6.96,23.84,0,11.96,3.38,21.63,10.13,29.01s16.67,12.49,29.75,15.3l24.48,5.49c6.33,1.27,10.9,3.48,13.71,6.65,2.81,3.17,4.22,7.42,4.22,12.77,0,6.19-2.64,11.15-7.91,14.88-5.28,3.73-12.42,5.59-21.42,5.59s-15.37-1.86-20.36-5.59c-4.99-3.73-7.56-8.83-7.7-15.3h-27.01c.28,9.15,2.71,17.09,7.28,23.84,4.57,6.75,10.94,11.99,19.1,15.72,8.16,3.73,17.65,5.59,28.48,5.59,11.39,0,21.34-1.94,29.86-5.8,8.51-3.87,15.09-9.39,19.73-16.56,4.64-7.17,6.96-15.47,6.96-24.9,0-11.53-3.24-20.71-9.71-27.54-6.47-6.82-16.32-11.64-29.54-14.45Z"/>
  </g>
</svg>