<?xml version="1.0" encoding="UTF-8"?>
<svg id="Calque_1" data-name="Calque 1" xmlns="http://www.w3.org/2000/svg" viewBox="0 0 1875.95 642.76">
  <rect y="11.04" width="108.68" height="620.68"/>
  <polygon points="638.84 451.73 347.61 11.04 239.78 11.04 239.78 631.72 346.76 631.72 346.76 191.69 638.84 631.72 745.83 631.72 745.83 11.04 638.84 11.04 638.84 451.73"/>
  <path d="m1134.44,283.6l-97.65-22.08c-26.04-6.23-45.15-15.71-57.31-28.45-12.18-12.73-18.25-30.14-18.25-52.21,0-26.03,10.04-46.55,30.14-61.56,20.09-14.99,46.83-22.49,80.24-22.49,30.56,0,54.9,7.5,73.02,22.49,18.11,15.01,27.73,35.81,28.87,62.41h108.68c-1.14-37.36-10.33-69.63-27.59-96.8-17.28-27.16-41.33-48.1-72.18-62.83-30.86-14.71-67.22-22.08-109.11-22.08s-81.93,7.79-115.05,23.36c-33.12,15.57-59.01,37.22-77.69,64.95-18.69,27.74-28.02,59.73-28.02,95.95,0,48.12,13.59,87.03,40.76,116.74,27.16,29.72,67.07,50.25,119.72,61.56l98.5,22.08c25.47,5.1,43.86,14.01,55.19,26.75,11.31,12.74,16.98,29.86,16.98,51.37,0,24.91-10.62,44.87-31.84,59.86-21.23,15.01-49.96,22.5-86.19,22.5s-61.85-7.5-81.93-22.5c-20.09-14.99-30.43-35.52-30.99-61.56h-108.68c1.13,36.81,10.9,68.78,29.29,95.95,18.38,27.17,44.01,48.27,76.84,63.26,32.82,14.99,71.03,22.49,114.63,22.49,45.85,0,85.89-7.78,120.14-23.35,34.24-15.56,60.71-37.78,79.4-66.65,18.68-28.88,28.02-62.27,28.02-100.19,0-46.41-13.03-83.34-39.06-110.8-26.04-27.45-65.67-46.83-118.87-58.16Z"/>
  <path d="m1767.26,11.04v387.18c0,44.15-11.89,78.27-35.66,102.32-23.77,24.07-57.74,36.09-101.89,36.09s-77.27-11.89-101.04-35.66c-23.77-23.77-35.66-58.01-35.66-102.74V11.04h-108.69v393.97c0,48.12,10.04,90,30.15,125.67,20.09,35.66,48.53,63.12,85.33,82.36,36.79,19.23,80.09,28.87,129.91,28.87s93.96-9.76,130.76-29.29c36.79-19.53,65.24-46.98,85.33-82.36,20.09-35.37,30.15-77.13,30.15-125.25V11.04h-108.69Z"/>
</svg>