<?xml version="1.0" encoding="utf-8"?>
<!-- Generator: $$$/GeneralStr/196=Adobe Illustrator 27.6.0, SVG Export Plug-In . SVG Version: 6.00 Build 0)  -->
<svg version="1.1" id="Calque_1" xmlns="http://www.w3.org/2000/svg" xmlns:xlink="http://www.w3.org/1999/xlink" x="0px" y="0px"
	 viewBox="0 0 2136.12 1034.47" style="enable-background:new 0 0 2136.12 1034.47;" xml:space="preserve">
<style type="text/css">
	.st0{fill:#FFFFFF;}
</style>
<g>
	<path d="M1051.43,481.99c6.66-2.82,11.86-6.78,15.57-11.93c4.5-6.26,6.75-14.03,6.75-23.32c0-12.94-4.36-23.14-13.08-30.6
		c-8.72-7.45-20.75-11.18-36.08-11.18h-34.18h-9.07H963.4V559.2h17.94h9.07h35.45c10.55,0,19.59-1.65,27.11-4.96
		c7.52-3.3,13.26-8.09,17.2-14.35c3.94-6.26,5.91-13.75,5.91-22.47c0-9.84-2.46-17.86-7.38-24.05
		C1064.57,488.19,1058.8,484.41,1051.43,481.99z M1022.27,428.81c7.73,0,13.64,1.76,17.72,5.27c4.08,3.52,6.12,8.58,6.12,15.19
		c0,6.89-1.97,12.21-5.91,15.93c-3.94,3.73-9.64,5.59-17.09,5.59h-32.71v-41.99H1022.27z M1042.31,529.87
		c-4.08,3.66-9.99,5.49-17.72,5.49h-34.18v-41.78h34.18c7.6,0,13.47,1.79,17.62,5.38c4.15,3.59,6.22,8.62,6.22,15.09
		C1048.43,520.94,1046.39,526.22,1042.31,529.87z"/>
	<rect x="1103.04" y="404.96" width="27.01" height="154.24"/>
	<path d="M1269.33,412.35c-11.18-6.75-24.16-10.13-38.93-10.13c-14.77,0-27.75,3.38-38.93,10.13
		c-11.18,6.75-19.94,16.14-26.27,28.17s-9.5,25.92-9.5,41.67c0,15.61,3.13,29.4,9.39,41.36c6.26,11.96,15.01,21.31,26.27,28.06
		c11.25,6.75,24.19,10.13,38.82,10.13c14.77,0,27.78-3.38,39.04-10.13c11.25-6.75,20.04-16.14,26.38-28.17
		c6.33-12.03,9.5-25.85,9.5-41.46c0-15.75-3.17-29.61-9.5-41.57C1289.26,428.46,1280.51,419.1,1269.33,412.35z M1271.12,510.36
		c-3.8,8.09-9.15,14.35-16.04,18.78c-6.89,4.43-15.12,6.65-24.69,6.65c-9.43,0-17.62-2.18-24.58-6.54
		c-6.96-4.36-12.34-10.58-16.14-18.67c-3.8-8.09-5.7-17.62-5.7-28.59s1.9-20.47,5.7-28.48s9.18-14.24,16.14-18.67
		c6.96-4.43,15.16-6.65,24.58-6.65c9.56,0,17.79,2.22,24.69,6.65c6.89,4.43,12.24,10.66,16.04,18.67c3.8,8.02,5.7,17.51,5.7,28.48
		C1276.82,492.81,1274.92,502.27,1271.12,510.36z"/>
	<polygon points="1357.54,404.96 1330.54,404.96 1330.54,559.2 1335.18,559.2 1357.54,559.2 1421.9,559.2 1421.9,534.31 
		1357.54,534.31 	"/>
	<path d="M1544.7,412.35c-11.18-6.75-24.16-10.13-38.93-10.13c-14.77,0-27.75,3.38-38.93,10.13c-11.18,6.75-19.94,16.14-26.27,28.17
		s-9.5,25.92-9.5,41.67c0,15.61,3.13,29.4,9.39,41.36c6.26,11.96,15.01,21.31,26.27,28.06c11.25,6.75,24.19,10.13,38.82,10.13
		c14.77,0,27.78-3.38,39.04-10.13c11.25-6.75,20.04-16.14,26.38-28.17c6.33-12.03,9.5-25.85,9.5-41.46c0-15.75-3.17-29.61-9.5-41.57
		C1564.64,428.46,1555.88,419.1,1544.7,412.35z M1546.49,510.36c-3.8,8.09-9.15,14.35-16.04,18.78c-6.89,4.43-15.12,6.65-24.69,6.65
		c-9.43,0-17.62-2.18-24.58-6.54c-6.96-4.36-12.34-10.58-16.14-18.67c-3.8-8.09-5.7-17.62-5.7-28.59s1.9-20.47,5.7-28.48
		s9.18-14.24,16.14-18.67c6.96-4.43,15.16-6.65,24.58-6.65c9.56,0,17.79,2.22,24.69,6.65c6.89,4.43,12.24,10.66,16.04,18.67
		c3.8,8.02,5.7,17.51,5.7,28.48C1552.19,492.81,1550.29,502.27,1546.49,510.36z"/>
	<path d="M1670.56,496.33h46.63v0.63c0,6.05-1.02,11.54-3.06,16.46c-2.04,4.93-4.89,9.11-8.55,12.55c-3.66,3.45-8.12,6.05-13.4,7.81
		c-5.27,1.76-11.36,2.64-18.25,2.64c-9.43,0-17.76-2.04-25-6.12c-7.25-4.08-12.91-10.09-16.99-18.04
		c-4.08-7.95-6.12-17.62-6.12-29.01c0-11.25,1.9-20.99,5.7-29.22s9.28-14.66,16.46-19.31c7.17-4.64,15.83-6.96,25.95-6.96
		c9.28,0,17.51,2.15,24.69,6.44c7.17,4.29,11.96,11.01,14.35,20.15h28.48c-1.41-10.55-5.17-19.69-11.29-27.43
		c-6.12-7.73-13.96-13.75-23.53-18.04c-9.57-4.29-20.26-6.44-32.07-6.44c-15.33,0-28.8,3.45-40.41,10.34
		c-11.61,6.89-20.61,16.35-27.01,28.38c-6.4,12.03-9.6,25.85-9.6,41.46c0,15.9,3.13,29.75,9.39,41.57
		c6.26,11.82,14.91,21,25.95,27.54c11.04,6.54,23.74,9.81,38.09,9.81c7.73,0,14.91-1.02,21.52-3.06c6.61-2.04,12.34-4.89,17.2-8.55
		c3.35-2.52,6.06-5.29,8.17-8.28l1.64,17.57h22.79v-86.72h-71.74V496.33z"/>
	<rect x="1772.77" y="404.96" width="27.01" height="154.24"/>
	<polygon points="1929.2,429.86 1929.2,404.96 1833.41,404.96 1833.41,559.2 1929.2,559.2 1929.2,534.31 1860.41,534.31 
		1860.41,493.37 1922.03,493.37 1922.03,469.53 1860.41,469.53 1860.41,429.86 	"/>
</g>
<g>
	<path d="M504.07,207.45c-5.58-0.35-11.13-0.52-16.64-0.53c-76.81-0.09-146.4,32.63-207.03,97.43
		c-55.12,58.92-73.65,106.33-73.48,163.59c0.08,30.63,5.52,64.07,13.57,103.6c15.13,74.33,59.25,146.08,121.06,196.89
		c47.32,38.89,100.09,58.75,155.7,59.12c28.82,0.19,58.4-4.85,88.39-15.2c96.81-33.42,189.42-129.08,225.2-232.64
		c11.33-32.77,16.83-64.67,16.71-95.02c-0.29-74.18-34.17-139.19-98.92-185.68C650.09,242.59,574.54,211.79,504.07,207.45"/>
	<g>
		<path class="st0" d="M393.54,518.23h-21.29l-0.02,0.6c-0.17,4.14-2.63,40.35-35.03,40.35c-28.96,0-43.65-25.95-43.68-77.14
			c0.03-51.19,14.72-77.14,43.68-77.14c32.96,0,34.96,38.7,35.03,40.34l0.02,0.6h21.29c1.96,0,3.88-0.81,5.25-2.21
			c1.31-1.35,1.99-3.09,1.9-4.91c-0.44-10.04-5.6-60.14-63.79-60.14c-47.02,0-71.87,35.74-71.87,103.35
			c0,67.75,24.85,103.56,71.87,103.56c56.01,0,62.97-45.76,63.78-59.78c0.14-1.93-0.52-3.79-1.88-5.22
			C397.43,519.05,395.5,518.23,393.54,518.23"/>
		<path class="st0" d="M724.31,469.74L724.31,469.74l-18.33-7.99c-17.64-7.75-23.89-15.28-23.89-28.81
			c0-17.63,12.91-29.48,32.1-29.48c11.35,0,20.66,2.32,32.03,13.91l0.62,0.63l9.79-8.95c5.66-5.26,4.03-10,1.66-13.04
			c-9.55-11.26-24.87-17.44-43.17-17.44c-35.28,0-60.89,23.02-60.89,54.73c0,31.18,19.65,44.22,40.88,53.66l18.71,8.35
			c18.8,8.43,27.76,15.62,27.76,33.7c0,24.68-22.29,31.26-35.47,31.26c-11.33,0-23.95-2.43-39.45-19.99l-0.61-0.69l-10.19,8.95
			c-5.25,4.62-5.29,8.57-0.18,15.14c14.03,18.04,34.6,21.83,49.39,21.83c31.98,0,64.36-19.64,64.36-57.18
			C769.44,495.82,751.4,481.4,724.31,469.74"/>
		<path class="st0" d="M543.53,437.78c0-31.94-25.88-59.01-57.84-59.01c-15.03,0-28.72,5.73-39,15.13v-10.98h-19.24
			c-5.8,0-8.01,3.78-8.01,8.13v186.4c0,5.25,3.2,8.05,7.92,8.05h19.25V438.91c0-19.26,15.62-34.87,34.88-34.87
			c19.25,0,34.87,15.61,34.87,34.87v146.62h19.12c5.3,0,8.05-2.95,8.05-8.02V437.78z"/>
		<path class="st0" d="M653.88,392.71c1.01-1.25,1.63-2.81,1.63-4.53c0-3.21-2.09-5.91-4.97-6.88c-5.57-1.86-11.5-2.89-17.66-2.89
			c-15.03,0-28.72,5.73-39,15.13v-10.98h-19.24c-5.8,0-8.02,3.78-8.02,8.13v186.4c0,5.25,3.21,8.05,7.93,8.05h19.24V438.55
			c0-19.26,15.62-34.87,34.88-34.87c5.05,0,9.83,1.09,14.15,3.02l11.12-13.95L653.88,392.71z"/>
	</g>
</g>
</svg>
