<svg id="logo" xmlns="http://www.w3.org/2000/svg" width="94.39" height="41"><defs><style>.cls-15{fill:#00707f}</style></defs><path fill="#f8aa00" d="M7.88 18.25L0 22.8v-9.1l7.88 4.55z"/><path fill="#ffd000" d="M0 22.8l7.88-4.55v9.1L0 22.8z"/><path fill="#f07f3c" d="M7.88 27.35L0 31.9v-9.1l7.88 4.55z"/><path fill="#e62d31" d="M0 31.9l7.88-4.55v9.1L0 31.9z"/><path fill="#c6c0b4" d="M7.88 9.15L0 13.7V4.6l7.88 4.55z"/><path fill="#8c8b82" d="M0 13.7l7.88-4.55v9.1L0 13.7z"/><path fill="#b9cd76" d="M15.76 13.7L7.88 9.15v9.1l7.88-4.55z"/><path fill="#7db928" d="M7.88 18.25l7.88 4.55v-9.1l-7.88 4.55z"/><path fill="#289b38" d="M15.76 22.8l-7.88-4.55v9.1l7.88-4.55z"/><path fill="#00843b" d="M7.88 27.35l7.88 4.55v-9.1l-7.88 4.55z"/><path fill="#005ca9" d="M7.88 36.45L15.76 41v-9.1l-7.88 4.55z"/><path fill="#1fbadb" d="M15.76 31.9l-7.88-4.55v9.1l7.88-4.55z"/><path fill="#a8589e" d="M15.76 31.9l7.88 4.55v-9.1l-7.88 4.55z"/><path fill="#5b257d" d="M23.64 36.45l-7.88-4.55V41l7.88-4.55z"/><path class="cls-15" d="M31.52 13.7l-7.88 4.55v-9.1l7.88 4.55z"/><path fill="#5fa4b0" d="M23.64 9.15l7.88-4.55v9.1l-7.88-4.55z"/><path fill="#5b57a2" d="M31.52 31.9l-7.88 4.55v-9.1l7.88 4.55z"/><path fill="#8da6d6" d="M23.64 27.35l7.88-4.55v9.1l-7.88-4.55z"/><path class="cls-15" d="M39.41 25.47h1.5v3.84c0 1.06.3 1.45 1 1.45s.94-.26 1.42-.89v-4.4h1.51v6.43h-1.23l-.12-.9a2.63 2.63 0 0 1-2.07 1.09c-1.37 0-2-.92-2-2.55zM46.58 25.47h1.24l.1.87H48a2.94 2.94 0 0 1 2.1-1c1.38 0 2 .93 2 2.55v4h-1.55v-3.83c0-1.06-.3-1.45-1-1.45a2.05 2.05 0 0 0-1.47.8v4.49h-1.5zM54 25.47h1.5v6.43H54zM56.62 25.47h1.53l1 3.34c.17.63.37 1.28.54 1.94.19-.66.37-1.31.55-1.94l1-3.34h1.46l-2.1 6.43h-1.74zM66.2 25.32c1.74 0 2.66 1.25 2.66 3a3.18 3.18 0 0 1-.07.71h-4.08a1.84 1.84 0 0 0 1.9 1.82 2.68 2.68 0 0 0 1.49-.47l.51.94a4 4 0 0 1-2.2.69 3.1 3.1 0 0 1-3.17-3.36 3.13 3.13 0 0 1 2.96-3.33zm1.35 2.8c0-1-.43-1.64-1.31-1.64s-1.41.56-1.54 1.64zM70.43 25.47h1.24l.1 1.14h.06a2.15 2.15 0 0 1 1.81-1.29 1.69 1.69 0 0 1 .74.13l-.26 1.31a2 2 0 0 0-.67-.11c-.51 0-1.13.35-1.52 1.32v3.93h-1.5zM75.31 30.2a2.86 2.86 0 0 0 1.77.72c.7 0 1-.33 1-.78s-.7-.77-1.38-1c-.85-.31-1.8-.8-1.8-1.87s.9-1.92 2.34-1.92a3.42 3.42 0 0 1 2.13.77l-.69.91a2.47 2.47 0 0 0-1.42-.55c-.64 0-.94.31-.94.71s.64.71 1.34 1c.87.32 1.84.74 1.84 1.95s-.88 2-2.5 2a4.08 4.08 0 0 1-2.43-.89zM81 25.47h1.51v6.43H81zM84.84 26.66h-.91v-1.12l1-.07.18-1.75h1.26v1.75H88v1.19h-1.64v3.07c0 .75.29 1.12.9 1.12a1.78 1.78 0 0 0 .67-.14l.26 1.11a4 4 0 0 1-1.31.23c-1.49 0-2-.94-2-2.32zM91.92 25.32c1.74 0 2.66 1.25 2.66 3a3.18 3.18 0 0 1-.07.71h-4.08a1.84 1.84 0 0 0 1.9 1.82 2.68 2.68 0 0 0 1.49-.47l.51.94a4 4 0 0 1-2.2.69A3.1 3.1 0 0 1 89 28.69a3.13 3.13 0 0 1 2.92-3.37zm1.35 2.8c0-1-.43-1.64-1.31-1.64s-1.41.56-1.54 1.64zM39.41 4.6H43v12.77h6.2v3h-9.79zM51.52 4.6h3.56v15.77h-3.56zM57.87 4.6h9.87v3h-6.31v3.17h5.37v2.97h-5.37v3.63h6.55v3H57.87V4.6zM59.06 0h3.77l1.96 2.9h-2.83L59.06 0zM69.19 12.58a9.32 9.32 0 0 1 .62-3.49 7.71 7.71 0 0 1 1.67-2.6 7 7 0 0 1 2.46-1.62 8.22 8.22 0 0 1 3-.56 6.25 6.25 0 0 1 2.89.63 7.54 7.54 0 0 1 2 1.43l-2 2.2a4.72 4.72 0 0 0-1.22-.87A3.77 3.77 0 0 0 77 7.38a4 4 0 0 0-1.68.35 3.88 3.88 0 0 0-1.31 1 4.34 4.34 0 0 0-.86 1.59 6.72 6.72 0 0 0-.31 2.13 5.86 5.86 0 0 0 1.1 3.79 4.09 4.09 0 0 0 3.33 1.34 3.67 3.67 0 0 0 .94-.12 1.76 1.76 0 0 0 .79-.36v-2.7h-2.65v-2.91h5.76v7.26a7.15 7.15 0 0 1-2.23 1.35 8.08 8.08 0 0 1-3 .56 8.34 8.34 0 0 1-3-.52 6.85 6.85 0 0 1-2.43-1.54 7.06 7.06 0 0 1-1.64-2.52 9.69 9.69 0 0 1-.62-3.5zM84.43 4.6h9.87v3H88v3.17h5.36v3H88v3.63h6.55v3H84.43zM53.82 23.66a.93.93 0 1 1 .93.85.87.87 0 0 1-.93-.85zM80.85 23.66a.93.93 0 1 1 .93.85.86.86 0 0 1-.93-.85zM92.08 24.71h-1.11l1.16-1.91h1.5l-1.55 1.91z"/></svg>