<?xml version="1.0" encoding="UTF-8"?>
<svg id="Calque_1" data-name="Calque 1" xmlns="http://www.w3.org/2000/svg" viewBox="0 0 1810.69 1143.13">
  <defs>
    <style>
      .cls-1 {
        fill: #00284b;
      }

      .cls-2 {
        fill: #fff;
      }
    </style>
  </defs>
  <g>
    <path class="cls-1" d="m892.18.53C886.6.18,881.05,0,875.55,0c-76.81-.09-146.4,32.63-207.03,97.43-55.12,58.92-73.65,106.33-73.48,163.59.08,30.63,5.52,64.07,13.57,103.6,15.13,74.33,59.25,146.08,121.06,196.89,47.32,38.89,100.09,58.75,155.7,59.12,28.82.19,58.4-4.85,88.39-15.2,96.81-33.42,189.42-129.08,225.2-232.64,11.33-32.77,16.83-64.67,16.71-95.02-.29-74.18-34.17-139.19-98.92-185.68C1038.2,35.67,962.65,4.88,892.18.53"/>
    <g>
      <path class="cls-2" d="m781.65,311.31h-21.29l-.02.6c-.17,4.14-2.63,40.35-35.03,40.35-28.96,0-43.65-25.95-43.68-77.14.03-51.19,14.72-77.14,43.68-77.14,32.96,0,34.96,38.7,35.03,40.34l.02.6h21.29c1.96,0,3.88-.81,5.25-2.21,1.31-1.35,1.99-3.09,1.9-4.91-.44-10.04-5.6-60.14-63.79-60.14-47.02,0-71.87,35.74-71.87,103.35s24.85,103.56,71.87,103.56c56.01,0,62.97-45.76,63.78-59.78.14-1.93-.52-3.79-1.88-5.22-1.36-1.44-3.29-2.26-5.25-2.26"/>
      <path class="cls-2" d="m1112.42,262.82h0s-18.33-7.99-18.33-7.99c-17.64-7.75-23.89-15.28-23.89-28.81,0-17.63,12.91-29.48,32.1-29.48,11.35,0,20.66,2.32,32.03,13.91l.62.63,9.79-8.95c5.66-5.26,4.03-10,1.66-13.04-9.55-11.26-24.87-17.44-43.17-17.44-35.28,0-60.89,23.02-60.89,54.73s19.65,44.22,40.88,53.66l18.71,8.35c18.8,8.43,27.76,15.62,27.76,33.7,0,24.68-22.29,31.26-35.47,31.26-11.33,0-23.95-2.43-39.45-19.99l-.61-.69-10.19,8.95c-5.25,4.62-5.29,8.57-.18,15.14,14.03,18.04,34.6,21.83,49.39,21.83,31.98,0,64.36-19.64,64.36-57.18,0-32.49-18.04-46.92-45.13-58.58"/>
      <path class="cls-2" d="m931.64,230.86c0-31.94-25.88-59.01-57.84-59.01-15.03,0-28.72,5.73-39,15.13v-10.98h-19.24c-5.8,0-8.01,3.78-8.01,8.13v186.4c0,5.25,3.2,8.05,7.92,8.05h19.25v-146.59c0-19.26,15.62-34.87,34.88-34.87s34.87,15.61,34.87,34.87v146.62h19.12c5.3,0,8.05-2.95,8.05-8.02v-139.73Z"/>
      <path class="cls-2" d="m1041.99,185.79c1.01-1.25,1.63-2.81,1.63-4.53,0-3.21-2.09-5.91-4.97-6.88-5.57-1.86-11.5-2.89-17.66-2.89-15.03,0-28.72,5.73-39,15.13v-10.98h-19.24c-5.8,0-8.02,3.78-8.02,8.13v186.4c0,5.25,3.21,8.05,7.93,8.05h19.24v-146.59c0-19.26,15.62-34.87,34.88-34.87,5.05,0,9.83,1.09,14.15,3.02l11.12-13.95-.06-.04Z"/>
    </g>
  </g>
  <g>
    <polygon class="cls-1" points="343.79 714.16 319.95 714.16 304.13 745.39 323.33 745.39 343.79 714.16"/>
    <polygon class="cls-1" points="266.15 910.6 361.94 910.6 361.94 885.7 293.15 885.7 293.15 844.77 354.77 844.77 354.77 820.93 293.15 820.93 293.15 781.26 361.94 781.26 361.94 756.36 266.15 756.36 266.15 910.6"/>
    <path class="cls-1" d="m482.1,879.58c-7.53,5.06-16.56,7.6-27.11,7.6-9.28,0-17.41-2.22-24.37-6.65-6.96-4.43-12.34-10.69-16.14-18.78-3.8-8.09-5.7-17.48-5.7-28.17s1.9-20.68,5.7-28.7,9.18-14.21,16.14-18.57c6.96-4.36,15.09-6.54,24.37-6.54,10.41,0,19.23,2.5,26.48,7.49,7.24,4.99,12.2,11.99,14.88,20.99h28.48c-1.69-11.11-5.7-20.71-12.03-28.8-6.33-8.09-14.35-14.38-24.05-18.88-9.71-4.5-20.68-6.75-32.92-6.75-14.91,0-28.06,3.31-39.46,9.92-11.39,6.61-20.22,15.9-26.48,27.85-6.26,11.96-9.39,25.95-9.39,41.99s3.06,30.21,9.18,42.09c6.12,11.89,14.7,21.1,25.74,27.64,11.04,6.54,24.09,9.81,39.14,9.81,12.24,0,23.32-2.25,33.23-6.75,9.92-4.5,18.15-10.83,24.69-18.99,6.54-8.16,10.79-17.58,12.76-28.27h-28.06c-2.53,8.58-7.56,15.4-15.09,20.47Z"/>
    <path class="cls-1" d="m654.68,763.74c-11.18-6.75-24.16-10.13-38.93-10.13s-27.75,3.38-38.93,10.13c-11.18,6.75-19.94,16.14-26.27,28.17-6.33,12.03-9.5,25.92-9.5,41.67s3.13,29.4,9.39,41.36c6.26,11.96,15.01,21.31,26.27,28.06,11.25,6.75,24.19,10.13,38.82,10.13s27.78-3.38,39.04-10.13c11.25-6.75,20.04-16.14,26.38-28.17,6.33-12.03,9.5-25.85,9.5-41.46s-3.17-29.61-9.5-41.57c-6.33-11.95-15.09-21.31-26.27-28.06Zm1.79,98.01c-3.8,8.09-9.15,14.35-16.04,18.78-6.89,4.43-15.12,6.65-24.69,6.65s-17.62-2.18-24.58-6.54c-6.96-4.36-12.34-10.58-16.14-18.67-3.8-8.09-5.7-17.62-5.7-28.59s1.9-20.47,5.7-28.48,9.18-14.24,16.14-18.67c6.96-4.43,15.16-6.65,24.58-6.65s17.79,2.22,24.69,6.65c6.89,4.43,12.24,10.66,16.04,18.67,3.8,8.02,5.7,17.51,5.7,28.48s-1.9,20.29-5.7,28.38Z"/>
    <polygon class="cls-1" points="807.25 885.7 742.9 885.7 742.9 756.36 715.89 756.36 715.89 910.6 720.53 910.6 742.9 910.6 807.25 910.6 807.25 885.7"/>
    <path class="cls-1" d="m852.09,903c11.25,6.75,24.19,10.13,38.82,10.13s27.78-3.38,39.04-10.13c11.25-6.75,20.04-16.14,26.38-28.17,6.33-12.03,9.5-25.85,9.5-41.46s-3.17-29.61-9.5-41.57c-6.33-11.95-15.09-21.31-26.27-28.06s-24.16-10.13-38.93-10.13-27.75,3.38-38.93,10.13c-11.18,6.75-19.94,16.14-26.27,28.17-6.33,12.03-9.5,25.92-9.5,41.67s3.13,29.4,9.39,41.36c6.26,11.96,15.01,21.31,26.27,28.06Zm-1.69-98.12c3.8-8.02,9.18-14.24,16.14-18.67,6.96-4.43,15.16-6.65,24.58-6.65s17.79,2.22,24.69,6.65c6.89,4.43,12.24,10.66,16.04,18.67,3.8,8.02,5.7,17.51,5.7,28.48s-1.9,20.29-5.7,28.38c-3.8,8.09-9.15,14.35-16.04,18.78-6.89,4.43-15.12,6.65-24.69,6.65s-17.62-2.18-24.58-6.54c-6.96-4.36-12.34-10.58-16.14-18.67-3.8-8.09-5.7-17.62-5.7-28.59s1.9-20.47,5.7-28.48Z"/>
    <path class="cls-1" d="m1095.05,901.32c3.35-2.52,6.06-5.29,8.17-8.28l1.64,17.57h22.79v-86.72h-71.74v23.84h46.63v.63c0,6.05-1.02,11.54-3.06,16.46-2.04,4.93-4.89,9.11-8.55,12.55-3.66,3.45-8.12,6.05-13.4,7.81-5.27,1.76-11.36,2.64-18.25,2.64-9.43,0-17.76-2.04-25-6.12-7.25-4.08-12.91-10.09-16.99-18.04-4.08-7.95-6.12-17.62-6.12-29.01s1.9-20.99,5.7-29.22,9.28-14.66,16.46-19.31c7.17-4.64,15.83-6.96,25.95-6.96,9.28,0,17.51,2.15,24.69,6.44,7.17,4.29,11.96,11.01,14.35,20.15h28.48c-1.41-10.55-5.17-19.69-11.29-27.43-6.12-7.73-13.96-13.75-23.53-18.04-9.57-4.29-20.26-6.44-32.07-6.44-15.33,0-28.8,3.45-40.41,10.34-11.61,6.89-20.61,16.35-27.01,28.38-6.4,12.03-9.6,25.85-9.6,41.46s3.13,29.75,9.39,41.57c6.26,11.82,14.91,21,25.95,27.54,11.04,6.54,23.74,9.81,38.09,9.81,7.73,0,14.91-1.02,21.52-3.06,6.61-2.04,12.34-4.89,17.2-8.55Z"/>
    <rect class="cls-1" x="1158.12" y="756.36" width="27.01" height="154.24"/>
    <polygon class="cls-1" points="1314.55 885.7 1245.77 885.7 1245.77 844.77 1307.38 844.77 1307.38 820.93 1245.77 820.93 1245.77 781.26 1314.55 781.26 1314.55 756.36 1218.76 756.36 1218.76 910.6 1314.55 910.6 1314.55 885.7"/>
    <path class="cls-1" d="m1514.58,910.6h29.96l-25.2-28.23c1.08-1.68,2.1-3.41,3.05-5.22,6.05-11.46,9.07-24.86,9.07-40.2h-25.11c0,10.08-1.38,18.82-4.12,26.25l-31.11-34.84c9.02-6.06,15.7-12.09,20.04-18.1,4.92-6.82,7.38-14.31,7.38-22.47,0-6.75-1.62-12.69-4.85-17.83-3.24-5.13-7.7-9.11-13.4-11.92-5.7-2.81-12.34-4.22-19.94-4.22s-14.35,1.51-20.26,4.54c-5.91,3.03-10.59,7.17-14.03,12.45-3.45,5.27-5.17,11.36-5.17,18.25,0,6.05,1.4,11.85,4.22,17.41,2.56,5.05,6.76,10.95,12.57,17.69-6.43,3.15-12.03,6.57-16.79,10.27-6.33,4.93-11.11,10.34-14.35,16.25-3.24,5.91-4.85,12.24-4.85,18.99,0,8.72,2.35,16.32,7.07,22.79,4.71,6.47,11.29,11.57,19.73,15.3,8.44,3.73,18.21,5.59,29.33,5.59,14.91,0,27.88-3.17,38.93-9.5,2.62-1.5,5.09-3.15,7.43-4.94l10.4,11.69Zm-65.2-132.4c2.67-2.6,6.33-3.9,10.97-3.9s7.98,1.27,10.44,3.8c2.46,2.53,3.69,6.05,3.69,10.55,0,5.77-1.58,10.97-4.75,15.61-2.57,3.77-6.29,7.11-11.12,10.04-2.95-3.48-5.37-6.54-7.23-9.2-2.18-3.09-3.73-5.91-4.64-8.44-.92-2.53-1.37-5.13-1.37-7.81,0-4.5,1.33-8.05,4.01-10.66Zm11.39,112.99c-9.85,0-17.62-2.11-23.32-6.33-5.7-4.22-8.55-10.13-8.55-17.72,0-4.5.91-8.58,2.74-12.24,1.83-3.66,4.67-7.1,8.55-10.34,2.69-2.25,5.96-4.43,9.77-6.55l39.24,44.09c-7.4,6.05-16.88,9.09-28.44,9.09Z"/>
  </g>
  <g>
    <polygon class="cls-1" points="0 1140.6 95.79 1140.6 95.79 1115.7 27.01 1115.7 27.01 1074.77 88.62 1074.77 88.62 1050.93 27.01 1050.93 27.01 1011.26 95.79 1011.26 95.79 986.36 0 986.36 0 1140.6"/>
    <polygon class="cls-1" points="224.12 1095.87 151.75 986.36 124.95 986.36 124.95 1140.6 151.54 1140.6 151.54 1031.25 224.12 1140.6 250.71 1140.6 250.71 986.36 224.12 986.36 224.12 1095.87"/>
    <path class="cls-1" d="m349.25,1075.19c-1.41,3.94-2.95,8.37-4.64,13.29-1.69,4.93-3.45,10.76-5.27,17.51-1.69-6.19-3.31-11.74-4.85-16.67-1.55-4.92-3.17-9.63-4.85-14.14l-33.76-88.83h-28.7l58.24,154.24h27.85l57.39-154.24h-28.06l-33.34,88.83Z"/>
    <rect class="cls-1" x="427" y="986.36" width="27.01" height="154.24"/>
    <path class="cls-1" d="m594.93,1060.74c4.71-7.24,7.07-16,7.07-26.27,0-15.19-4.89-27.01-14.67-35.45-9.78-8.44-23.39-12.66-40.83-12.66h-58.87v154.24h27.01v-57.6h33.13l26.16,57.6h29.54l-29.33-63.3c9.14-3.8,16.07-9.32,20.78-16.56Zm-28.38-8.12c-4.78,4.36-11.47,6.54-20.04,6.54h-31.86v-48.74h31.86c8.58,0,15.26,2.08,20.04,6.22,4.78,4.15,7.17,10.1,7.17,17.83s-2.39,13.79-7.17,18.15Z"/>
    <path class="cls-1" d="m732.97,993.74c-11.18-6.75-24.16-10.13-38.93-10.13s-27.75,3.38-38.93,10.13c-11.18,6.75-19.94,16.14-26.27,28.17s-9.5,25.92-9.5,41.67,3.13,29.4,9.39,41.36c6.26,11.96,15.01,21.31,26.27,28.06,11.25,6.75,24.19,10.13,38.82,10.13s27.78-3.38,39.04-10.13c11.25-6.75,20.04-16.14,26.38-28.17,6.33-12.03,9.5-25.85,9.5-41.46s-3.17-29.61-9.5-41.57c-6.33-11.95-15.09-21.31-26.27-28.06Zm1.79,98.01c-3.8,8.09-9.15,14.35-16.04,18.78-6.89,4.43-15.12,6.65-24.69,6.65s-17.62-2.18-24.58-6.54c-6.96-4.36-12.34-10.58-16.14-18.67-3.8-8.09-5.7-17.62-5.7-28.59s1.9-20.47,5.7-28.49,9.18-14.24,16.14-18.67c6.96-4.43,15.16-6.65,24.58-6.65s17.79,2.22,24.69,6.65c6.89,4.43,12.24,10.66,16.04,18.67,3.8,8.02,5.7,17.51,5.7,28.49s-1.9,20.29-5.7,28.38Z"/>
    <polygon class="cls-1" points="893.35 1095.87 820.97 986.36 794.18 986.36 794.18 1140.6 820.76 1140.6 820.76 1031.25 893.35 1140.6 919.93 1140.6 919.93 986.36 893.35 986.36 893.35 1095.87"/>
    <polygon class="cls-1" points="1052.86 1095.87 980.49 986.36 953.69 986.36 953.69 1140.6 980.28 1140.6 980.28 1031.25 1052.86 1140.6 1079.45 1140.6 1079.45 986.36 1052.86 986.36 1052.86 1095.87"/>
    <polygon class="cls-1" points="1113.21 1140.6 1209 1140.6 1209 1115.7 1140.22 1115.7 1140.22 1074.77 1201.83 1074.77 1201.83 1050.93 1140.22 1050.93 1140.22 1011.26 1209 1011.26 1209 986.36 1113.21 986.36 1113.21 1140.6"/>
    <path class="cls-1" d="m1314.12,1109.16l-49.8-122.8h-26.16v154.24h26.16v-55.28c0-9.71-.11-18.15-.32-25.32-.21-7.17-.67-13.08-1.37-17.72l39.03,98.33h24.9l39.25-98.54c-.42,2.82-.71,5.63-.84,8.44-.14,2.82-.28,6.05-.42,9.71-.14,3.66-.21,8.12-.21,13.4v66.99h26.16v-154.24h-26.59l-49.8,122.8Z"/>
    <polygon class="cls-1" points="1424.26 1140.6 1520.05 1140.6 1520.05 1115.7 1451.27 1115.7 1451.27 1074.77 1512.88 1074.77 1512.88 1050.93 1451.27 1050.93 1451.27 1011.26 1520.05 1011.26 1520.05 986.36 1424.26 986.36 1424.26 1140.6"/>
    <polygon class="cls-1" points="1648.38 1095.87 1576.01 986.36 1549.21 986.36 1549.21 1140.6 1575.8 1140.6 1575.8 1031.25 1648.38 1140.6 1674.97 1140.6 1674.97 986.36 1648.38 986.36 1648.38 1095.87"/>
    <polygon class="cls-1" points="1810.69 986.36 1693.37 986.36 1693.37 1011.26 1738.52 1011.26 1738.52 1140.6 1765.53 1140.6 1765.53 1011.26 1810.69 1011.26 1810.69 986.36"/>
  </g>
</svg>